<?xml version="1.0" encoding="UTF-8"?>
<svg viewBox="0 0 640 480" xmlns="http://www.w3.org/2000/svg">
 <path d="m424.59 182.04c-0.51034-1.796-2.4524-3.23-3.6345-4.6254-1.1316-1.3373-2.2747-2.665-3.4096-3.9965-4.9014-5.744-9.8012-11.488-14.703-17.232-6.2907-7.3736-12.484-14.867-18.908-22.08-14.59-16.381-29.591-32.223-44.707-47.921-15.074-15.655-30.589-31.542-48.6-42.227-9.2599-5.4924-19.143-7.72-29.386-8.6548-9.7719-0.89218-19.389 1.5637-28.994 2.992-2.379 0.35416-4.6634 1.2734-7.0668 1.5889-2.3643 0.31159-4.7906 1.2502-7.1157 1.8637-0.40112 0.10644-2.2371 0.88444-2.3953 0.45674-0.3049-0.81671-0.6082-1.6334-0.91145-2.4501-1.262-3.3946-2.5225-6.7891-3.7845-10.182-2.2926-6.1659-4.5851-12.332-6.876-18.498-0.67505-1.8153-2.2371-3.7197-3.5432-4.8809-0.9229-0.82058-1.8246-1.6489-2.8143-2.3514-0.81203-0.57673-2.2975-1.6876-3.191-1.8986-5.0074-1.1883-9.4621-2.2043-14.594-1.4457-4.9488 0.73349-9.5306 1.9469-14.315 3.6171-4.5216 1.5792-9.2126 4.3564-13.3 7.1104-4.1302 2.7811-8.6811 5.8079-12.239 9.5876-5.8586 6.2259-12.188 13.17-15.107 22.074-0.72071 2.1985-1.6518 4.3448-1.8849 6.6962-0.28372 2.874-0.30655 5.3415-0.15328 8.2329 0.10598 2.0263 1.2425 4.0719 1.9779 5.8234 0.69462 1.6508 1.5034 4.0139 2.7279 5.2409-0.768 0.64252-1.9893 0.80703-2.8568 1.2328-0.74842 0.36771-1.9192 1.047-2.4638 1.6915-0.63756 0.75478-2.1801 1.1864-2.9937 1.7012-1.1952 0.76059-2.3627 1.5928-3.5481 2.3746-4.2362 2.7907-8.549 5.3802-12.816 8.109-2.4295-6.0982-4.859-12.196-7.2902-18.295-1.6974-4.2577-3.6394-8.8715-7.2576-11.306-8.6289-5.806-19.307-4.2964-28.523-1.5579-9.1295 2.7133-18.089 7.9929-25.693 14.554-4.2786 3.6926-8.1707 7.5594-11.691 12.26-2.9953 4.0022-6.382 8.918-7.8283 14.062-0.9017 3.2068-1.5458 6.1389-2.0398 9.4695-0.39296 2.6398 0.52667 5.7924 1.2262 8.2812 0.73864 2.632 2.0496 4.9931 3.2921 7.3484 1.2327 2.3379 2.1931 4.8693 3.4829 7.1665 1.3289 2.3688 2.3953 4.846 3.6215 7.2749 0.41416 0.82057 0.67831 0.85539 0.030981 1.3934-0.63265 0.52448-1.2637 1.049-1.8963 1.5734-0.88376 0.73349-1.867 1.5173-2.6268 2.4211-1.8001 2.1386-3.4747 4.0564-4.8264 6.6246-1.2832 2.4404-1.6501 5.3221-2.1246 8.1013-0.93757 5.4828-0.51689 11.351-0.51689 16.924v11.817c0 2.4114-0.91963 3.8997-1.8719 6.0886-4.8264 11.091-7.4598 22.75-9.0903 35.033-1.5898 11.958-1.5001 23.859-0.40927 35.854 0.46797 5.1519 1.3208 10.402 2.5192 15.386 0.68646 2.8546 1.1137 6.1253 2.1426 8.8309 1.1626 3.0559 2.3268 6.1118 3.4894 9.1657 3.7927 9.9611 8.3713 19.556 12.603 29.258 4.9976 11.459 9.9872 22.924 14.973 34.391 9.1719 21.091 18.427 42.186 27.369 63.417 0.95714 2.274 1.9257 4.5364 2.9138 6.791 0.64407 1.467 1.2865 2.9359 1.9306 4.4029 0.1386 0.31738 0.58048 1.0276 0.58048 1.2212 0 1.8618 3.1926 5.1576 4.3177 6.2298 1.8018 1.7147 3.5579 3.232 5.6678 4.4764 4.4368 2.6146 9.7002 3.0384 14.558 3.5629 4.3193 0.46448 9.4034 0.30191 13.664-0.66962 20.093-4.5886 39.133-13.842 55.763-28.051 3.9949-3.4139 7.8935-6.8394 11.702-10.54 3.8025-3.6945 7.0538-8.2426 10.32-12.58 3.0671-4.07 5.8684-8.587 7.9294-13.482 2.1181-5.0318 4.5134-10.48 5.1982-16.125 0.34404-2.841 0.35545-5.6763-0.014679-8.5135-0.28536-2.1869-0.83322-5.9337-2.2078-7.5574-1.5066-1.7844-2.1898-5.3628-3.341-7.5478-1.2523-2.3785-2.0643-5.1247-3.1193-7.6329-0.51034-1.2154-1.1186-2.3785-1.7072-3.5397-0.47775-0.94446 1.218-2.3611 1.8116-3.2107 1.4284-2.0418 3.0817-3.9113 4.5818-5.8911 3.2807-4.3254 6.5548-8.5503 9.6986-13.027 3.0687-4.37 5.7673-9.3224 9.1637-13.346 1.624-1.9218 2.9399-4.2268 4.347-6.3866 1.3354-2.0534 2.8747-3.9887 3.9394-6.2627 2.3447-5.0086 3.7796-10.23 4.153-15.947 0.1924-2.9649 0.17119-5.7866-0.15817-8.7477-0.15329-1.3644-0.28047-2.7346-0.47124-4.0913-0.1386-0.9754-1.0908-4.1996-0.71254-5.0376 0.3049-0.67543 6.4929-3.0888 6.5744-2.9359 1.2718 2.3727 2.3953 5.0686 3.9639 7.18 1.7692 2.3805 3.4878 4.6951 5.4395 6.8549 1.6012 1.7728 3.6003 4.2983 5.6434 5.268 2.4931 1.1844 4.9716 2.274 7.5185 3.2823 2.2518 0.89023 5.1281 0.77994 7.4826 0.96573 2.4328 0.19159 4.9895-0.26514 7.4419-0.26514 2.2844 0 4.7123-0.16644 6.9821-0.46252 2.3855-0.31162 4.7612-0.56128 7.1467-0.77222 1.1528-0.10257 4.8281-1.0373 5.557-0.18967 4.153 4.8306 8.306 9.6611 12.459 14.492 1.5767 1.8328 3.2105 3.6016 4.815 5.3995 0.70767 0.79156 2.1458 1.2347 3.0149 1.7282 0.9718 0.55158 2.0659 1.4535 3.1242 1.7321 4.7661 1.256 10.02 2.9475 14.96 2.4288 9.5828-1.0044 19.404-2.7423 28.35-7.2536 4.6732-2.3572 9.3398-4.6428 13.881-7.3388 4.9308-2.9262 9.4817-6.0576 14.163-9.5276 8.0517-5.9724 15.512-12.858 22.231-20.824 7.1842-8.5174 13.662-17.331 18.394-28.074 1.4805-3.3597 2.5665-6.5414 3.6264-10.126 0.81528-2.7559 1.6795-6.224 1.6795-9.1831 0-3.2358 0.026123-6.5085-0.72562-9.6534-0.8234-3.4565-2.03-5.7576-3.6899-8.7128"/>
 <g fill="#fff">
  <path d="m156.24 73.82c-0.93266 0.49931-7.8495 4.6757-8.1332 4.1706-1.28-2.274-3.098-5.2409-5.1134-6.6382 2.9986-4.7512 5.8749-9.156 9.811-12.891 1.9371-1.8386 3.6476-3.6152 5.7232-5.2583 2.0284-1.6063 4.0584-3.2107 6.0868-4.817 3.8236-3.0268 8.2571-5.4034 12.462-7.5845 4.5492-2.3611 9.3186-4.49 14.186-5.7286 2.317-0.59028 4.6536-0.96766 7.0163-1.2018 1.9143-0.18966 5.327-0.38513 7.0603 0.63672 2.1099 1.2444 3.7437 0.88057 4.6764 3.8552 0.31958 1.0199 0.75168 2.1308 1.0403 3.083 0.55763 1.8405-0.73702 1.4689-2.1116 1.796-9.5371 2.2624-19.025 5.2622-28.43 8.198-5.9532 1.8598-12.024 3.6636-17.864 5.9705-2.6268 1.0373-5.5227 3.8687-6.4081 7.1588-0.42395 1.5754-0.55276 3.4662-0.32611 5.0706 0.10924 0.77219-0.034241 1.5657 0.068481 2.3301 0.094559 0.72768 0.74353 1.5657 0.25598 1.8502"/>
  <path d="m127.92 60.561c-0.67668-2.4075-1.6942-5.357-1.2555-7.9639 0.56091-3.3346 1.3142-5.9395 2.4654-9.0631 2.03-5.5079 5.6173-9.874 9.0316-14.196 6.5907-8.347 15.446-14.461 24.308-18.726 4.4596-2.1463 9.149-4.1416 13.935-4.8983 2.3839-0.37739 4.7694-0.95992 7.1761-0.95992 2.5567 0 4.9846 0.47415 7.4973 1.016 2.061 0.44512 4.5444 1.4128 6.2026 2.992 1.2979 1.2367 3.2562 3.4294 3.6769 5.4344 0.58374 2.7869 1.9664 5.3647 2.922 8.0142 0.93921 2.6011 1.911 5.1944 2.8812 7.7839 0.042389 0.11805 0.086411 0.23418 0.13043 0.35029-0.91798-0.99476-4.2818-0.98895-5.8146-1.1399-2.4263-0.23998-4.9275 0.31352-7.331 0.69285-4.4938 0.71027-9.454 2.1192-13.659 4.1726-9.2029 4.4938-17.586 10.234-25.848 16.768-5.1966 4.1087-9.4132 9.0825-13.542 14.594-0.40927 0.54575-0.7158 1.256-1.0566 1.8637-0.64571 1.1496-0.60168 0.85542-1.6452 0.44125-1.2262-0.48576-2.8127-0.69672-4.0992-0.69672-1.8458 0-2.0659 0.81864-3.1437-1.1941-0.94571-1.765-1.8898-3.5242-2.8323-5.2854"/>
  <path d="m124.81 75.052c3.9215-1.8618 9.4344-4.159 13.325-0.85928 3.1926 2.7075 5.3156 5.9918 7.5756 9.4579 6.6739 10.238 13.348 20.474 20.022 30.712 7.5201 11.534 15.04 23.069 22.56 34.604 0.4859 0.74702 0.97343 1.4921 1.461 2.2392 0.63103 0.96767 1.0175 2.4134 1.4789 3.5107 0.54134 1.285 0.16469 2.6436 0.53319 3.9616 0.22014 0.78189-0.26578 2.7888-0.45166 3.6307-0.27231 1.227-0.67342 2.9552-1.4235 3.8474-1.4854 1.7669-2.8551 3.172-4.7547 4.488-8.9126 6.1737-17.572 12.827-26.278 19.402-8.4756 6.4001-17.136 12.494-25.675 18.776-8.0517 5.924-16.068 11.91-24.127 17.818-4.5965 3.3675-9.18 6.7504-13.737 10.193-0.30166 0.22836-3.0426-4.6816-3.3133-5.1267-15.469-25.291-30.936-50.584-46.404-75.876-4.3373-7.091-8.6729-14.182-13.01-21.271 17.602-11.254 35.186-22.541 52.732-33.915 7.0391-4.5635 14.152-8.9702 21.187-13.543 3.2513-2.1134 6.5059-4.2171 9.7605-6.3227 1.4594-0.94444 2.9171-1.8889 4.3748-2.8333 0.84951-0.55157 3.9329-1.9682 4.1644-2.8933"/>
  <path d="m71.03 282.25c-1.7186 0.017426-3.7747-2.634-4.9357-4.01-1.6795-1.9876-3.0752-4.486-4.5639-6.6923-3.16-4.6835-6.0689-9.6283-9.0757-14.451-5.9254-9.5024-12.192-18.755-18.306-28.091-5.4232-8.2793-10.475-16.059-14.814-25.07-4.5509-9.4483-3.116-22.519-3.116-32.992 1.2278 1.9953 2.0333 4.5732 3.5008 6.315 1.5539 1.8444 2.8241 4.5209 4.1596 6.6362 2.7426 4.3371 5.451 8.7148 8.2914 12.961 6.6657 9.963 13.16 20.079 19.663 30.193 5.2341 8.1438 10.504 16.272 15.683 24.466 0.79408 1.256 1.5882 2.514 2.3822 3.77 0.32448 0.51477 1.3909 1.7282 1.3909 2.3166v24.959c-0.086426-0.10452-0.17284-0.20706-0.25926-0.31158"/>
 </g>
 <path d="m74.669 257.28c2.6578-4.7396 5.6874-8.9992 9.9562-11.815 2.1817-1.4379 4.1954-2.7365 6.7065-3.1081 1.355-0.20129 3.5008 0.15094 4.3976-0.50706 6.0901-4.4803 12.18-8.9625 18.27-13.443 22.924-16.864 45.846-33.729 68.77-50.595 2.2763-1.676 4.5541-3.35 6.832-5.026 0.80875-0.59608 1.5294-1.3876 2.2241-2.1502 0.72722-0.79735 1.2718-1.647 1.8181-2.6204 0.57233-1.0199 0.63754-2.2546 1.2996-3.2359v13.702c0 2.5566 0.18587 5.5853-0.77779 7.8806-1.0664 2.5353-2.2714 3.7971-4.2492 5.3125-8.3158 6.3672-16.692 12.62-25.001 19.001-16.8 12.899-33.708 25.589-50.72 38.085-7.075 5.1983-14.334 9.9882-21.145 15.661-3.5514 2.9553-6.9136 6.1698-10.137 9.6128-2.666 2.8488-5.2797 6.3188-8.5066 8.2193 0.088051-8.3277 0.17447-16.65 0.26251-24.974"/>
 <g fill="#fff">
  <path d="m58.041 96.02c3.1812-1.7766 6.3412-3.6384 9.5616-5.3125 3.6785-1.9102 7.4565-3.2707 11.264-4.7783 3.2921-1.3025 7.0978-1.587 10.533-1.9276 3.0524-0.30191 5.7396 0.5148 8.1283 2.1502-8.7479 5.5641-17.612 10.863-26.368 16.406-8.686 5.4983-17.157 11.511-25.882 16.917-4.9129 3.0423-9.7034 6.2762-14.515 9.5373 0.85604-7.1104 5.9646-14.219 10.44-18.771 5.3352-5.4266 11.04-9.9089 17.059-14.194 0.11903-0.085159-0.20055-0.023232-0.22175-0.0271"/>
  <path d="m44.013 65.494c4.2851-2.5411 8.6142-5.0415 13.199-6.7427 4.9275-1.8289 9.6936-2.8624 14.796-3.7294 4.3797-0.74316 9.9382 0.76059 13.829 3.0733 4.3797 2.603 5.3352 8.1574 7.587 12.829 1.4838 3.0791 2.3513 6.5762 3.8416 9.6786-1.717-0.063866-3.7193-0.90961-5.5846-1.0799-2.4377-0.22256-4.8199 0.11612-7.2364 0.49738-4.8966 0.77607-9.5404 2.5662-14.266 4.2151-4.6536 1.6237-9.0692 4.8673-13.331 7.5458-4.1873 2.632-8.1772 5.4886-11.97 8.8638-4.0829 3.6326-7.9799 7.6426-11.43 12.109-3.597 4.6544-5.7102 9.5837-7.0994 15.639-2.767-5.5718-5.5325-11.144-8.2995-16.715-2.2143-4.4609-1.4365-10.333 0.016306-14.931 3.6573-11.579 11.84-19.38 19.766-26.808 1.8686-1.7476 4.1351-3.0094 6.1831-4.4454"/>
  <path d="m28.688 137.03c1.1789 0.23999 2.8421 4.1977 3.5155 5.2951 2.9578 4.8093 5.9156 9.6186 8.8751 14.43 8.5278 13.867 17.057 27.731 25.585 41.598 8.037 13.065 16.072 26.131 24.109 39.196-3.5399 1.1922-6.6885 2.3379-9.6822 4.9931-3.1062 2.7578-5.9792 5.7363-8.2424 9.4947l-41.53-64.419c-4.3373-6.7272-9.2681-13.305-12.444-20.849-1.8963-4.5035-3.01-10.079-1.823-15.014 1.3289-5.5176 4.8264-9.9263 9.0023-12.678 0.91474-0.60381 1.7659-1.3566 2.635-2.0456"/>
  <path d="m193.65 367.97c-1.6306 6.1079-3.7014 11.062-6.7456 16.348-2.6252 4.5538-5.4852 8.8541-8.8686 12.659-7.2005 8.0994-14.603 15.533-23.066 21.724-8.8311 6.4582-17.806 11.577-27.532 15.852-4.5101 1.9837-9.1246 3.5339-13.84 4.6506-4.9178 1.1651-9.8436 2.4521-14.877 2.4521-9.0969 0-20.806-1.2735-25.611-11.714-4.9259-10.706-0.44351-22.413 4.6764-31.908 11.031-20.449 28.685-33.942 46.448-45.043 8.6371-5.3957 18.099-9.1444 27.596-11.718 9.1311-2.4753 19.78-4.2055 28.879-0.75867 3.0508 1.1554 5.0123 2.2721 7.6767 4.3796 2.0268 1.6024 3.5155 4.2016 4.758 6.6575 2.7132 5.3686 1.4544 11.022 0.76311 16.725-0.08316-0.10065-0.16959-0.20322-0.25601-0.30579"/>
 </g>
 <path d="m208.19 293.66c0.073364 0.71024-0.99301 2.4056-1.4284 2.93-1.0272 1.2347-1.9143 2.6069-2.8388 3.95-1.8686 2.7094-3.9883 5.1673-5.8586 7.8806-3.9411 5.7189-8.2327 11.028-12.214 16.692-4.8558-9.6031-9.3023-22.218-19.378-25.335-4.6993-1.4535-9.4295-2.8624-14.333-2.6572-4.9439 0.20514-9.9219 0.4935-14.778 1.7147-4.7808 1.2038-9.2648 2.5488-13.91 4.3332-3.9264 1.5057-7.7712 3.2804-11.639 4.9873 15.865-14.745 31.672-29.336 48.184-43.057 3.7845-3.143 7.5902-6.2434 11.732-8.6954 4.5264-2.6804 9.1637-4.5112 14.067-5.9705 4.5134-1.3392 10.02-2.185 14.598-0.86121 4.3242 1.2502 9.467 4.8325 11.248 9.9011 1.9518 5.5505 3.0231 11.175 2.348 17.215-0.69951 6.2511-2.8323 11.922-5.5423 17.288-0.08316-0.10644-0.16957-0.21094-0.25761-0.31543"/>
 <path d="m162.73 63.336c2.6953-1.6373 6.9967-2.8314 10.437-3.6481 4.4661-1.0606 8.9599-2.9301 13.346-4.4184 8.8213-2.992 17.946-5.117 26.873-7.66 0.19731 1.258 1.4137-0.21095 2.1458-0.38513 1.4186-0.33675 2.8323-0.6851 4.2444-1.0586 2.4181-0.63866 4.8541-1.2096 7.2739-1.8521 4.4857-1.1883 9.1327-2.1811 13.69-2.903 10.29-1.6276 20.356-2.0921 30.63-0.059994 19.09 3.7758 35.352 18.84 49.952 32.98 16.115 15.608 31.542 32.241 46.999 48.755 14.378 15.361 27.902 31.78 41.506 47.915 0.24457 0.2903 0.48914 0.57866 0.73209 0.86896-2.1849-0.47221-4.4237-1.2328-6.6494-1.2328-2.5926 0-5.1721 0.005814-7.7614 0.12387-5.1705 0.23612-10.067 1.5115-15.078 2.9998-9.2485 2.7424-18.517 6.7368-26.894 12.191-17.631 11.476-34.069 25.922-46.355 45.062-3.6574 5.6996-6.5809 11.945-8.8262 18.602-1.2115 3.59-1.7268 6.8956-2.5208 10.633-0.69461 3.2688-0.22012 6.3885-0.22012 9.6728-3.2693-4.0526-6.5434-8.0955-9.8469-12.107-3.641-4.4222-7.7451-8.3509-9.7148-14.172-1.7757-5.2544-0.82181-11.432 0.39621-16.636 1.2131-5.1789 3.023-10.29 5.4934-14.801 5.5928-10.207 12.201-18.989 19.784-27.166 3.6117-3.8958 7.3554-7.5594 11.367-10.855 3.8872-3.1952 7.7957-6.6672 12.017-9.1773 2.1164-1.258 4.1106-2.7501 6.232-4.0081 1.7969-1.0644 4.5558-2.2237 5.839-3.6171 1.1055-1.2018 0.97672-2.545-0.13043-3.8552-0.28534-0.3387-1.099-0.1645-1.4985-0.10838-1.6615 0.2361-3.3198 0.47415-4.9814 0.71025-9.6936 1.3818-19.462 5.1383-28.691 8.7883-18.094 7.1549-36.348 21.13-46.463 40.777-5.0596 9.8256-8.792 20.191-9.3382 31.79-0.51852 11.014 4.0095 21.196 10.828 28.271-4.7107-1.1089-9.5404-2.7404-13.219-6.6149-3.6557-3.8474-6.4619-8.2348-9.1621-13.04-0.89191-1.585-1.7382-4.3951-3.4649-4.3951-0.49078 0-1.1495 0.5535-1.6501 0.79541-1.6093 0.77412-3.2187 1.5502-4.8281 2.3224-1.4153 0.68315-4.3259 1.3489-4.8216 3.3597-0.53157 2.1579 0.67992 5.3647 0.94898 7.5904 0.52502 4.3699 1.3256 9.4134 0.59027 13.785-0.78922 4.6874-2.0464 9.247-4.3992 13.158 1.5882-11.32-0.086426-23.303-7.7142-31.064-6.9918-7.1123-19.262-6.4659-27.491-3.2107-4.6732 1.8482-9.2713 3.4875-13.574 6.3982-4.4971 3.0423-8.7414 6.5027-13.017 9.965-7.9473 6.4311-15.673 13.452-23.306 20.394-4.4498 4.0487-8.9289 8.0393-13.431 12.007-3.6378 3.2049-6.9266 7.0059-10.444 10.406-1.8637 1.8018-3.7666 3.5494-5.5422 5.4731-1.2376 1.3431-2.4768 2.6862-3.7144 4.0274-0.44677 0.48383-1.5246 1.2773-1.5246 1.8289 0 0.34061-0.52015 0.70639-0.52015 1.2328 0 0.81476 0.23643 0.9657 0.52015 1.3876 0.25273 0.3735 0.33588 0.77798 0.7794 0.92896 0.26252 0.08905 1.5604 0.058044 1.5604-0.15482 0-0.95608 6.1961-3.739 7.0179-4.2152 1.7789-1.0276 3.5464-2.0224 5.3629-2.9533 5.2846-2.7114 10.338-4.8306 15.86-6.7833 9.017-3.1856 18.619-5.4828 28.067-4.1919 3.7226 0.509 8.081 0.90186 11.378 3.29 1.4365 1.0432 3.747 2.0456 4.7629 3.652 1.2034 1.9044 2.4458 3.7797 3.6492 5.6782 1.1186 1.7611 1.8572 3.9926 2.8502 5.8814 0.98323 1.8695 1.9208 3.7758 2.8812 5.657 2.0235 3.9635 3.703 8.1729 5.4542 12.334-4.8721-2.4424-9.3202-3.9094-14.6-4.428-4.9732-0.4877-9.9774 0.22641-14.921 0.85348-9.0838 1.1515-18.737 4.6622-27.04 9.1405-9.4507 5.0976-18.67 10.629-27.276 17.552-3.8595 3.1042-7.7696 6.3324-11.217 10.07-3.6378 3.9423-7.737 7.8671-10.864 12.404-3.2481 4.7106-6.3804 9.365-8.9338 14.668-2.7344 5.6821-4.3454 11.024-5.4281 17.437-8.8865-20.576-17.6-41.277-26.702-61.721-4.74-10.646-9.3154-21.389-14.016-32.061-4.6927-10.656-9.917-21.287-13.943-32.318-2.2176-6.0769-3.9753-11.844-5.5325-18.202-1.3909-5.6782-1.973-11.517-2.4214-17.375-0.87235-11.384-0.44188-22.711 1.3322-33.95 0.73212-4.639 1.3925-9.1754 2.5698-13.679 1.1919-4.5596 2.6431-8.887 4.1612-13.311 0.51852 5.5679 1.6289 11.219 4.2672 15.924 2.6562 4.7338 5.0678 9.5702 8.0794 14.035 6.0216 8.9277 11.712 18.182 17.535 27.294 3.3329 5.2138 6.6885 10.406 10.075 15.572 2.8111 4.2868 5.9744 8.4903 8.5115 13.007 2.3268 4.1416 6.4456 8.8309 10.959 8.8309 4.7955 0 8.3941-3.9965 11.691-7.5188 7.4419-7.9503 15.423-15.113 24.22-20.822 8.3794-5.4402 16.485-11.819 24.502-17.975 17.065-13.102 34.286-25.949 51.485-38.803 3.8204-2.8565 8.0892-5.4208 11.3-9.2315 3.4731-4.1222 3.6378-9.2276 3.6378-14.772v-10.637c0-2.3456 0.33099-5.148-0.30003-7.4104-0.77287-2.7694-1.5311-5.4383-2.8029-7.9542-0.56908-1.1264-1.3289-2.1095-1.9453-3.2049-0.41252-0.73348-0.50711-1.4225-0.92615-1.9624-2.7687-3.561-5.5863-8.6141-8.4332-12.746-3.0345-4.4029-5.8847-8.9702-8.8278-13.462-6.3804-9.7366-12.681-19.545-19.086-29.258-2.2241-3.3733-4.4172-6.7233-6.5157-10.209 2.5779-1.3915 5.1558-2.783 7.7337-4.1726 0.96527-0.52061 0.81201-0.49544 1.4006 0.41609 2.0333 3.1449 4.0682 6.2917 6.1016 9.4366 8.112 12.549 16.224 25.097 24.336 37.646 8.2686 12.792 16.539 25.583 24.807 38.376 3.7046 5.7305 7.4239 13.094 12.254 17.58 1.7528 1.6296 4.0519 3.7004 6.2939 3.7004 1.143 0 2.4263 0.57091 3.5188 1.0044 1.2506 0.49352 2.0023 1.4283 3.1763 2.0786-3.659-0.62125-7.4451-0.33482-11.034 0.72768-3.2937 0.97734-6.8712 2.334-9.736 4.6022-6.0754 4.8093-12.214 10.31-14.302 19.026-0.42395-1.3238-0.78105-1.5173-0.78105-3.2378 0-2.1153-0.15816-4.3196 0.2609-6.3208 0.4109-1.9663 1.8197-3.0849 1.8197-5.088 0-1.8444-2.1491-1.9392-3.1176-1.3857-0.90495 0.51868-1.942 1.4186-2.7508 2.1405-0.88539 0.7896-1.9697 1.2115-2.8144 1.9643-1.8784 1.6721-4.0878 3.1662-6.1912 4.4125-4.365 2.5914-8.6175 5.7537-12.679 8.9664-3.5693 2.8236-8.112 5.7402-11.026 9.1889-0.99301 1.1747-0.57233 2.8817 0.64896 3.5436 1.5768 0.85347 3.9851-1.1844 5.5667-1.9566 9.0039-4.397 18.402-6.3691 28.099-6.3691 0.98158 0 2.4426-0.21095 2.4426 1.078 0 0.73929 0.49406 1.974 0.7794 2.6204 0.90334 2.0495 2.0317 3.7603 3.7748 5.1499 3.9133 3.1139 9.2811 2.8565 13.79 2.2662 4.2933-0.56317 8.8996-3.3326 12.516-5.9724 4.2427-3.1004 8.1626-6.6091 10.871-11.658 2.0871-3.8958 4.8574-10.042 3.0801-14.799-0.34404-0.91928-1.1626-2.1289-0.74516-3.1178 0.57722-1.3741 1.1691-2.603 1.8849-3.8803 1.2767-2.2759 2.4964-4.2112 4.1286-6.1504 3.2904-3.9036 6.5613-7.4781 10.287-10.791 1.6403-1.4592 3.3573-2.812 5.0792-4.128 0.70276-0.53609 2.0822-1.1844 2.6186-1.7979 0.42068-0.47996 0.52829-1.2618 0.77777-1.8502-0.35056-0.82252-0.45654-1.3373-1.0419-1.8482-0.86746-0.75865-0.97998-0.40642-1.9175-0.24579-2.6399 0.44707-5.3336 1.6779-7.8723 2.6804-5.1868 2.0514-10.33 4.0951-15.407 6.5066-0.3473-1.1418-3.5595 0.41415-4.2786 0.58254-1.8507 0.43546-4.7074-0.07547-6.3086-1.2173-0.9604-0.68317-2.1165-1.1864-2.9187-2.1405-0.40926-0.48578-0.5397-1.1767-0.83484-1.6237-0.44188-0.67543-0.88539-1.3489-1.3289-2.0244-6.1929-9.4308-12.384-18.86-18.577-28.289-15.645-23.824-31.289-47.648-46.934-71.472-0.57233-0.88444-1.593-3.3055-2.723-3.2784" fill="#fff"/>
 <path d="m160.65 67.036c12.968 19.764 25.936 39.529 38.903 59.292 9.8926 15.078 19.785 30.156 29.678 45.232v-0.30772h-0.26088c1.6583 3.3423 4.9895 5.3415 8.0533 6.166-0.97835 0.58058-1.9289 1.2289-2.86 1.8502-1.1985 0.80121-1.7659 1.4747-2.9758 0.52058-1.854-1.4631-3.372-3.1294-4.9455-4.9912-3.1584-3.7371-5.6368-8.6935-8.386-12.887-6.2434-9.5276-12.265-19.258-18.556-28.742-6.1342-9.2508-12.019-18.713-18.081-28.027-3.2497-4.9912-6.4978-9.9805-9.7605-14.958-3.0019-4.579-6.444-9.0593-9.154-13.878-0.75494-1.3431-2.1768-2.7946-2.1768-4.3351 0-1.7844-0.72885-3.8958 0.26253-5.5505 0.088058 0.20321 0.17285 0.41029 0.25926 0.61543"/>
 <path d="m259.37 172.18c-2.5665 2.6127-5.1689 5.2099-7.5593 8.049-1.0648 1.2657-1.8686 2.8294-2.904 4.0603-1.2523 1.4902-1.942 3.2146-3.0459 4.8499-0.57558-1.4805-2.3203-2.9669-3.3752-4.0081-1.2735-1.256-2.9448-2.2121-4.4172-3.083 7.0228-3.5765 14.132-6.6691 21.302-9.8682"/>
 <path d="m199.62 208.25c0.52994 0.65414 0.16959 1.9024 0.25761 2.7752 0.11252 1.1012 0.37178 2.1269 0.78105 3.083-6.0804 0-12.014 0.71219-17.926 2.4656 3.0296-1.796 5.7102-4.4706 8.7349-6.2627 1.4952-0.88637 2.7768-1.9527 4.2525-2.8333 1.0925-0.65027 3.4796-1.8095 4.1563-2.9282 0.003265 0.85155 0.26578 3.4371-0.256 3.7003"/>
 <path d="m269.24 263.44c-0.87234 1.0276-3.5954 0-4.2867 0-1.4577 0-4.802-3.081-5.8031-4.2674-3.5514-4.2151-6.0771-8.9934-7.5201-14.724-1.5066-5.9821-1.1186-11.726 0.20216-17.7 1.1659-5.2757 2.8062-11.088 5.2162-15.769 5.1052-9.9069 11.256-19.104 19.009-26.332 7.9196-7.3871 17.23-12.297 26.531-16.714 7.0945-3.3694 14.574-5.3821 21.982-7.4762-3.7372 2.2179-7.2234 5.0996-10.636 7.9503-4.2492 3.5475-8.3207 7.1375-12.247 11.192-7.5658 7.809-14.61 15.949-20.237 25.875-5.0058 8.8309-9.6137 19.866-9.6137 30.706 0 5.3899 1.2833 10.273 3.7878 14.73 0.61636 1.0973 1.1903 1.4205 1.929 2.3572 0.70929 0.89995 1.1854 2.0263 1.9241 2.903 1.7023 2.0128 3.3801 4.0119 5.0922 6.0363-2.3578 0.84961-5.1004 0.28256-7.5364 0.77222-1.0468 0.20902-7.5968 1.0702-7.7924 0.4606"/>
 <path d="m424.59 202.09c-0.39133 2.9436-0.67667 5.566-1.6468 8.3006-1.0436 2.9436-2.1996 5.7634-3.403 8.618-1.9811 4.699-4.7384 9.7289-7.706 13.642-6.6657 8.7883-13.432 17.404-21.561 24.346-4.2998 3.6694-8.6044 7.1258-13.082 10.484-4.1856 3.141-8.6158 5.6221-13.048 8.2542-8.9289 5.297-18.445 8.438-28.108 11.14-4.846 1.3528-10.418 0.93286-15.358 0.93286-2.3366 0-4.8607-1.1902-7.1304-1.8134-1.6779-0.45868-4.6161-1.7205-5.8765-3.1198-1.9436-2.1637-3.8237-4.0042-5.1933-6.7156-1.1039-2.185-2.3219-4.966-2.3219-7.6078 0-2.6707-0.20548-4.9583 0.26743-7.629 0.53479-3.0172 1.0419-5.8447 1.9387-8.7283 3.2366-10.404 9.2061-20.497 15.812-28.331 7.2397-8.587 14.719-16.609 23.283-23.317 16.209-12.7 35.525-24.29 55.31-25.101 7.0978-0.2903 16.281-0.32127 21.709 6.133 2.4817 2.9494 4.259 4.6912 5.6662 8.8676 0.58209 1.7166 2.0969 10.908 0.4484 11.645" fill="#fff"/>
 <path d="m76.226 144.43c5.6792 10.106 12.275 19.586 18.331 29.388 5.7053 9.2334 11.422 18.453 17.122 27.685 0.71092 1.1496 1.4365 2.2856 2.1034 3.472 0.62612 1.1147 1.1675 1.1496 1.8001 1.8947 0.88866 1.049 4.0715-2.1772 4.7042-2.663 4.3308-3.3171 8.6958-6.5666 13.067-9.8082 8.4952-6.3014 16.972-12.618 25.389-19.067 8.0876-6.195 16.284-12.616 24.77-17.95 0.95224-0.59994 1.2995-1.1283 1.2995-2.6204 0-1.5599-2.3284-4.1764-3.2546-5.6724-3.0818-4.9854-6.3314-9.8276-9.5078-14.728-6.0608-9.3534-12.079-18.74-17.995-28.221-2.8029-4.4919-5.7868-8.8328-8.73-13.197-1.6126-2.3921-3.041-3.8842-5.1493-5.6376-2.2257-1.8502-4.3764-2.7404-7.0098-3.5223-10.11-2.9998-18.128 3.772-26.612 9.0709-8.942 5.5834-17.46 12.154-26.43 17.662-4.184 2.5701-7.3163 7.2807-8.5327 13.065-0.80223 3.8165-0.256 7.031 0.20382 10.865 0.088043 0.73929 0.64896 1.3683 0.8218 2.0882 0.24458 1.0141 0.40926 1.8947 0.90006 2.7675 0.94899 1.6857 1.8588 3.3694 2.7084 5.1286"/>
 <path d="m183.25 157.07c-0.071747 0.22642 0.068481 0.40448-0.26088 0.30771 0.1337 0.025146 0.38806 0.038696 0.52014 0-0.086426-0.10258-0.17284-0.20515-0.25926-0.30771" fill="#fff"/>
 <path d="m119.61 195.92c0.87235-2.5837 1.7202-4.9815 3.1307-7.2168 1.5262-2.4192 3.2954-3.3558 5.2879-5.1325 4.047-3.6094 8.911-6.344 13.256-9.4366 3.9671-2.8236 7.9196-5.7421 11.852-8.6335 4.2688-3.1372 8.4789-6.6865 12.973-9.3534 4.1188-2.4462 8.3468-3.8281 12.73-1.2328-7.6816 6.5085-16.113 11.827-23.971 18.043-8.2767 6.5472-16.749 12.792-25.174 19.071-3.5334 2.634-7.0684 5.2679-10.604 7.9019 0.14676-0.76251 1.0322-3.8977 0.51852-4.01"/>
 <path d="m115.45 199.93l-36.105-58.269c-3.2562-5.2544-4.6552-11.306-3.8987-17.271-0.12392 1.854 1.7985 4.277 2.6513 5.8002 1.1952 2.1347 2.6317 4.0913 3.8889 6.1795 2.798 4.6467 5.6368 9.2586 8.4055 13.928 5.8358 9.8392 11.893 19.489 17.786 29.281 0.77615 1.2889 1.5523 2.5798 2.3268 3.8687 0.37177 0.61737 0.98486 2.6049 1.699 2.6049 1.2278 0 2.6741 0.658 2.9872-1.5405 0.36687-2.5759-2.9073-6.2008-4.0601-8.0916-8.0696-13.251-16.139-26.502-24.21-39.754-2.1654-3.5552-4.3308-7.1123-6.4961-10.668-1.1202-1.8366-1.6012-3.8784-1.6012-6.1698 0-1.0489-0.021194-2.3437 0.52015-3.1507 0.33427-0.49931 1.2572-0.87865 1.6893-1.3876 0.7843-0.92702 2.1344-1.498 3.0866-2.1366 2.5502-1.7108 5.1004-3.4236 7.6522-5.1344 6.2418-4.188 12.484-8.3742 18.725-12.562 7.1304-4.7822 15.741-10.743 24.116-6.3246 2.0235 1.0664 4.484 2.3476 5.9694 4.3661 1.5229 2.0669 2.9823 4.1997 4.3503 6.4175 3.1307 5.0706 6.3967 10.017 9.6072 15.018 7.3065 11.384 14.636 22.748 21.962 34.116-4.3895-1.6024-9.2159 0.97736-12.989 3.3907-4.3666 2.7927-8.4316 6.2859-12.728 9.2489-4.1449 2.8585-8.1365 5.9782-12.244 8.9044-4.2981 3.0617-8.6077 6.702-13.07 9.3573-6.5304 3.8822-9.1556 12.117-10.008 20.209-0.029343 0.25159-0.011421-0.23805-0.011421-0.23224" fill="#fff"/>
 <path d="m120.39 365.19c-4.1595 2.9165-8.2392 5.8892-12.2 9.1792-4.3895 3.6481-8.293 7.7839-12.307 11.991-3.6198 3.7913-6.576 8.527-9.3692 13.17-2.5372 4.217-4.833 10.031-4.8313 15.301 0.001625 5.2699 2.6089 10.505 6.594 12.851 4.3356 2.5527 9.7328 2.9804 14.528 2.663 9.8746-0.65414 19.498-4.7358 28.616-8.978 9.017-4.1919 17.775-10.383 25.551-17.174 8.0631-7.0407 15.41-15.328 20.977-25.235 4.8558-8.6412 6.7342-23.04-3.5758-27.356-2.5567-1.0702-4.6275-1.8579-7.3098-2.1617-2.6513-0.29996-5.1884-0.15292-7.856-0.019379-4.8591 0.23999-9.9334 2.2644-14.629 3.6597-8.5017 2.5236-16.454 7.3736-24.188 12.109"/>
 <path d="m177.54 368.89c-3.5921 11.091-10.421 19.485-18.055 26.936-4.0014 3.9055-8.2245 7.3058-12.563 10.656-3.8236 2.9514-8.2098 6.0943-12.426 8.1438-4.9161 2.3843-9.7377 4.8519-14.779 6.8433-4.7368 1.8695-9.5257 3.0307-14.44 4.0081-4.4547 0.88635-9.767 0.3638-14.038-1.318-4.608-1.8153-6.2564-7.3136-5.1395-12.413 2.3806-10.873 9.9969-19.976 17.121-26.948 8.0517-7.8748 16.829-14.364 26.203-19.748 4.3862-2.5217 8.9208-4.608 13.503-6.5511 4.7726-2.0244 9.7866-2.9978 14.768-4.0274 5.0237-1.0392 9.5632-0.45285 14.435 1.0916 4.7025 1.4921 7.0831 7.3465 5.6026 12.642-0.063599 0.22836-0.1272 0.45868-0.19078 0.68512" fill="#fff"/>
 <path d="m346.39 207.64c-8.293 7.0368-15.746 14.666-22.717 23.504-6.1488 7.7955-11.831 18.771-11.831 29.69 0 2.4269 0.71909 5.9356 2.2078 7.7006 2.0219 2.3998 3.5546 3.8803 6.1994 5.057 4.59 2.0418 9.1148 2.036 13.928 1.3509 9.7409-1.3818 19.193-5.1383 27.858-10.625 4.8688-3.0868 9.5746-6.2879 14.285-9.7095 4.0617-2.9514 7.8218-6.6556 11.631-10.046 1.7806-1.5831 3.3247-3.6616 4.9422-5.4712 1.6876-1.8889 3.4894-3.6849 5.0221-5.7518 3.3899-4.5596 6.6494-9.036 9.2648-14.29 4.5395-9.1231 8.5262-22.759-0.78107-29.908-4.3601-3.3481-9.9366-3.0849-14.89-3.0849-2.0969 0-4.6748 0.62125-6.7048 1.2464-2.348 0.72188-4.8069 1.256-7.0995 2.1947-5.2765 2.1598-10.905 4.1493-15.785 7.4316-2.5192 1.6934-5.0922 3.3094-7.5609 5.1054-1.5996 1.1651-3.2008 2.3282-4.8003 3.4913-0.87234 0.6348-2.1279 2.0166-3.1682 2.1153"/>
 <path d="m407.96 204.24c-2.2273 11.444-8.5066 20.987-15.617 28.904-3.8448 4.279-7.6555 8.4167-11.794 12.295-3.9133 3.6674-8.3126 6.7175-12.498 9.9108-8.3598 6.3788-18.239 10.184-27.631 13.752-4.4139 1.678-9.7132 2.0379-14.29 1.4302-2.3366-0.30963-4.8721-0.80896-6.7538-2.5933-1.7154-1.6257-3.6362-4.0274-3.6362-6.8994 0-11.277 6.9201-22.154 13.366-29.808 6.894-8.1845 14.117-15.384 22.33-21.654 8.1039-6.1872 17.092-12.196 26.433-15.303 5.1053-1.6973 10.031-3.172 15.347-3.472 4.2916-0.24191 10.783 0.21289 13.444 4.9602 1.2001 2.1385 2.3138 5.9743 1.3012 8.4767" fill="#fff"/>
 <path d="m85.318 411.14c9.6219 2.4308 19.456 0.21869 28.694-3.441 9.2811-3.679 18.763-8.6122 26.932-15.084 6.6478-5.266 12.88-10.84 18.714-17.335 5.6482-6.2879 9.9105-13.542 12.686-22.109-19.105-3.4855-39.702 4.5828-55.556 17.135-7.194 5.6957-14.357 11.339-21.073 17.818-6.2222 6.0034-10.277 13.735-11.954 23.017 0.51852-0.001953 1.0387-0.001953 1.5572-0.001953"/>
 <path d="m314.96 257.89c9.3904 1.4031 20.056-1.3489 28.613-6.1873 9.3023-5.2602 18.531-10.59 26.754-18.026 12.671-11.457 26.353-25.562 29.839-44.851-9.9659 0-19.687 1.9237-29.099 5.8582-9.8388 4.1145-18.561 10.584-26.997 17.735-6.6836 5.6647-13.369 12.291-19.175 19.185-2.9318 3.4816-6.3625 7.3736-8.1169 11.887-1.8702 4.8209-3.0328 9.0883-3.3834 14.401 0.52179-0.001923 1.0436-0.001923 1.5653-0.001923"/>
 <path d="m89.473 181.12c-0.93757-2.3108-3.8677-3.3907-5.839-3.3907-2.4752 0-4.0193 1.2192-5.72 3.2378-1.4365 1.705-2.1409 5.0802-1.6469 7.4374 0.4533 2.1714 1.717 3.8319 2.8078 5.6124 2.03 3.3113 4.0585 6.6227 6.0885 9.936 1.1724 1.914 2.2469 4.008 3.6622 5.6879 3.1861 3.7816 9.5599 3.6423 11.69-1.3876 1.0191-2.4095 1.4463-4.428 0.90984-7.093-0.41415-2.0592-1.5621-3.5068-2.6301-5.2176-1.9029-3.0481-3.8057-6.0963-5.707-9.1464-1.1626-1.8579-2.229-4.0352-3.6149-5.6763"/>
 <path d="m99.864 204.24c0.5283 0.87669-0.30328 2.2701-0.64733 3.083-0.45003 1.0625-1.4267 1.5328-2.079 2.3127-0.51688 0.61737-1.8262 0.77026-2.5975 0.77026-1.143 0-1.9795-0.065781-2.9855-0.61543-1.5148-0.82832-2.4246-2.7056-3.4046-4.2674-2.079-3.3113-4.1596-6.6227-6.2401-9.9359-2.5045-3.9887-5.857-8.0084-3.0051-13.077 2.4393-4.3351 7.4386-3.4933 9.8388 0.32706 2.7328 4.3526 5.4656 8.7051 8.1984 13.056 1.8833 2.9978 3.1828 4.8596 3.1828 8.6528-0.086426-0.098709-0.17448-0.20322-0.2609-0.30577" fill="#fff"/>
 <path d="m75.186 157.69c-3.2839-5.2641-6.5679-10.526-9.8518-15.79-1.1854-1.8986-2.2518-3.2978-4.272-3.8977-1.8001-0.53415-4.7938-1.018-6.2662 0.7238-1.5947 1.887-3.1926 3.4352-3.5057 6.3208-0.28371 2.6185 0.36851 4.5364 1.6354 6.6033 3.3378 5.446 6.6755 10.894 10.013 16.34 2.4654 4.0235 6.5923 4.9293 10.173 2.8023 1.5017-0.89412 3.6361-3.7739 3.6361-6.0111-0.001633-2.2934 0.12881-5.4866-1.5621-7.091"/>
 <path d="m75.186 164.16c0.2348 2.1908-1.9126 4.5267-3.3752 5.3957-1.6599 0.98702-4.003 0.59221-5.4558-0.46254-1.5784-1.1476-2.4263-2.8217-3.5448-4.6158-2.0953-3.3558-4.1889-6.7136-6.2842-10.07-1.1707-1.8753-2.4572-3.6868-3.3394-5.7789-1.0224-2.4269-0.001629-5.1015 1.1365-7.1394 1.2914-2.3088 3.9883-1.9953 5.8553-1.9953 1.761 0 3.1714 2.2353 4.1318 3.7642 2.7084 4.31 5.4151 8.6219 8.1218 12.932 0.69135 1.0993 1.4088 2.156 1.9746 3.3462 0.69951 1.4709 0.7794 2.814 0.7794 4.6235" fill="#fff"/>
 <path d="m254.69 156.76c-2.5893 1.198-5.177 2.3979-7.7663 3.5958-0.99464 0.46062-2.485 1.9237-3.2611 0.78961-2.666-3.8939-5.3319-7.7878-7.9963-11.682-8.818-12.882-17.636-25.765-26.454-38.646-1.8996-2.7753-3.7992-5.5505-5.6988-8.3258 2.6382-1.1535 5.2765-2.3069 7.9147-3.4604 0.40111-0.17418 1.9453-0.50513 2.2192-0.85542 0.27554-0.35223 0.17285-1.5425-0.13045-1.5425-2.1442 0-4.5281 1.5328-6.5353 2.3282-1.4316 0.56512-2.8616 1.1322-4.2933 1.6973-0.45982 0.18192-1.0191 0.90766-1.1218 0.90766-0.5071 0 0.51852 1.496 0.77126 1.8656 1.0745 1.5812 2.1507 3.1623 3.2252 4.7435 3.9443 5.8002 7.8886 11.6 11.833 17.4 7.9473 11.689 15.896 23.379 23.845 35.068 0.58211 0.85733 1.1658 1.7147 1.7479 2.572 0.80876 1.1883 3.9134-0.86122 4.7352-1.2018 0.7794-0.3232 7.4858-2.4714 7.4858-3.2533 0-0.35225 0.51854-0.44513 0.51854-1.2328 0-0.40642-0.85278-0.47029-1.0387-0.76833"/>
 <path d="m275.22 147.82c-2.6725 1.0838-5.345 2.1656-8.0175 3.2475-1.161 0.47029-2.2534 1.616-3.0867 0.42383-2.7915-3.9945-5.5846-7.9871-8.3761-11.982-8.8898-12.717-17.78-25.436-26.669-38.153-1.6746-2.3959-3.3508-4.7919-5.0254-7.1878 2.6594-0.90186 5.3189-1.8037 7.9783-2.7036 0.33914-0.11613 1.4512-0.68704 1.5017-0.68704 0.56253 0-0.24622-1.4225-0.64732-1.5405-0.60985-0.17998-1.6648 0.49931-2.2208 0.69865-1.7822 0.63478-3.5644 1.2676-5.345 1.9024-1.3583 0.48383-4.1172 0.8167-3.3443 2.6398 0.33591 0.79348 1.0892 1.5502 1.5653 2.2256 1.3909 1.9779 2.7785 3.9539 4.1693 5.9318 4.3308 6.1621 8.6631 12.324 12.994 18.486 7.2168 10.269 14.434 20.536 21.649 30.805 0.48267 0.6851 0.96368 1.3702 1.4447 2.0553 0.64246 0.91348 3.072-0.6135 4.0014-0.99089 2.6774-1.0818 5.3515-2.1656 8.0289-3.2475 1.2262-0.49544 0.47122-1.885-0.60004-1.9237"/>
 <path d="m296 138.88c-2.6725 0.92702-5.3433 1.856-8.0158 2.783-1.1854 0.41223-2.2534 1.438-3.098 0.27483-2.8763-3.9519-5.751-7.9058-8.6256-11.858-9.061-12.454-18.119-24.908-27.178-37.361-1.593-2.1888-3.1829-4.3758-4.7759-6.5646 2.71-0.68317 5.4183-1.3644 8.1283-2.0456 1.2017-0.3019 1.3827-2.2876-0.02449-1.9024-2.9562 0.80897-5.914 1.6199-8.8686 2.4288-1.0745 0.29417-2.1621 0.66383-1.3012 1.8444 6.607 9.0438 13.214 18.088 19.819 27.133 7.1549 9.7947 14.308 19.587 21.463 29.382 0.15817 0.21675 0.93921 1.6838 1.0501 1.7457 1.1854 0.66769 4.2362-1.2405 5.2944-1.6199 1.9942-0.71608 4.6895-2.3863 6.7848-2.3863 0.56741-0.003876 0.68481-2.1076-0.65225-1.854"/>
 <path d="m316.78 129.63c-0.28864 1.256-6.0787 2.243-7.2299 2.6108-0.99463 0.3174-2.9758 1.6799-3.7666 0.62897-2.8355-3.7642-5.671-7.5284-8.5049-11.293l-27.794-36.903c-1.6403-2.1792-3.2823-4.3564-4.9226-6.5356 2.6431-0.50512 5.2846-1.0122 7.9278-1.5173 1.2637-0.24191 0.97668-1.8734-0.004913-1.8734-2.6056 0-5.4509 1.0528-8.0191 1.5599-0.75168 0.14902-1.3452 0.27869-1.7235 0.59801 0.006531-0.003868-1.0647 1.2328-0.38806 1.2328 0.49078 0 1.3615 1.6392 1.6599 2.034 1.4316 1.9082 2.8649 3.8165 4.2965 5.7228 4.5036 5.9976 9.0055 11.993 13.509 17.991 7.3245 9.756 14.649 19.51 21.975 29.264 0.38156 0.50899 0.80713 1.3431 1.293 1.7224 0.96365 0.7509 3.253-0.49159 4.5525-0.91348 2.5453-0.82251 5.0906-1.647 7.6359-2.4695 1.2588-0.40836 0.052185-1.4457-0.23642-1.8579-0.086426-0.001938-0.1712-0.001938-0.25925-0.001938 0 0.45091-0.091309 0.19546 0 0"/>
 <path d="m337.3 123.15c-2.7589 0.718-5.5178 1.4379-8.2767 2.156-1.3469 0.35223-2.0399 1.049-2.9464-0.11224-3.0915-3.9674-6.1863-7.9368-9.2795-11.904-9.3121-11.945-18.624-23.89-27.936-35.834-1.3452-1.7263-2.692-3.4526-4.0389-5.1789 2.3284-0.19159 5.3172 0.19741 7.5348-0.61736 1.3061-0.47996 0.79736-2.2663-0.63428-2.0727-2.8111 0.38126-5.6205 0.76252-8.4316 1.1438-0.92126 0.12386-1.0224 0.93476-0.4419 1.6799 7.3049 9.3515 14.613 18.703 21.92 28.056 6.7293 8.6141 13.46 17.228 20.191 25.844 0.13205 0.16838 1.0223 1.467 1.0354 1.467 1.7855 0 3.6101-0.6522 5.3564-1.0393 1.399-0.30964 2.7996-0.61736 4.1987-0.92701 0.59192-0.12967 1.7463-0.11031 2.2665-0.49932 1.1121-0.83606 0.3522-1.7708-0.51688-2.1618"/>
 <path d="m358.08 119.45c-2.7573 0.39868-5.5161 0.79929-8.2734 1.198-1.3338 0.19354-2.0578 0.73736-2.9497-0.36578-3.1291-3.8687-6.2581-7.7394-9.3871-11.608-9.5844-11.85-19.167-23.7-28.75-35.552-0.72232-0.89412-4.2378-6.8104-5.7135-5.7808-1.3126 0.9154 3.2563 5.566 3.8384 6.2859 9.4344 11.664 18.869 23.33 28.303 34.994 3.8253 4.7299 7.6489 9.4579 11.474 14.188 0.40924 0.50512 1.1072 0.26321 1.8865 0.15676 2.3545-0.32513 4.7107-0.65026 7.0652-0.9754 1.0093-0.13934 2.6758 0.040642 3.4144-0.8438 0.7142-0.85542-0.43375-1.4863-0.90823-1.6973"/>
 <path d="m251.32 201.78c-1.8001-4.5828-7.0554-6.7833-11.065-6.7833-4.8607 0-9.7263 1.1322-14.199 3.4952-8.399 4.4358-17.564 13.272-18.533 24.82-0.48753 5.8137 3.3133 11.426 5.5553 16.278 2.0578 4.4532 6.2564 6.8975 10.568 6.8975 2.3904 0 4.5949 0.23224 6.9934-0.40256 2.2812-0.60574 4.5427-1.3973 6.6853-2.5275 4.5493-2.4017 8.7692-5.0454 12.325-9.2721 3.584-4.2577 7.3799-9.4463 7.3799-15.804 0-2.8081-0.32123-5.2931-1.4675-7.7703-1.2718-2.7501-2.3839-6.6962-4.2427-8.9315"/>
 <g fill="#fff">
  <path d="m247.68 209.79c-9.2485-2.1985-18.746 3.1894-25.536 10.36-3.041 3.2126-6.9364 8.7515-6.3168 13.923 0.75984 6.3285 4.9765 7.7858 9.8176 7.7858 8.0778 0 15.44-4.7222 21.347-10.962 2.3822-2.514 5.4721-7.2033 5.9336-11.051 0.27231-2.274 0.56418-5.0125-0.96204-6.8162-1.13-1.3373-2.498-3.0501-4.2835-3.2398"/>
  <path d="m246.64 201.78c-0.56091-2.0669-2.8143-3.1662-4.4139-3.7004-2.1833-0.72961-4.4661-0.78767-6.7586-0.61543-4.5215 0.34062-8.5767 2.7501-12.47 5.2699-4.2427 2.7462-7.7924 6.2956-10.484 11.091-1.218 2.1676-1.8751 4.7822-2.4735 7.2594-0.55113 2.2876 1.2474 5.6144 2.0496 7.5207 3.1127-8.6296 8.0631-14.11 14.809-18.808 3.2285-2.2489 6.3396-3.6578 10.002-4.6254 3.9117-1.0334 7.3244-0.9812 11.301-0.30771-0.34569-0.82638-0.83487-2.8991-1.5604-3.0849"/>
 </g>
</svg>
