<?xml version="1.0" encoding="UTF-8" standalone="no"?>
<!-- Created with Inkscape (http://www.inkscape.org/) -->

<svg
   xmlns:dc="http://purl.org/dc/elements/1.1/"
   xmlns:cc="http://creativecommons.org/ns#"
   xmlns:rdf="http://www.w3.org/1999/02/22-rdf-syntax-ns#"
   xmlns:svg="http://www.w3.org/2000/svg"
   xmlns="http://www.w3.org/2000/svg"
   xmlns:sodipodi="http://sodipodi.sourceforge.net/DTD/sodipodi-0.dtd"
   xmlns:inkscape="http://www.inkscape.org/namespaces/inkscape"
   width="210mm"
   height="297mm"
   viewBox="0 0 744.09448819 1052.3622047"
   id="svg4231"
   version="1.1"
   inkscape:version="0.91 r13725"
   sodipodi:docname="elephant2.svg">
  <defs
     id="defs4233" />
  <sodipodi:namedview
     id="base"
     pagecolor="#ffffff"
     bordercolor="#666666"
     borderopacity="1.0"
     inkscape:pageopacity="0.0"
     inkscape:pageshadow="2"
     inkscape:zoom="0.35"
     inkscape:cx="-109.28571"
     inkscape:cy="520"
     inkscape:document-units="px"
     inkscape:current-layer="layer1"
     showgrid="false"
     inkscape:window-width="1920"
     inkscape:window-height="1080"
     inkscape:window-x="0"
     inkscape:window-y="0"
     inkscape:window-maximized="0" />
  <metadata
     id="metadata4236">
    <rdf:RDF>
      <cc:Work
         rdf:about="">
        <dc:format>image/svg+xml</dc:format>
        <dc:type
           rdf:resource="http://purl.org/dc/dcmitype/StillImage" />
        <dc:title></dc:title>
      </cc:Work>
    </rdf:RDF>
  </metadata>
  <g
     inkscape:label="Ebene 1"
     inkscape:groupmode="layer"
     id="layer1">
    <g
       transform="matrix(-2.4957217,0,0,2.5412169,1044.6535,-180.35574)"
       style="stroke-width:3"
       id="g3390"
       clip-path="none">
      <g
         style="fill-rule:evenodd"
         id="g3392">
        <path
           inkscape:connector-curvature="0"
           d="m 315.48,74.025 c -15.574,-0.4227 -27.406,4.8236 -38.483,14.718 -7.6794,-6.2114 -21.19,-5.4595 -31.462,-6.9371 -42.463,-4.0473 -87.743,12.482 -109.42,49.224 -9.2578,14.343 -18.077,31.238 -15.742,49.307 1.5791,8.0326 12.139,9.0766 17.44,4.6875 1.5999,-0.31543 3.419,-5.1246 3.8295,-1.625 4.1621,12.115 12.997,22.225 19.352,33.25 3.2403,19.639 -8.4658,38.675 -2.1274,58.156 7.3067,13.235 24.506,15.099 37.78,13.875 10.598,-0.25671 24.271,1.5311 31.324,-7.6875 5.3265,-10.45 -4.7885,-20.859 -7.4914,-30.906 -1.71,-5.2771 -3.213,-13.255 1.5212,-16.75 4.9719,0.74097 8.822,5.345 14.126,5.3125 9.8928,2.0148 19.923,-1.3687 29.285,-1.9062 7.3125,11.319 0.61438,24.13 0.20081,36 -0.0706,7.4249 6.096,13.517 13.341,14.5 12.304,3.0763 25.084,1.4764 37.339,0.5625 8.9966,-1.9608 15.528,-11.966 11.286,-21.062 -3.782,-11.263 -9.1241,-23.416 -4.7072,-34.812 2.3501,-7.7512 9.5702,-12.184 16.779,-14.594 1.7194,-0.9328 7.8378,-5.3862 7.3471,-3.6916 -8.7995,9.8527 -20.621,21.585 -16.821,36.66 2.5047,10.739 8.3509,22.173 18.402,27.688 13.897,6.0406 32.245,-6.4928 28.315,-21.781 -1.2625,-4.535 -5.7784,-7.315 -9.1466,-9.7188 1.5061,-5.9684 8.6871,-8.4462 12.752,-12.531 14.177,-10.299 26.96,-23.547 31.465,-41.094 10.3,-33.358 0.89474,-73.533 -24.249,-99.654 -15.556,-13.636 -36.934,-15.365 -56.11,-18.408 -5.3689,-0.58075 -10.762,-0.90045 -16.131,-0.78125 z"
           id="path3394" />
        <path
           style="fill:#ffffff"
           inkscape:connector-curvature="0"
           d="m 385.41,219.16 c 8.7712,-7.5543 24.051,-23.922 22.445,-57.916 -1.606,-33.994 -20.72,-65.47 -37.295,-69.877 -16.576,-4.4066 -83.776,-27.699 -94.017,22.033 -10.241,49.732 31.451,66.1 42.064,64.211 10.613,-1.8886 21.324,-28.328 21.324,-28.328 0,0 -3.6681,28.958 -16.739,32.106 -13.071,3.1476 -46.044,-1.8886 -55.324,-38.401 -9.2793,-36.512 9.76,-46.585 -2.9791,-49.732 -16.968,-4.1925 -62.169,-10.072 -97.462,15.738 -35.293,25.81 -46.163,75.543 -36.958,70.506 9.2049,-5.0361 12.838,-21.404 15.292,-9.4428 2.4536,11.961 12.159,30.847 20.7,38.401 8.5407,7.5543 -3.7672,53.509 -1.492,61.693 2.2752,8.1838 15.614,10.702 25.686,10.702 10.072,0 32.765,0.62952 31.179,-6.2952 -1.5862,-6.9247 -9.7353,-19.515 -10.989,-32.735 -1.2541,-13.22 7.9806,-17.627 11.787,-16.997 3.8068,0.62952 5.9383,6.0759 21.701,6.2952 15.112,0.21027 14.9,-4.4067 21.225,-3.7771 6.325,0.62952 10.548,10.072 11.084,21.404 0.53534,11.331 -3.4252,20.774 -3.1278,27.07 0.29742,6.2952 45.682,7.5543 47.214,0 1.5317,-7.5543 -6.4984,-17.627 -6.9446,-27.07 -0.44614,-9.4428 -0.0793,-28.328 11.644,-33.365 11.723,-5.0362 23.778,-16.368 31.689,-8.8133 7.9112,7.5543 -19.674,23.292 -19.649,37.142 0.0248,13.85 12.67,28.328 15.817,28.328 3.1476,0 16.189,-3.7771 16.462,-11.331 0.27264,-7.5543 -10.31,-5.0362 -10.727,-13.85 -0.41638,-8.8133 17.255,-19.831 26.39,-27.699 z"
           id="path3396" />
      </g>
      <path
         style="stroke-linecap:round;stroke-linejoin:round"
         inkscape:connector-curvature="0"
         d="m 383.45,154.62 c 0,3.4768 -2.8184,6.2952 -6.2952,6.2952 -3.4768,0 -6.2952,-2.8184 -6.2952,-6.2952 0,-3.4768 2.8185,-6.2952 6.2952,-6.2952 3.4768,0 6.2952,2.8185 6.2952,6.2952 l 0,3e-5 z"
         id="path3398" />
      <g
         style="fill:#ffffff;fill-rule:evenodd;stroke:#000000"
         id="g3400">
        <path
           inkscape:connector-curvature="0"
           d="m 392.19,204.26 c 4.5,-3.5 -7,-11 -11.5,-18 -4.5,-7 -13.5,4.5 -11,11.5 2.5,7 17,9 22.5,6.5 z"
           id="path3402" />
        <path
           inkscape:connector-curvature="0"
           d="m 211.04,284.5 c 7.7281,-1.0607 17.19,-2.8284 16.957,-7.7781 -0.23386,-4.9498 -6.4085,-15.91 -6.4085,-15.91 0,0 -5.0333,-1.7678 -9.0588,2.8284 -4.0255,4.5962 -4.418,18.738 -1.4894,20.86 z"
           id="path3404" />
        <path
           inkscape:connector-curvature="0"
           d="m 310.74,285.01 c 7.7281,-1.0607 17.19,-2.8284 16.957,-7.7782 -0.23383,-4.9497 -6.4085,-15.91 -6.4085,-15.91 0,0 -5.0333,-1.7678 -9.0588,2.8284 -4.0255,4.5962 -4.418,18.738 -1.4894,20.86 z"
           id="path3406" />
      </g>
    </g>
  </g>
</svg>
