<?xml version="1.0" encoding="UTF-8" standalone="no"?>
<!-- Created with Inkscape (http://www.inkscape.org/) -->

<svg
   xmlns:dc="http://purl.org/dc/elements/1.1/"
   xmlns:cc="http://creativecommons.org/ns#"
   xmlns:rdf="http://www.w3.org/1999/02/22-rdf-syntax-ns#"
   xmlns:svg="http://www.w3.org/2000/svg"
   xmlns="http://www.w3.org/2000/svg"
   xmlns:sodipodi="http://sodipodi.sourceforge.net/DTD/sodipodi-0.dtd"
   xmlns:inkscape="http://www.inkscape.org/namespaces/inkscape"
   width="210mm"
   height="297mm"
   viewBox="0 0 744.09448819 1052.3622047"
   id="svg4231"
   version="1.1"
   inkscape:version="0.91 r13725"
   sodipodi:docname="elefant-1.svg">
  <defs
     id="defs4233" />
  <sodipodi:namedview
     id="base"
     pagecolor="#ffffff"
     bordercolor="#666666"
     borderopacity="1.0"
     inkscape:pageopacity="0.0"
     inkscape:pageshadow="2"
     inkscape:zoom="0.35"
     inkscape:cx="-593.57142"
     inkscape:cy="520"
     inkscape:document-units="px"
     inkscape:current-layer="layer1"
     showgrid="false"
     inkscape:window-width="1920"
     inkscape:window-height="1080"
     inkscape:window-x="0"
     inkscape:window-y="0"
     inkscape:window-maximized="0" />
  <metadata
     id="metadata4236">
    <rdf:RDF>
      <cc:Work
         rdf:about="">
        <dc:format>image/svg+xml</dc:format>
        <dc:type
           rdf:resource="http://purl.org/dc/dcmitype/StillImage" />
        <dc:title></dc:title>
      </cc:Work>
    </rdf:RDF>
  </metadata>
  <g
     inkscape:label="Ebene 1"
     inkscape:groupmode="layer"
     id="layer1">
    <g
       transform="matrix(-2.4957217,0,0,2.5412169,1044.6535,-180.35574)"
       style="stroke-width:3"
       id="g3390"
       clip-path="none">
      <g
         style="fill-rule:evenodd"
         id="g3392">
        <path
           inkscape:connector-curvature="0"
           d="m 315.48,74.025 c -15.574,-0.4227 -27.406,4.8236 -38.483,14.718 -7.6794,-6.2114 -21.19,-5.4595 -31.462,-6.9371 -42.463,-4.0473 -87.743,12.482 -109.42,49.224 -9.2578,14.343 -18.077,31.238 -15.742,49.307 1.5791,8.0326 12.139,9.0766 17.44,4.6875 1.5999,-0.31543 3.419,-5.1246 3.8295,-1.625 4.1621,12.115 12.997,22.225 19.352,33.25 3.2403,19.639 -8.4658,38.675 -2.1274,58.156 7.3067,13.235 24.506,15.099 37.78,13.875 10.598,-0.25671 24.271,1.5311 31.324,-7.6875 5.3265,-10.45 -4.7885,-20.859 -7.4914,-30.906 -1.71,-5.2771 -3.213,-13.255 1.5212,-16.75 4.9719,0.74097 8.822,5.345 14.126,5.3125 9.8928,2.0148 19.923,-1.3687 29.285,-1.9062 7.3125,11.319 0.61438,24.13 0.20081,36 -0.0706,7.4249 6.096,13.517 13.341,14.5 12.304,3.0763 25.084,1.4764 37.339,0.5625 8.9966,-1.9608 15.528,-11.966 11.286,-21.062 -3.782,-11.263 -9.1241,-23.416 -4.7072,-34.812 2.3501,-7.7512 9.5702,-12.184 16.779,-14.594 1.7194,-0.9328 7.8378,-5.3862 7.3471,-3.6916 -8.7995,9.8527 -20.621,21.585 -16.821,36.66 2.5047,10.739 8.3509,22.173 18.402,27.688 13.897,6.0406 32.245,-6.4928 28.315,-21.781 -1.2625,-4.535 -5.7784,-7.315 -9.1466,-9.7188 1.5061,-5.9684 8.6871,-8.4462 12.752,-12.531 14.177,-10.299 26.96,-23.547 31.465,-41.094 10.3,-33.358 0.89474,-73.533 -24.249,-99.654 -15.556,-13.636 -36.934,-15.365 -56.11,-18.408 -5.3689,-0.58075 -10.762,-0.90045 -16.131,-0.78125 z"
           id="path3394" />
        <path
           style="fill:#ffffff"
           inkscape:connector-curvature="0"
           d="m 385.41,219.16 c 8.7712,-7.5543 24.051,-23.922 22.445,-57.916 -1.606,-33.994 -20.72,-65.47 -37.295,-69.877 -16.576,-4.4066 -83.776,-27.699 -94.017,22.033 -10.241,49.732 31.451,66.1 42.064,64.211 10.613,-1.8886 21.324,-28.328 21.324,-28.328 0,0 -3.6681,28.958 -16.739,32.106 -13.071,3.1476 -46.044,-1.8886 -55.324,-38.401 -9.2793,-36.512 9.76,-46.585 -2.9791,-49.732 -16.968,-4.1925 -62.169,-10.072 -97.462,15.738 -35.293,25.81 -46.163,75.543 -36.958,70.506 9.2049,-5.0361 12.838,-21.404 15.292,-9.4428 2.4536,11.961 12.159,30.847 20.7,38.401 8.5407,7.5543 -3.7672,53.509 -1.492,61.693 2.2752,8.1838 15.614,10.702 25.686,10.702 10.072,0 32.765,0.62952 31.179,-6.2952 -1.5862,-6.9247 -9.7353,-19.515 -10.989,-32.735 -1.2541,-13.22 7.9806,-17.627 11.787,-16.997 3.8068,0.62952 5.9383,6.0759 21.701,6.2952 15.112,0.21027 14.9,-4.4067 21.225,-3.7771 6.325,0.62952 10.548,10.072 11.084,21.404 0.53534,11.331 -3.4252,20.774 -3.1278,27.07 0.29742,6.2952 45.682,7.5543 47.214,0 1.5317,-7.5543 -6.4984,-17.627 -6.9446,-27.07 -0.44614,-9.4428 -0.0793,-28.328 11.644,-33.365 11.723,-5.0362 23.778,-16.368 31.689,-8.8133 7.9112,7.5543 -19.674,23.292 -19.649,37.142 0.0248,13.85 12.67,28.328 15.817,28.328 3.1476,0 16.189,-3.7771 16.462,-11.331 0.27264,-7.5543 -10.31,-5.0362 -10.727,-13.85 -0.41638,-8.8133 17.255,-19.831 26.39,-27.699 z"
           id="path3396" />
      </g>
      <path
         style="stroke-linecap:round;stroke-linejoin:round"
         inkscape:connector-curvature="0"
         d="m 383.45,154.62 c 0,3.4768 -2.8184,6.2952 -6.2952,6.2952 -3.4768,0 -6.2952,-2.8184 -6.2952,-6.2952 0,-3.4768 2.8185,-6.2952 6.2952,-6.2952 3.4768,0 6.2952,2.8185 6.2952,6.2952 l 0,3e-5 z"
         id="path3398" />
      <g
         style="fill:#ffffff;fill-rule:evenodd;stroke:#000000"
         id="g3400">
        <path
           inkscape:connector-curvature="0"
           d="m 392.19,204.26 c 4.5,-3.5 -7,-11 -11.5,-18 -4.5,-7 -13.5,4.5 -11,11.5 2.5,7 17,9 22.5,6.5 z"
           id="path3402" />
        <path
           inkscape:connector-curvature="0"
           d="m 211.04,284.5 c 7.7281,-1.0607 17.19,-2.8284 16.957,-7.7781 -0.23386,-4.9498 -6.4085,-15.91 -6.4085,-15.91 0,0 -5.0333,-1.7678 -9.0588,2.8284 -4.0255,4.5962 -4.418,18.738 -1.4894,20.86 z"
           id="path3404" />
        <path
           inkscape:connector-curvature="0"
           d="m 310.74,285.01 c 7.7281,-1.0607 17.19,-2.8284 16.957,-7.7782 -0.23383,-4.9497 -6.4085,-15.91 -6.4085,-15.91 0,0 -5.0333,-1.7678 -9.0588,2.8284 -4.0255,4.5962 -4.418,18.738 -1.4894,20.86 z"
           id="path3406" />
      </g>
    </g>
    <g
       style="fill-rule:evenodd;image-rendering:optimizeQuality;shape-rendering:geometricPrecision;text-rendering:geometricPrecision"
       id="g4782"
       transform="matrix(0.38252698,0,0,0.38252698,531.26534,79.675836)">
      <g
         id="g4610"
         transform="matrix(3.0089,0,0,3.0089,-210.94,-298.33)">
        <path
           id="path4612"
           d="m 148.991,117.216 1.103,0.706 1.103,0.75 1.059,0.751 1.104,0.794 1.014,0.838 1.059,0.839 1.015,0.838 0.971,0.882 0.971,0.927 0.97,0.927 0.442,0.485 0.441,0.441 0.926,1.015 0.839,0.971 0.838,1.014 0.75,1.059 0.794,1.059 0.706,1.104 0.662,1.103 0.618,1.103 0.574,1.147 0.573,1.191 0.221,0.574 0.265,0.618 0.441,1.191 0.353,1.235 0.176,0.618 0.177,0.618 0.132,0.618 0.133,0.661 0.22,1.28 0.088,0.662 0.089,0.618 0.088,1.323 0.044,1.368 -0.044,1.368 -0.088,1.368 -0.221,1.191 -0.221,1.191 -0.176,1.192 -0.177,1.191 -0.397,2.427 -0.397,2.383 -0.265,1.147 -0.264,1.191 -0.353,1.147 -0.177,0.574 -0.176,0.53 -0.177,0.573 -0.22,0.53 -0.221,0.573 -0.265,0.53 -0.529,1.059 -0.309,0.529 -0.309,0.486 -0.794,1.279 -0.838,1.191 -0.883,1.192 -0.485,0.529 -0.442,0.574 -0.97,1.059 -0.971,1.059 -0.485,0.485 -0.53,0.53 -1.015,0.926 -1.059,0.927 -0.529,0.441 -0.53,0.441 -1.103,0.839 -1.147,0.794 -1.147,0.75 -0.574,0.397 -0.617,0.353 -1.192,0.706 -1.191,0.662 -1.236,0.618 -1.235,0.617 -1.236,0.574 -1.279,0.53 -1.28,0.529 -1.279,0.485 -1.324,0.486 -1.324,0.441 -1.279,0.397 -1.324,0.397 -0.706,0.177 -0.662,0.176 -1.324,0.353 -1.323,0.353 -1.368,0.309 -1.324,0.265 -1.368,0.264 -2.206,0.353 -2.25,0.309 -1.147,0.133 -1.103,0.132 -2.251,0.221 -2.206,0.176 -1.147,0.044 -1.103,0.044 -2.206,0.089 -2.251,0 -2.206,-0.044 -2.206,-0.045 -2.206,-0.132 -1.103,-0.088 -1.103,-0.088 -2.1626,-0.221 -2.162,-0.265 -2.1621,-0.309 -1.0589,-0.176 -1.1031,-0.177 -2.118,-0.397 -2.1179,-0.485 -1.059,-0.221 -1.0148,-0.264 -1.059,-0.265 -1.0589,-0.309 -1.0149,-0.265 -1.0148,-0.309 -2.0738,-0.617 -2.0297,-0.706 -1.9856,-0.75 -1.0148,-0.353 -0.9708,-0.398 -0.9707,-0.397 -0.9707,-0.441 -1.9414,-0.882 -1.9415,-0.883 -1.8532,-0.971 -1.8973,-1.014 -1.8091,-1.06 -1.809,-1.103 -0.9708,-0.617 -0.9707,-0.662 -0.9707,-0.706 -0.9707,-0.706 -0.9266,-0.75 -0.9266,-0.75 -0.9266,-0.75 -0.8825,-0.795 -0.8824,-0.794 -0.8384,-0.838 -0.8383,-0.839 -0.8384,-0.882 -0.7942,-0.882 -0.7942,-0.883 -0.706,-0.927 -0.7501,-0.97 -0.353,-0.441 -0.3089,-0.486 -0.6618,-0.971 -0.6178,-1.015 -0.6177,-0.97 -0.5295,-1.015 -0.5295,-1.059 -0.4853,-1.059 -0.4413,-1.059 -0.2206,-0.529 -0.1765,-0.53 -0.353,-1.103 -0.1765,-0.574 -0.1323,-0.529 -0.2648,-1.147 -0.2647,-1.103 -0.1324,-1.148 -0.1324,-1.191 -0.0882,-1.147 0.0441,-1.191 0.0441,-1.236 0,-2.427 0.0442,-2.382 0,-1.236 0.0441,-1.191 0.0882,-1.192 0.0883,-1.191 0.1324,-1.147 0.1765,-1.147 0.2206,-1.103 0.2647,-1.104 0.1765,-0.573 0.1765,-0.53 0.1765,-0.529 0.2206,-0.53 0.5736,-1.323 0.6178,-1.28 0.3529,-0.618 0.353,-0.617 0.353,-0.618 0.353,-0.574 0.7942,-1.191 0.3971,-0.574 0.3972,-0.529 0.4412,-0.574 0.4412,-0.529 0.8825,-1.059 0.9707,-1.015 0.9707,-0.971 1.0149,-0.97 0.5295,-0.442 0.5295,-0.441 1.0589,-0.882 1.1031,-0.839 1.1472,-0.838 1.1472,-0.75 1.1914,-0.75 1.1913,-0.706 1.1914,-0.706 1.2354,-0.618 1.2796,-0.618 1.2355,-0.617 1.2796,-0.53 1.2795,-0.529 1.3238,-0.53 1.2795,-0.485 1.2796,-0.442 1.3237,-0.397 1.2796,-0.397 1.3237,-0.397 1.2796,-0.353 1.2796,-0.309 2.3386,-0.485 1.1913,-0.265 1.1472,-0.176 1.1913,-0.221 1.1914,-0.176 2.3827,-0.353 2.3826,-0.265 2.3827,-0.221 2.3827,-0.132 2.3827,-0.132 2.3826,-0.045 2.3827,0 2.383,0.045 2.338,0.132 1.192,0.088 1.191,0.088 2.339,0.221 2.338,0.265 2.339,0.353 1.191,0.176 1.147,0.177 1.147,0.22 1.148,0.221 2.294,0.485 2.294,0.574 2.251,0.574 1.103,0.308 1.103,0.353 1.103,0.309 1.103,0.397 1.103,0.353 1.103,0.397 1.059,0.354 1.103,0.441 2.118,0.838 1.059,0.441 1.059,0.442 2.074,0.97 2.03,1.015 1.985,1.059 1.986,1.103 1.941,1.147 z"
           inkscape:connector-curvature="0"
           style="fill:#040102" />
        <path
           id="path4614"
           d="m 151.595,120.57 1.059,0.75 1.014,0.838 1.015,0.794 0.971,0.883 0.971,0.838 0.97,0.927 0.883,0.882 0.926,0.971 0.839,0.927 0.441,0.485 0.397,0.485 0.794,1.015 0.398,0.486 0.352,0.529 0.751,1.015 0.661,1.059 0.662,1.059 0.618,1.059 0.265,0.573 0.309,0.53 0.485,1.147 0.265,0.53 0.22,0.573 0.398,1.147 0.22,0.618 0.177,0.574 0.132,0.573 0.176,0.618 0.133,0.574 0.132,0.617 0.088,0.618 0.089,0.574 0.088,0.618 0.044,0.617 0.088,0.618 0,0.618 0.044,0.661 0,0.618 -0.044,0.618 0,0.662 -0.044,0.618 -0.088,0.661 -0.088,0.618 -0.089,0.662 -0.132,0.662 -0.132,0.662 -0.133,0.662 -0.176,0.661 -0.221,0.706 -0.264,0.75 -0.265,0.707 -0.309,0.661 -0.309,0.706 -0.309,0.662 -0.706,1.324 -0.353,0.618 -0.397,0.617 -0.397,0.618 -0.397,0.618 -0.397,0.618 -0.441,0.573 -0.927,1.147 -0.485,0.53 -0.486,0.574 -0.485,0.529 -0.486,0.529 -0.529,0.486 -0.529,0.529 -1.059,0.971 -0.574,0.485 -0.574,0.442 -0.573,0.441 -0.574,0.441 -0.573,0.441 -0.618,0.441 -0.618,0.442 -0.618,0.397 -1.235,0.794 -1.28,0.75 -1.279,0.706 -1.324,0.706 -1.324,0.618 -1.368,0.618 -1.323,0.573 -1.368,0.574 -1.412,0.529 -1.368,0.486 -1.368,0.441 -1.368,0.441 -1.412,0.397 -1.367,0.353 -1.324,0.353 -1.368,0.309 -2.206,0.441 -2.25,0.398 -2.251,0.308 -2.25,0.309 -2.25,0.221 -2.251,0.176 -2.25,0.133 -1.103,0.044 -1.147,0.044 -2.251,0.044 -1.103,0 -1.147,0 -2.25,-0.088 -1.103,-0.044 -1.147,-0.089 -2.207,-0.132 -2.25,-0.221 -2.2062,-0.264 -2.2061,-0.309 -1.1031,-0.177 -1.1031,-0.22 -2.1621,-0.397 -2.162,-0.442 -2.1621,-0.529 -2.1179,-0.53 -2.118,-0.617 -1.0589,-0.309 -1.059,-0.309 -1.0149,-0.353 -1.0589,-0.353 -2.0297,-0.75 -2.0297,-0.75 -1.0148,-0.441 -0.9708,-0.398 -1.0148,-0.441 -0.9707,-0.441 -0.9707,-0.485 -0.9708,-0.442 -1.8973,-0.97 -1.8973,-1.015 -0.9266,-0.53 -0.9266,-0.529 -1.1472,-0.706 -1.1472,-0.75 -1.1472,-0.75 -1.1031,-0.839 -1.1031,-0.794 -0.5736,-0.441 -0.5295,-0.441 -1.1031,-0.883 -1.059,-0.926 -1.0148,-0.927 -1.0149,-0.971 -0.9707,-0.971 -0.9266,-1.014 -0.9266,-1.059 -0.8824,-1.059 -0.8384,-1.103 -0.3971,-0.574 -0.3971,-0.53 -0.7501,-1.147 -0.706,-1.191 -0.6618,-1.191 -0.5737,-1.192 -0.5736,-1.235 -0.2206,-0.618 -0.2647,-0.618 -0.2206,-0.617 -0.1765,-0.662 -0.3971,-1.28 -0.3089,-1.323 -0.2206,-1.324 -0.0883,-0.662 -0.0882,-0.706 -0.0441,-0.662 -0.0442,-0.662 0,-0.706 0,-0.706 0,-0.706 0.0442,-0.706 0.1323,-1.412 0.0883,-0.706 0.1323,-0.706 0.353,-0.309 0.353,-0.264 0.6619,-0.618 0.3088,-0.353 0.353,-0.309 0.5736,-0.706 0.6178,-0.706 0.5294,-0.706 0.5295,-0.75 0.4854,-0.706 -0.3971,0.927 -0.2206,0.485 -0.1765,0.485 -0.1765,0.53 -0.1324,0.485 -0.3089,1.059 -0.2206,1.103 -0.2206,1.103 -0.0882,0.53 -0.0442,0.574 -0.0441,0.573 -0.0441,0.574 -0.0441,0.573 0,0.53 0,1.147 0,0.574 0.0441,0.573 0.0441,0.574 0.0441,0.529 0.1765,1.104 0.2206,1.103 0.2648,1.059 0.1324,0.529 0.1764,0.485 0.2207,0.751 0.2647,0.706 0.3089,0.706 0.2647,0.661 0.3089,0.706 0.353,0.662 0.3088,0.706 0.353,0.662 0.3971,0.618 0.353,0.662 0.3971,0.617 0.4413,0.662 0.3971,0.618 0.4412,0.618 0.8825,1.191 0.9707,1.147 0.4854,0.574 0.5295,0.573 1.0148,1.104 1.1031,1.059 1.1031,1.014 1.1472,1.015 1.1913,0.971 1.1914,0.927 1.2354,0.926 1.2355,0.838 1.2796,0.839 1.3237,0.838 1.3237,0.75 1.3237,0.75 1.3237,0.75 1.3679,0.662 1.3678,0.662 1.3237,0.618 1.3678,0.618 1.3679,0.573 1.3678,0.53 1.3237,0.485 1.3678,0.485 1.3238,0.442 2.1179,0.706 1.059,0.309 1.103,0.308 2.1621,0.574 1.1031,0.265 1.1472,0.264 2.2503,0.442 1.1472,0.22 1.1472,0.221 2.2945,0.353 2.3385,0.309 1.1471,0.132 1.192,0.133 2.338,0.22 2.383,0.133 2.382,0.132 2.383,0 1.191,0 1.192,0 2.382,-0.088 1.148,-0.044 1.191,-0.089 1.191,-0.088 1.192,-0.132 2.338,-0.265 1.192,-0.177 1.147,-0.132 2.338,-0.397 1.147,-0.221 1.148,-0.264 1.147,-0.265 1.103,-0.265 1.147,-0.265 1.103,-0.309 1.103,-0.352 1.104,-0.309 1.103,-0.353 1.059,-0.398 1.103,-0.397 1.059,-0.397 1.059,-0.441 1.015,-0.441 1.058,-0.441 1.015,-0.486 1.015,-0.485 0.971,-0.53 0.971,-0.529 0.97,-0.574 0.971,-0.573 0.927,-0.574 0.926,-0.618 0.927,-0.617 0.838,-0.618 0.794,-0.662 0.795,-0.662 0.75,-0.662 0.75,-0.662 0.706,-0.705 0.706,-0.751 0.662,-0.706 0.661,-0.75 0.618,-0.794 0.574,-0.75 0.573,-0.794 0.53,-0.839 0.529,-0.794 0.442,-0.838 0.441,-0.883 0.441,-0.838 0.353,-0.882 0.353,-0.883 0.309,-0.927 0.309,-0.882 0.22,-0.927 0.221,-0.97 0.132,-0.927 0.133,-0.971 0.088,-0.97 0.044,-0.971 0,-1.015 -0.044,-1.015 -0.088,-1.015 -0.088,-1.014 -0.089,-0.53 -0.088,-0.485 -0.176,-0.839 -0.221,-0.794 -0.221,-0.794 -0.264,-0.794 -0.265,-0.75 -0.265,-0.751 -0.309,-0.794 -0.353,-0.706 -0.353,-0.75 -0.353,-0.75 -0.397,-0.706 -0.397,-0.706 -0.397,-0.706 -0.441,-0.662 -0.442,-0.706 -0.485,-0.662 -0.485,-0.661 -0.486,-0.662 -0.485,-0.618 -0.529,-0.618 -0.574,-0.617 -0.53,-0.618 -0.573,-0.618 -0.574,-0.574 -0.573,-0.617 -0.618,-0.574 -1.236,-1.103 -0.617,-0.574 -0.662,-0.529 -1.28,-1.015 -0.706,-0.529 -0.662,-0.486 -1.367,-0.97 -1.412,-0.971 -1.412,-0.883 -0.75,-0.441 -0.706,-0.397 -1.456,-0.838 -1.501,-0.795 -1.5,-0.75 -1.5,-0.706 -1.5,-0.661 -1.5,-0.618 -0.751,-0.309 -0.706,-0.309 -1.5,-0.574 -1.5,-0.529 -1.456,-0.485 -1.456,-0.442 -1.986,-0.573 -2.029,-0.574 -2.03,-0.485 -2.03,-0.486 -2.074,-0.397 -1.059,-0.22 -1.059,-0.177 -2.117,-0.309 -2.118,-0.309 -2.162,-0.22 -2.162,-0.221 -1.059,-0.088 -1.104,-0.044 -2.206,-0.088 -2.206,-0.045 -1.1031,0 -1.1031,0 -2.2503,0.045 -1.1031,0.088 -1.1472,0.044 0.8825,-0.088 0.9707,-0.089 0.9266,-0.044 0.4854,-0.044 0.4853,0.044 0.1324,-0.088 0.1765,-0.044 0.1765,-0.044 0.1765,0 0.353,-0.044 0.1765,-0.044 0.1765,-0.044 0.3971,-0.045 0.353,-0.044 0.3971,-0.088 0.3971,-0.088 1.5441,-0.486 0.309,-0.132 1.721,0.088 1.721,0.133 1.676,0.132 1.677,0.132 1.721,0.177 1.677,0.221 1.632,0.22 1.677,0.265 1.633,0.265 1.632,0.308 1.633,0.309 1.588,0.353 1.633,0.397 1.588,0.398 1.545,0.441 0.794,0.22 0.794,0.221 1.544,0.485 1.545,0.53 1.544,0.529 1.5,0.574 1.544,0.618 1.501,0.617 1.456,0.662 1.5,0.706 1.456,0.706 1.456,0.75 1.412,0.75 1.412,0.839 1.412,0.838 1.412,0.883 1.368,0.882 1.368,0.971 z"
           inkscape:connector-curvature="0"
           style="fill:#ffffff" />
        <path
           id="path4616"
           d="m 114.266,108.215 -0.088,0.177 -0.044,0.176 -0.044,0.177 0,0.176 -0.045,0.397 -0.044,0.397 -1.456,-0.22 -1.5,-0.177 -0.794,-0.088 -0.75,-0.088 -1.545,-0.133 -1.544,-0.132 -0.75,-0.044 -0.794,-0.088 -1.589,-0.044 -1.544,-0.089 -1.589,-0.044 -1.5881,0 -1.5884,0.044 -1.5885,0.044 -1.5443,0.045 -1.5884,0.088 -1.5444,0.132 -1.5002,0.133 -1.5884,-1.28 -0.1324,0.044 -0.1324,0 -0.0882,0.088 -0.0441,0.044 -0.0442,0 -0.0441,0.089 -0.0441,0.132 0,0.088 0,0.133 0,0.22 0,0.265 0,0.265 -0.0441,0.176 -1.3679,0.221 -1.3678,0.221 -1.3237,0.22 -1.3237,0.221 -1.3237,0.309 -1.3237,0.264 -1.2796,0.309 -1.3237,0.353 -0.6178,0.177 -0.6618,0.176 -1.2796,0.397 -1.2355,0.397 -1.2795,0.442 -1.2355,0.441 -1.2355,0.485 -1.2354,0.486 -1.1914,0.529 -1.0148,-0.926 1.3237,-0.618 1.3678,-0.574 1.412,-0.574 1.4119,-0.529 1.412,-0.53 1.4561,-0.441 1.4561,-0.485 1.456,-0.397 1.5002,-0.397 1.4561,-0.353 1.5444,-0.353 1.5002,-0.309 1.5443,-0.265 1.5443,-0.221 1.5443,-0.22 1.5444,-0.221 1.5884,-0.132 0.7942,-0.088 0.7943,-0.089 1.5443,-0.088 1.5885,-0.088 1.5884,-0.044 1.5885,-0.044 1.5884,0 1.6331,0.044 3.176,0.132 1.589,0.133 1.588,0.132 1.589,0.132 1.588,0.221 1.544,0.176 1.589,0.265 z"
           inkscape:connector-curvature="0"
           style="fill:#ffffff" />
        <path
           id="path4618"
           d="m 135.578,114.26 0,0.132 0,0.089 -0.133,0.22 -0.176,0.177 -0.177,0.132 -0.308,0.088 -0.265,0.045 -0.221,0.044 -0.265,0 -0.264,-0.044 -0.221,-0.089 -0.485,-0.132 -0.927,-0.441 -0.485,-0.177 -0.221,-0.088 -0.265,-0.044 -2.029,-0.706 -2.03,-0.662 -2.03,-0.618 -1.059,-0.309 -1.015,-0.264 -0.044,-0.089 0,-0.088 0,-0.176 0.089,-0.442 0,-0.176 0,-0.088 -0.045,-0.089 -0.044,-0.088 -0.044,-0.088 -0.132,-0.044 -0.088,-0.044 -0.353,0 -0.353,0.044 -0.662,0.088 -1.368,0.221 -0.706,0.088 -0.662,0 -0.353,-0.044 -0.309,-0.044 -0.353,-0.133 -0.309,-0.088 -2.382,-2.03 1.323,0.221 1.368,0.265 1.324,0.265 1.324,0.308 1.323,0.309 1.324,0.309 1.28,0.353 1.323,0.353 1.28,0.397 1.28,0.397 1.279,0.442 1.28,0.397 1.235,0.485 1.236,0.441 1.279,0.53 1.236,0.485 z"
           inkscape:connector-curvature="0"
           style="fill:#ffffff" />
        <path
           id="path4620"
           d="m 94.2338,110.863 -0.5295,0.397 -0.5294,0.397 -0.4854,0.397 -0.2647,0.22 -0.2207,0.221 0.0883,0.309 1.8973,1.765 -3.7064,-0.838 -0.706,0.441 -0.6618,0.485 -0.706,0.486 -0.3089,0.22 -0.3971,0.221 0,-2.383 -0.3088,-0.353 -3.0004,-0.794 3.1327,-0.441 0.1765,-0.221 0.1765,-2.338 2.6474,2.161 3.7064,-0.352 z"
           inkscape:connector-curvature="0"
           style="fill:#ffffff" />
        <path
           id="path4622"
           d="m 121.282,111.215 -0.265,0.221 -0.221,0.221 -0.529,0.353 -0.221,0.176 -0.265,0.221 -0.22,0.221 -0.177,0.22 0.044,0.353 1.898,1.677 -3.486,-0.838 -0.309,0.132 -2.383,1.765 -0.22,-2.471 -0.221,-0.221 -3.044,-0.838 3,-0.397 0.221,-0.221 0.044,-2.338 2.691,2.162 3.663,-0.398 z"
           inkscape:connector-curvature="0"
           style="fill:#ffffff" />
        <path
           id="path4624"
           d="m 93.572,112.848 -0.0883,0 -0.0441,-0.088 -0.0441,-0.044 -0.0883,-0.088 0.2207,-0.177 0.1764,-0.177 0.4854,-0.352 0.4412,-0.353 0.2648,-0.177 0.2206,-0.221 0,0.574 -1.5443,1.103 z"
           inkscape:connector-curvature="0"
           style="fill:#ffffff" />
        <path
           id="path4626"
           d="m 122.076,112.054 -0.177,0.132 -0.176,0.133 -0.353,0.309 -0.397,0.308 -0.177,0.133 -0.176,0.132 -0.133,-0.132 -0.044,-0.088 0,-0.045 0,-0.044 1.633,-1.279 0,0.441 z"
           inkscape:connector-curvature="0"
           style="fill:#ffffff" />
        <path
           id="path4628"
           d="m 135.798,116.863 -0.132,0.089 -0.088,0.088 -0.044,0.132 -0.089,0.133 -0.044,0.088 -0.044,0.132 -0.044,0.309 0,0.265 0,0.309 -0.044,0.309 -0.044,0.264 0,1.148 -4.368,0.661 -0.133,0.221 -0.088,0.221 -0.088,0.264 0,0.309 -0.044,0.53 -0.045,0.264 -0.044,0.265 0.265,0.265 4.765,1.324 0.353,3.044 0.044,0.088 0.045,0.045 0.088,0.044 0.088,0 0.132,0.044 0.177,-0.044 2.868,-2.251 5.03,1.192 0.132,0 0.133,-0.089 0.044,-0.132 0.088,-0.088 0.221,-1.853 -0.486,-0.486 -0.573,-0.485 -1.059,-0.927 0.353,-0.353 0.353,-0.308 0.353,-0.354 0.397,-0.264 0.927,0.529 0.882,0.574 0.883,0.618 0.882,0.617 0.882,0.618 0.883,0.662 0.882,0.662 0.839,0.706 0.838,0.706 0.838,0.75 0.442,0.397 0.397,0.353 0.794,0.794 0.794,0.794 0.75,0.839 0.75,0.838 0.706,0.838 -0.441,0.089 -0.441,0.088 -0.486,0.088 -0.441,0.044 -0.97,0.133 -0.971,0.044 -3.398,-2.692 -0.132,-0.044 -0.132,0.044 -0.089,0.044 -0.044,0.044 -0.132,0.133 -0.132,0.75 -0.089,0.794 -0.044,0.397 0,0.397 0,0.397 0.044,0.398 -4.324,0.662 -0.265,0.264 -0.22,1.897 0.265,0.265 4.853,1.28 0.397,3.133 0.044,0.132 0.045,0.044 0.088,0.044 0.088,0.044 0.088,0.045 0.089,0 0.088,-0.045 0.088,0 2.824,-2.338 1.28,0.265 1.323,0.308 1.28,0.265 1.279,0.353 0.133,-0.044 0.088,-0.088 0.088,-0.088 0.088,-0.133 0.133,-0.926 0.044,-0.486 0.044,-0.485 -0.573,-0.441 -0.574,-0.53 -1.059,-1.015 0.176,-0.22 0.221,-0.221 0.441,-0.397 0.221,-0.177 0.221,-0.22 0.132,-0.265 0.044,-0.132 0.044,-0.133 0.662,0.883 0.309,0.485 0.309,0.486 0.573,0.926 0.265,0.485 0.265,0.486 -0.088,0.221 -0.045,0.176 -0.044,0.441 -0.044,0.486 -0.088,0.176 -0.088,0.221 0,0.309 -0.044,0.308 -0.089,0.618 -0.176,0.574 -0.221,0.573 -0.265,0.53 -0.176,0.265 -0.132,0.264 -0.221,0.265 -0.177,0.221 -0.441,0.441 -0.264,0.265 -0.309,0.22 -0.265,0.221 -0.309,0.176 -0.618,0.353 -0.617,0.353 -0.618,0.353 -0.618,0.398 -0.265,0.22 -0.308,0.221 -0.265,0.264 -0.265,0.309 -0.088,-0.088 -0.133,-0.088 -0.176,-0.177 -0.132,-0.088 -0.089,-0.044 -0.132,0 -0.132,0 -0.309,0.309 -0.221,1.588 -0.176,0.221 -0.221,0.265 -0.441,0.441 -0.397,0.485 -0.221,0.221 -0.177,0.265 -2.779,0.485 -0.133,0.221 -0.088,0.264 -0.088,0.265 -0.044,0.265 -0.044,0.529 -0.089,0.53 0,0.088 0.044,0.044 0.045,0.088 0.044,0.044 0.132,0.089 0.132,0.044 0.177,0.044 0.132,0.044 0.309,0.044 -0.265,0.618 -0.088,0.353 -0.044,0.176 -0.044,0.221 -0.309,0.53 -0.309,0.529 -0.132,0.265 -0.133,0.309 0,0.132 -0.044,0.177 0,0.132 0,0.176 -0.044,0.177 -0.044,0.176 -0.044,0.309 0,0.177 -0.044,0.176 -0.044,0.133 -0.089,0.176 0,0.132 -0.044,0.133 -0.044,0.265 -0.132,0.264 -0.132,0.265 -0.177,0.221 -0.176,0.22 -0.398,0.441 -0.441,0.442 -0.22,0.22 -0.177,0.221 -0.176,0.221 -0.177,0.22 -0.132,0.265 -0.133,0.265 -0.22,-0.088 -1.854,-1.545 -0.132,0 -0.132,0.044 -0.088,0.089 -0.089,0.132 -0.088,0.441 -0.044,0.397 -0.088,0.839 -0.044,0.882 0.044,0.883 -4.722,0.838 -0.132,0.265 -0.088,0.264 -0.044,0.265 -0.044,0.265 -0.045,0.573 -0.088,0.53 0.265,0.265 3.397,0.926 -0.176,0.574 -0.133,0.309 -0.176,0.265 -0.132,0.308 -0.221,0.265 -0.221,0.265 -0.22,0.22 -0.441,0.353 -0.442,0.309 -0.485,0.265 -0.485,0.265 -0.971,0.441 -0.971,0.441 -2.78,1.236 -0.662,0.309 -0.705,0.309 -0.662,0.352 -0.662,0.353 -0.485,0.221 -0.486,0.221 -0.485,0.22 -0.265,0.133 -0.221,0.132 -0.176,-0.176 -0.132,-0.133 -0.133,-0.176 -0.088,-0.089 -0.044,-0.088 1.897,-1.809 0.044,-0.265 0.044,-0.309 0.089,-0.573 0.044,-0.309 0,-0.265 -0.044,-0.132 -0.089,-0.133 -0.088,-0.132 -0.088,-0.088 -5.427,0.75 -3.574,-3.133 -0.133,0.044 -0.176,0.045 -0.088,0.132 -0.089,0.132 -0.176,1.721 -0.044,0.441 0,0.442 0,0.441 0,0.441 -4.986,0.883 -0.221,0.264 -0.132,1.942 0.22,0.22 5.207,1.456 0.088,0.706 -1.323,0.133 -0.662,0.088 -0.309,0 -0.353,0.088 -0.618,0.133 -0.309,0.088 -0.309,0.132 -0.309,0.133 -0.264,0.132 -0.265,0.176 -0.265,0.221 -0.353,0.177 -0.353,0.22 -0.176,0.088 -0.177,0.133 -0.132,0.132 -0.177,0.177 -2.515,0 -2.471,-0.044 -1.235,-0.045 -1.236,-0.088 -1.235,-0.044 -1.191,-0.088 -1.236,-0.089 -1.191,-0.132 -1.1915,-0.132 -1.1913,-0.133 -1.1913,-0.176 -1.1914,-0.177 -1.1472,-0.22 -1.1472,-0.221 1.4561,-1.191 5.4718,1.368 0.132,-0.044 0.132,-0.089 0.089,-0.044 0.044,-0.088 0,-0.044 0.044,-0.088 0.176,-1.854 -2.2942,-2.382 2.0302,-1.853 0.264,-1.854 -0.044,-0.132 -0.088,-0.132 -0.132,-0.089 -0.089,-0.044 -5.4711,0.75 -3.4858,-3.132 -0.0882,0 -0.0883,0 -0.1323,0.044 -0.0883,0.044 -0.0441,0.044 -0.0882,0.132 -0.2648,3.53 -5.2066,0.927 -0.2206,0.264 -0.0441,0.53 -0.0441,0.485 0,0.53 0,0.22 0.0441,0.221 0.2647,0.221 5.0301,1.412 0.0883,0.882 0.0441,0.441 0,0.486 -3.0445,-0.662 -1.4561,-0.397 -1.5002,-0.397 -1.5002,-0.397 -1.4561,-0.486 -1.4561,-0.441 -1.4561,-0.53 -1.4119,-0.529 -1.4561,-0.53 -1.412,-0.617 -1.4119,-0.618 -1.3678,-0.618 -1.3679,-0.662 -1.3678,-0.706 -1.3678,-0.705 2.162,-1.677 5.4272,1.368 0.1324,-0.089 0.0441,-0.044 0.0441,-0.044 0.0883,-0.088 0.0441,-0.132 0.0441,-0.133 0.0442,-0.132 0.0441,-0.309 0,-0.618 0,-0.309 0.0441,-0.264 -0.2206,-0.309 -0.2648,-0.309 -0.5294,-0.53 -0.5295,-0.573 -0.5736,-0.53 0.5295,-0.485 0.5294,-0.441 0.5736,-0.486 0.5295,-0.485 0.1765,-1.986 -0.0441,-0.088 -0.0441,-0.088 -0.0883,-0.088 -0.1765,-0.045 -0.1323,0 -0.353,0.045 -0.3089,0.044 -4.6771,0.618 -3.2651,-3.001 -0.0883,-0.044 -0.0882,-0.044 -0.0883,0.044 -0.0882,0.044 -0.1324,0.088 -0.1324,0.177 -0.2647,3.353 -5.2507,0.883 -0.0883,0.088 -0.0882,0.088 -0.0883,0.133 -0.0441,0.088 -0.0441,0.265 0,0.308 0.0441,0.574 -0.0441,0.265 0,0.132 -0.0441,0.132 -1.2355,-0.926 -1.2355,-1.015 -1.2354,-1.059 -0.6178,-0.529 -0.5736,-0.574 0.3089,-0.309 0.353,-0.309 0.3088,-0.309 0.3089,-0.353 1.1472,-1.5 0.3089,-0.309 0.2647,-0.353 0.2648,-0.353 0.2206,-0.397 0.4412,-0.75 0.2207,-0.397 0.2647,-0.353 0.4854,-0.574 0.5294,-0.617 0.5295,-0.53 0.5736,-0.573 0.5736,-0.486 0.5736,-0.529 0.6178,-0.441 0.6177,-0.486 0,0.486 0,0.529 -0.0882,1.059 0.0441,0.088 0.0441,0.089 0.1765,0.132 0.5295,0 0.4853,-0.088 1.059,-0.133 1.0149,-0.132 0.9707,-0.177 2.0297,-0.309 1.0148,-0.132 1.0148,-0.132 0.7502,0.794 0.7059,0.75 0.7501,0.706 0.7943,0.706 0.7501,0.662 0.7942,0.662 0.8383,0.618 0.7943,0.617 0.8383,0.574 0.8384,0.529 0.8383,0.53 0.8384,0.529 0.8824,0.442 0.8825,0.485 0.8825,0.441 0.8824,0.397 0.9266,0.397 0.8825,0.397 0.9266,0.353 0.9266,0.353 0.9266,0.309 0.9707,0.309 1.8973,0.574 0.9708,0.265 0.9707,0.264 0.9707,0.221 0.9707,0.221 1.9415,0.397 1.9858,0.353 1.191,0.176 1.147,0.132 1.148,0.133 1.147,0.088 2.338,0.132 1.148,0 1.147,0.045 1.147,-0.045 1.147,-0.044 1.147,-0.044 1.148,-0.088 1.147,-0.088 1.103,-0.133 1.147,-0.132 1.103,-0.177 1.103,-0.22 1.103,-0.221 1.059,-0.264 1.103,-0.265 1.059,-0.265 1.059,-0.353 1.059,-0.353 1.015,-0.353 1.015,-0.397 1.015,-0.441 1.015,-0.442 0.97,-0.485 0.971,-0.485 0.971,-0.53 0.485,-0.309 0.441,-0.264 0.927,-0.574 0.706,-0.485 0.662,-0.53 0.662,-0.529 0.618,-0.618 0.661,-0.618 0.574,-0.618 0.618,-0.617 0.573,-0.662 0,-0.353 0.088,-0.353 0.089,-0.353 0.044,-0.397 0.044,-0.353 -0.044,-0.177 0,-0.176 -0.088,-0.177 -0.089,-0.132 -0.088,-0.177 -0.132,-0.132 -0.75,-1.28 -0.75,-1.323 -1.545,-2.559 -0.132,-0.044 -0.177,0.044 -0.132,0.088 -0.044,0.044 -0.044,0.044 -0.133,0.441 -0.176,0.397 -0.177,0.398 -0.176,0.353 -0.221,0.397 -0.22,0.353 -0.221,0.397 -0.265,0.309 -0.264,0.353 -0.265,0.353 -0.309,0.309 -0.309,0.308 -0.618,0.618 -0.706,0.618 -0.706,0.529 -0.706,0.53 -0.75,0.529 -0.75,0.442 -1.5,0.882 -1.456,0.794 -0.662,0.265 -0.662,0.309 -1.368,0.529 -0.706,0.221 -0.661,0.221 -1.412,0.441 -1.456,0.353 -0.706,0.176 -0.706,0.177 -1.456,0.264 -0.751,0.133 -0.75,0.088 -0.75,0.088 -0.75,0.089 -0.75,0.088 -0.706,0.044 -0.794,0.044 -0.75,0.044 -1.5,0.044 -1.501,0 -1.5,-0.088 -1.544,-0.088 -1.5,-0.177 -1.501,-0.176 -1.5,-0.265 -1.456,-0.265 -0.7501,-0.176 -0.7501,-0.177 -0.706,-0.176 -0.7501,-0.221 -0.7059,-0.176 -0.706,-0.221 -1.412,-0.485 -0.7059,-0.265 -0.706,-0.265 -1.3679,-0.529 -1.3678,-0.618 -1.3237,-0.618 -1.2796,-0.706 -1.2354,-0.706 -1.2355,-0.794 -0.6177,-0.397 -0.5736,-0.397 -1.1473,-0.882 -0.0441,-0.045 -0.0882,-0.088 -0.1324,-0.088 -0.1324,-0.088 -0.1323,-0.177 18.753,-2.78 18.796,-2.735 0.265,-0.265 0.088,-0.75 0.133,-0.75 0.264,-1.456 0.133,-0.706 0.088,-0.75 0.088,-0.75 0.044,-0.751 -0.265,-0.264 -21.6642,3.088 -21.6647,3.089 -0.3089,-0.75 21.7971,-3.089 21.8407,-3.088 0.177,-0.265 0.265,-1.456 0.22,-1.456 0.133,-0.751 0.088,-0.705 0.044,-0.397 0.044,-0.353 0.044,-0.751 -0.353,-0.22 -19.988,2.735 -19.9435,2.78 0.2206,-0.088 0.1765,-0.088 0.353,-0.221 0.353,-0.265 0.1765,-0.088 0.1765,-0.088 0.8824,-0.662 0.8384,-0.662 0.3971,-0.309 0.2206,-0.176 0.1765,-0.177 0.353,-0.397 0.1765,-0.22 0.1765,-0.221 0.0882,-0.177 0.0883,-0.176 0.2647,-0.309 0.2648,-0.309 0.0882,-0.132 0.0883,-0.221 0.0882,-0.088 0.1324,-0.132 0.2206,-0.265 0.1765,-0.265 0.2206,-0.265 0.706,-1.103 0.353,-0.529 0.2206,-0.265 0.1765,-0.265 0.2647,-0.22 0.2648,-0.177 0.2647,-0.176 0.3089,-0.177 0.4853,-0.441 0.5295,-0.397 1.1031,-0.706 0.5736,-0.353 0.5295,-0.397 0.2206,-0.177 0.2648,-0.264 0.2206,-0.265 0.2206,-0.265 0.2206,-0.176 0.1765,-0.221 0.3971,-0.397 0.4413,-0.441 0.1765,-0.221 0.2206,-0.221 1.7208,-0.22 0.8383,-0.088 0.8384,-0.089 0.8387,-0.088 0.882,-0.044 1.677,-0.044 1.677,-0.044 0.882,0.044 0.838,0.044 1.677,0.088 0.838,0.088 0.839,0.089 1.632,0.22 1.633,0.265 1.633,0.353 0.794,0.177 0.794,0.176 0.794,0.221 0.794,0.22 0.751,0.265 0.794,0.221 1.5,0.529 0.75,0.309 0.706,0.309 0.044,-0.044 0.088,0 0.089,-0.044 0.044,-0.089 0.044,-0.088 0.088,-0.176 0.044,-0.221 0.089,-0.662 0.088,-0.662 0.264,-1.279 0.221,-1.28 0.088,-0.662 0.044,-0.662 -0.308,-0.309 -1.103,-0.397 -1.148,-0.309 -1.103,-0.352 -1.147,-0.309 -1.147,-0.265 -1.148,-0.309 -1.147,-0.221 -1.191,-0.22 -1.147,-0.221 -1.192,-0.176 -1.235,-0.133 -1.191,-0.132 -1.236,-0.132 -1.235,-0.089 -1.236,-0.044 -1.235,0 0.706,-0.397 0.397,-0.265 0.176,-0.132 0.177,-0.132 0.927,-0.706 0.485,-0.397 0.441,-0.398 0.441,-0.397 0.441,-0.397 0.265,-0.176 0.221,-0.177 0.265,-0.176 0.264,-0.089 0.574,0.133 0.574,0.132 1.103,0.309 1.147,0.309 1.147,0.309 0.221,2.956 0.088,0.132 0.088,0.045 0.044,0.044 0.133,0 0.176,0 3.045,-2.207 4.942,1.192 0.088,-0.044 0.044,-0.044 0.044,0 0.177,-0.177 0.22,-1.853 -0.22,-0.265 -0.221,-0.22 -0.221,-0.221 -0.264,-0.221 -0.53,-0.441 -0.265,-0.22 -0.22,-0.265 0.176,-0.177 0.177,-0.176 0.353,-0.309 0.397,-0.309 0.221,-0.176 0.176,-0.221 1.677,0.441 1.632,0.486 1.633,0.529 1.632,0.529 1.633,0.574 1.588,0.574 1.589,0.662 1.588,0.661 z"
           inkscape:connector-curvature="0"
           style="fill:#ffffff" />
        <path
           id="path4630"
           d="m 86.777,114.39 -4.0593,-1.103 0,-0.838 4.0593,1.103 0,0.838 z"
           inkscape:connector-curvature="0"
           style="fill:#ffffff" />
        <path
           id="path4632"
           d="m 114.134,113.951 -0.133,0.75 -1.015,-0.22 -1.014,-0.309 -2.074,-0.53 0.044,-0.794 0.529,0.133 0.53,0.132 1.015,0.265 1.059,0.309 1.059,0.264 z"
           inkscape:connector-curvature="0"
           style="fill:#ffffff" />
        <path
           id="path4634"
           d="m 64.5827,115.893 -0.3088,0.132 -0.3089,0.132 -0.5736,0.309 -1.1472,0.706 -0.6177,0.309 -0.3089,0.133 -0.3089,0.132 -0.3088,0.088 -0.353,0.044 -0.353,0 -0.3971,-0.044 -0.1324,0.088 -0.0882,0.045 0,0.044 -0.0442,0.088 0,0.088 0,0.132 0,0.309 0,0.177 -0.0441,0.132 -0.8825,0.574 -0.9266,0.662 -0.8824,0.661 -0.8384,0.706 -0.8825,0.707 -0.8383,0.794 -0.8384,0.75 -0.7942,0.838 -0.7501,0.839 -0.7501,0.838 -0.7501,0.882 -0.6618,0.883 -0.6178,0.882 -0.3088,0.486 -0.3089,0.441 -0.5736,0.926 -0.4854,0.927 0.1765,-0.574 0.2648,-0.573 0.2647,-0.574 0.2647,-0.573 0.3089,-0.574 0.353,-0.529 0.6619,-1.148 0.3529,-0.529 0.353,-0.485 0.7943,-1.015 0.7942,-1.015 0.8825,-0.927 0.3971,-0.485 0.4853,-0.441 0.4413,-0.442 0.4853,-0.441 0.9266,-0.838 0.9707,-0.839 1.0149,-0.794 0.5295,-0.397 0.4853,-0.353 1.059,-0.706 1.0148,-0.706 1.059,-0.662 1.1031,-0.618 1.059,-0.573 1.0589,-0.53 -0.1765,1.501 z"
           inkscape:connector-curvature="0"
           style="fill:#ffffff" />
        <path
           id="path4636"
           d="m 95.1163,116.422 -4.1917,-0.971 0,-0.794 4.1917,0.971 0,0.794 z"
           inkscape:connector-curvature="0"
           style="fill:#ffffff" />
        <path
           id="path4638"
           d="m 90.042,115.5 -2.3386,1.721 0,-0.573 2.3386,-1.677 0,0.529 z"
           inkscape:connector-curvature="0"
           style="fill:#ffffff" />
        <path
           id="path4640"
           d="m 122.297,116.819 -4.192,-1.015 0,-0.397 0.044,-0.22 0.044,-0.221 4.192,1.015 -0.088,0.838 z"
           inkscape:connector-curvature="0"
           style="fill:#ffffff" />
        <path
           id="path4642"
           d="m 68.0685,117.481 1.9415,-0.176 0.9707,-0.089 0.4853,-0.044 0.4854,-0.088 -0.5295,0.397 -0.5736,0.441 -0.5295,0.442 -0.5295,0.441 0.0442,0.265 1.8973,1.853 -3.7947,-0.883 -0.7059,0.486 -0.706,0.485 -1.412,1.015 0,-2.559 -0.2647,-0.265 -3.0004,-0.838 3.1769,-0.486 0.2206,-0.176 0.2647,-2.471 2.5592,2.25 z"
           inkscape:connector-curvature="0"
           style="fill:#ffffff" />
        <path
           id="path4644"
           d="m 115.104,117.481 0.044,-0.573 2.163,-1.545 -0.045,0.486 -2.162,1.632 z"
           inkscape:connector-curvature="0"
           style="fill:#ffffff" />
        <path
           id="path4646"
           d="m 64.5386,116.863 -0.0441,0.133 0,0.132 -0.3971,0.088 -0.1765,0.044 -0.2206,0 0.2206,-0.132 0.2206,-0.088 0.3971,-0.177 z"
           inkscape:connector-curvature="0"
           style="fill:#ffffff" />
        <path
           id="path4648"
           d="m 140.917,119.378 -1.633,0.177 -3.045,-2.471 1.192,0.53 1.147,0.573 2.339,1.191 z"
           inkscape:connector-curvature="0"
           style="fill:#ffffff" />
        <path
           id="path4650"
           d="m 72.9221,117.393 -0.0441,0.132 0,0.133 0,0.309 -0.3971,0.264 -0.4413,0.309 -0.7942,0.662 -0.0441,0 -0.0441,0 -0.1324,-0.044 -0.0441,-0.088 -0.1324,-0.089 0.5295,-0.397 0.4853,-0.397 0.5295,-0.397 0.5295,-0.397 z"
           inkscape:connector-curvature="0"
           style="fill:#ffffff" />
        <path
           id="path4652"
           d="m 139.064,120.393 3.706,-0.441 -0.221,0.221 -0.264,0.22 -0.486,0.441 -0.529,0.442 -0.221,0.22 -0.176,0.265 0,0.133 2.073,1.853 -3.706,-0.795 -2.515,1.942 -0.309,-2.603 -0.397,-0.221 -0.397,-0.132 -0.441,-0.133 -0.397,-0.088 -0.883,-0.221 -0.397,-0.088 -0.441,-0.132 3.088,-0.486 0.177,-0.22 -0.044,-2.339 0.706,0.53 0.662,0.529 0.706,0.574 0.308,0.265 0.398,0.264 z"
           inkscape:connector-curvature="0"
           style="fill:#ffffff" />
        <path
           id="path4654"
           d="m 64.274,120.7 -4.1918,-1.147 0.0442,-0.794 4.1476,1.147 0,0.794 z"
           inkscape:connector-curvature="0"
           style="fill:#ffffff" />
        <path
           id="path4656"
           d="m 122.473,122.202 -0.044,0.309 -0.044,0.353 -0.177,0.75 -0.132,0.706 -0.044,0.353 -0.088,0.353 -1.148,-0.441 -1.147,-0.397 -1.191,-0.397 -1.236,-0.353 -1.235,-0.309 -1.236,-0.265 -1.279,-0.265 -1.28,-0.264 -1.324,-0.177 -1.323,-0.176 -1.28,-0.133 -1.324,-0.088 -1.367,-0.044 -1.324,-0.044 -1.324,0 -1.323,0.044 -1.324,0.088 -1.3239,0.089 -0.6619,0.088 -0.6618,0.088 -1.2796,0.177 -1.3237,0.22 -0.6178,0.132 -0.6618,0.133 -1.2796,0.309 -1.2355,0.353 -1.2354,0.353 -1.1914,0.441 -1.1913,0.441 -1.1472,0.485 -1.1472,0.574 -1.1031,0.574 -0.5295,0.309 -0.5295,0.308 -0.5295,0.309 -0.5295,0.353 -0.7942,0.574 -0.7501,0.618 -0.706,0.661 -0.706,0.662 -0.6618,0.706 -0.3089,0.353 -0.3088,0.353 -0.2648,0.353 -0.3088,0.397 -0.4854,0.751 -0.4854,0.838 -0.3971,0.794 -0.2206,0.441 -0.1765,0.397 -0.1324,0.442 -0.1323,0.441 -0.2648,0.927 -0.0882,0.441 -0.0441,0.441 -0.1324,0.971 0,0.485 0,0.485 0.0882,0.089 0.1324,0.088 0.1324,0.044 0.1323,0 0.3089,-0.044 0.3089,-0.044 22.4148,-3.133 22.4149,-3.089 -0.485,3.001 -0.221,0.088 -22.1943,3.089 -22.1942,3.132 -0.0882,0.133 -0.1324,0.132 0,0.088 0,0.089 0,0.088 0.0441,0.088 0.2648,0.839 0.1323,0.441 0.1765,0.397 0.2207,0.441 0.1765,0.397 0.2206,0.397 0.2647,0.397 0.8384,-0.088 19.7232,-2.868 19.7233,-2.824 -0.176,0.133 -0.133,0.176 -0.309,0.221 -0.309,0.176 -0.353,0.177 -0.353,0.132 -0.397,0.133 -0.353,0.132 -0.353,0.132 -0.441,0 -0.132,0 -0.044,0 0.044,-0.044 0.132,-0.044 0.221,-0.044 -0.618,0.088 -0.221,0.088 -0.176,0.044 -0.441,0.089 -0.486,0.088 -0.441,0.044 -0.441,0.088 -0.441,0.044 -0.442,0.133 -0.397,0.132 -0.176,0.088 -0.177,0.044 -0.353,0.089 -0.353,0.088 -0.176,0.044 -0.133,0.088 -0.617,0.133 -0.574,0.176 -1.147,0.265 -0.574,0.177 -0.617,0.088 -0.574,0.088 -0.618,0 -0.22,0.088 -0.221,0.044 -0.441,0.044 -0.221,0.045 -0.221,0.044 -0.22,0.044 -0.088,0.044 -0.089,0.088 -0.706,0.133 -0.706,0.132 -1.3675,0.353 -0.3088,0.044 -0.3089,0.044 -0.6177,0 -0.3089,0.044 -0.3088,0.044 -0.2648,0.089 -0.2647,0.088 -0.2207,0 -0.2206,0.044 -0.4412,0.088 -0.3971,0.133 -0.2206,0.044 -0.2207,0 -0.5736,0.132 -0.5736,0.044 -1.1031,0.133 -0.5294,0.088 -0.5295,0.088 -0.5736,0.088 -0.5295,0.133 -0.2206,0 -0.2648,0 -0.3971,0.088 -0.2206,0.088 -0.2206,0.044 -0.2206,0 -0.2207,0 -0.2206,0.089 -0.2206,0.088 -0.2206,0.088 -0.2648,0.044 -0.4412,0.088 -0.4854,0.089 -1.0148,0.132 -0.4854,0.044 -0.4412,0.133 -1.6767,0.176 -1.6326,0.088 -1.6325,0.133 -0.8384,0.088 -0.7942,0.088 -0.1324,0.089 -0.1324,0.044 -0.3088,0.088 -0.353,0 -0.3089,0.044 -0.4412,0.044 -0.4854,0.044 -0.4412,0.088 -0.4854,0 -1.0148,0.265 -0.5295,0.133 -0.3089,0.044 -0.2647,0.044 -0.1324,0.088 -0.1765,0.044 -0.3088,0.044 -0.1765,0 -0.1765,0.045 -0.1765,0.044 -0.1324,0.088 -0.353,0.044 -0.353,0.088 -0.6618,0.177 -0.353,0.044 -0.353,0.088 -0.353,0.044 -0.353,0 -0.3971,0.221 -0.3971,0.132 -0.4412,0.133 -0.4413,0.132 -0.8825,0.176 -0.3971,0.089 -0.4412,0.132 0.1324,-0.75 0.2206,-0.75 0.1765,-0.794 0.2206,-0.75 4.4124,-0.662 0.0441,-0.045 0.0882,-0.088 0.0442,-0.132 0,-0.177 0,-0.044 -0.0442,-0.088 -0.353,-0.838 -0.3529,-0.839 -0.3972,-0.838 -0.3971,-0.794 -0.8824,0.088 -0.8825,0.088 -1.765,0.265 -1.7208,0.221 -1.7649,0.264 0.8824,-3.221 5.5155,-0.75 0.2206,-0.265 -0.0441,-0.75 0,-0.706 0.0441,-0.706 0.0883,-0.705 0.0882,-0.706 0.1765,-0.662 0.1765,-0.662 0.2206,-0.662 0.2206,-0.662 0.3089,-0.618 0.3089,-0.662 0.3088,-0.617 0.353,-0.574 0.3971,-0.618 0.3971,-0.573 0.4413,-0.53 0.4412,-0.573 0.4854,-0.53 0.4853,-0.529 0.4854,-0.486 0.5295,-0.485 0.5295,-0.485 0.5295,-0.442 0.5736,-0.441 0.5736,-0.441 0.5736,-0.397 1.1472,-0.75 0.6177,-0.353 0.5736,-0.353 0.6178,-0.309 0.6177,-0.309 1.1031,-0.529 1.1031,-0.486 1.1913,-0.441 1.1913,-0.441 1.1914,-0.397 1.2354,-0.353 1.2355,-0.309 1.2796,-0.309 1.2796,-0.265 1.2796,-0.221 1.3237,-0.176 1.3237,-0.176 1.3237,-0.133 0.6618,-0.088 0.6619,-0.044 1.3232,-0.044 1.368,-0.044 1.324,-0.045 1.368,0.045 1.324,0.044 1.323,0.044 1.368,0.132 1.324,0.133 1.279,0.132 1.324,0.176 1.324,0.221 1.279,0.265 1.236,0.265 0.662,0.132 0.618,0.132 1.235,0.309 1.191,0.353 1.192,0.397 1.191,0.397 z"
           inkscape:connector-curvature="0"
           style="fill:#ffffff" />
        <path
           id="path4658"
           d="m 142.108,121.982 -0.044,-0.044 -0.088,-0.044 0,-0.045 -0.044,0 0,-0.044 0.044,-0.044 1.5,-1.324 0,0.397 -1.368,1.148 z"
           inkscape:connector-curvature="0"
           style="fill:#ffffff" />
        <path
           id="path4660"
           d="m 72.6574,122.82 -4.28,-1.015 0.0441,-0.838 4.28,1.059 -0.0441,0.794 z"
           inkscape:connector-curvature="0"
           style="fill:#ffffff" />
        <path
           id="path4662"
           d="m 67.5832,121.849 -0.6178,0.442 -0.6177,0.485 -0.6619,0.397 -0.6177,0.441 0,-0.573 2.4709,-1.721 0.0442,0.529 z"
           inkscape:connector-curvature="0"
           style="fill:#ffffff" />
        <path
           id="path4664"
           d="m 135.578,122.776 0,0.176 -0.044,0.221 -0.045,0.221 0,0.22 -4.191,-1.147 0.088,-0.75 1.059,0.221 1.059,0.264 2.074,0.574 z"
           inkscape:connector-curvature="0"
           style="fill:#ffffff" />
        <path
           id="path4666"
           d="m 121.767,125.865 0,0.838 -1.191,-0.485 -1.192,-0.397 -1.191,-0.398 -1.235,-0.353 -1.28,-0.308 -1.235,-0.309 -1.324,-0.221 -1.28,-0.265 -1.323,-0.176 -1.324,-0.177 -1.368,-0.132 -1.324,-0.088 -1.368,-0.044 -1.323,0 -1.368,0 -0.662,0 -0.706,0.044 -1.3237,0.088 -1.3678,0.132 -1.3238,0.133 -1.3237,0.22 -1.2796,0.221 -1.3237,0.309 -1.2795,0.309 -1.2355,0.353 -1.2355,0.397 -1.2354,0.441 -1.1914,0.529 -0.5736,0.221 -0.5736,0.309 -1.1472,0.574 -1.1031,0.617 -0.5295,0.309 -0.5295,0.353 -1.0589,0.706 -0.5736,0.397 -0.5295,0.486 -0.5736,0.485 -0.5295,0.485 -0.4854,0.53 -0.4853,0.573 -0.9266,1.103 0.3971,-0.661 0.4853,-0.574 0.4413,-0.618 0.4853,-0.529 0.4854,-0.53 0.5295,-0.529 0.5295,-0.485 0.5295,-0.486 0.5294,-0.441 0.5736,-0.441 0.5737,-0.397 0.5736,-0.398 0.6177,-0.353 0.6177,-0.353 0.6178,-0.353 0.6177,-0.308 0.6177,-0.309 0.6619,-0.265 0.6177,-0.265 0.6619,-0.265 0.6618,-0.264 0.6619,-0.221 1.3678,-0.397 0.706,-0.177 0.6618,-0.176 1.3679,-0.353 1.4119,-0.265 1.3679,-0.264 1.6325,-0.221 1.6326,-0.132 1.6331,-0.089 0.794,-0.044 0.838,-0.044 1.633,0.044 1.588,0.044 0.838,0.044 0.795,0.045 1.588,0.176 1.589,0.177 1.544,0.264 1.588,0.309 1.501,0.353 1.5,0.441 1.5,0.442 0.706,0.22 0.75,0.265 1.412,0.574 z"
           inkscape:connector-curvature="0"
           style="fill:#ffffff" />
        <path
           id="path4668"
           d="m 143.917,125.644 -0.529,-0.088 -0.53,-0.088 -0.529,-0.133 -0.53,-0.132 -1.103,-0.309 -0.53,-0.132 -0.529,-0.089 0.088,-0.794 4.28,1.015 -0.088,0.75 z"
           inkscape:connector-curvature="0"
           style="fill:#ffffff" />
        <path
           id="path4670"
           d="m 136.725,126.35 0.044,-0.485 2.03,-1.589 -0.044,0.486 -2.03,1.588 z"
           inkscape:connector-curvature="0"
           style="fill:#ffffff" />
        <path
           id="path4672"
           d="m 59.8174,130.806 -2.2062,1.765 0,0.353 1.9856,1.986 -3.8388,-0.927 -0.3971,0.221 -0.3971,0.221 -0.3971,0.264 -0.353,0.265 -0.7501,0.574 -0.7942,0.529 0,-0.309 0,-0.353 0.0441,-0.662 0.0441,-0.705 -0.0441,-0.707 -0.2206,-0.22 -3.3093,-0.927 3.4858,-0.441 0.2206,-0.221 0.353,-2.603 2.6915,2.383 3.8829,-0.486 z"
           inkscape:connector-curvature="0"
           style="fill:#ffffff" />
        <path
           id="path4674"
           d="m 164.699,144.794 -0.176,-0.795 -0.221,-0.794 -0.265,-0.75 -0.264,-0.75 -0.265,-0.75 -0.309,-0.75 -0.309,-0.75 -0.353,-0.706 -0.397,-0.706 -0.353,-0.706 -0.397,-0.706 -0.441,-0.706 -0.397,-0.662 -0.486,-0.706 -0.441,-0.662 -0.485,-0.662 0,-0.22 0,-0.133 -0.044,-0.088 -0.044,-0.088 -0.045,-0.088 -0.088,-0.089 -0.088,-0.044 -0.309,0 -1.5,-1.853 -0.044,-1.589 0.75,0.883 0.706,0.882 0.706,0.883 0.662,0.927 0.573,0.926 0.309,0.441 0.309,0.486 0.529,0.97 0.486,0.971 0.485,0.971 0.441,1.015 0.398,1.015 0.352,1.059 0.309,1.059 0.133,0.529 0.132,0.53 0.265,1.102 0.088,0.53 0.088,0.574 z"
           inkscape:connector-curvature="0"
           style="fill:#ffffff" />
        <path
           id="path4676"
           d="m 60.7881,131.733 -0.9266,0.662 -0.4412,0.353 -0.4413,0.353 -0.3529,-0.309 2.162,-1.677 0,0.618 z"
           inkscape:connector-curvature="0"
           style="fill:#ffffff" />
        <path
           id="path4678"
           d="m 157.463,133.454 -1.897,1.765 0,0.353 2.118,1.897 -3.663,-0.882 -0.353,0.22 -0.308,0.265 -0.662,0.485 -0.662,0.574 -0.662,0.529 -0.353,-2.735 -0.265,-0.177 -3.265,-0.882 3.133,-0.485 0.265,-0.353 -0.089,-2.339 2.78,2.25 3.883,-0.485 z"
           inkscape:connector-curvature="0"
           style="fill:#ffffff" />
        <path
           id="path4680"
           d="m 46.7568,132.571 -0.0441,0.265 0.0441,-0.265 z"
           inkscape:connector-curvature="0"
           style="fill:#ffffff" />
        <path
           id="path4682"
           d="m 51.8751,134.645 -4.2358,-1.147 0,-0.882 4.28,1.235 -0.0442,0.794 z"
           inkscape:connector-curvature="0"
           style="fill:#ffffff" />
        <path
           id="path4684"
           d="m 156.801,135.483 -0.044,0.045 -0.088,-0.045 -0.088,-0.088 1.5,-1.412 0,0.221 -0.044,0.132 -0.089,0.089 -0.132,0.176 -0.176,0.177 -0.442,0.353 -0.22,0.176 -0.177,0.176 z"
           inkscape:connector-curvature="0"
           style="fill:#ffffff" />
        <path
           id="path4686"
           d="m 60.479,136.85 -4.3241,-1.059 0,-0.882 4.3241,1.059 0,0.882 z"
           inkscape:connector-curvature="0"
           style="fill:#ffffff" />
        <path
           id="path4688"
           d="m 55.2727,135.837 -1.3238,0.926 -1.3237,0.971 -0.0441,-0.574 2.6474,-1.941 0.0442,0.618 z"
           inkscape:connector-curvature="0"
           style="fill:#ffffff" />
        <path
           id="path4690"
           d="m 150.138,136.41 0,0.397 0,0.221 -0.044,0.221 -4.28,-1.148 -0.044,-0.088 -0.044,-0.088 0.044,-0.221 0.044,-0.221 0.044,-0.176 4.28,1.103 z"
           inkscape:connector-curvature="0"
           style="fill:#ffffff" />
        <path
           id="path4692"
           d="m 158.743,138.572 0,0.221 0,0.176 -0.089,0.442 -0.573,-0.133 -0.53,-0.088 -1.059,-0.309 -1.103,-0.265 -0.529,-0.132 -0.53,-0.088 0,-0.441 0.044,-0.221 0.044,-0.221 4.325,1.059 z"
           inkscape:connector-curvature="0"
           style="fill:#ffffff" />
        <path
           id="path4694"
           d="m 119.91,138.7 -21.665,3.044 -21.665,3.045 -0.3089,-0.751 0.2206,-0.088 21.621,-3.044 21.62,-3.045 0.265,0 -0.088,0.839 z"
           inkscape:connector-curvature="0"
           style="fill:#ffffff" />
        <path
           id="path4696"
           d="m 153.492,138.043 -0.044,0.088 0,0.088 0,0.221 -2.074,1.677 0,-0.398 1.059,-0.882 0.221,-0.221 0.264,-0.176 0.309,-0.221 0.265,-0.176 z"
           inkscape:connector-curvature="0"
           style="fill:#ffffff" />
        <path
           id="path4698"
           d="m 119.252,145.014 0,0.177 -0.044,0.22 0,0.221 0,0.177 -18.929,2.823 -18.9293,2.824 -0.706,-0.75 0.4854,-0.088 18.9729,-2.824 19.018,-2.78 0.132,0 z"
           inkscape:connector-curvature="0"
           style="fill:#ffffff" />
        <path
           id="path4700"
           d="m 69.304,145.809 -1.6326,0.264 -1.6326,0.221 -3.3092,0.485 0.0882,-0.882 0.7942,-0.133 0.8384,-0.132 1.6325,-0.176 1.6326,-0.221 0.8384,-0.133 0.7942,-0.132 -0.0441,0.839 z"
           inkscape:connector-curvature="0"
           style="fill:#ffffff" />
        <path
           id="path4702"
           d="m 60.1263,147.706 -2.2945,1.897 0,0.353 2.0297,2.118 -3.9711,-0.971 -0.4412,0.265 -0.3972,0.265 -0.7942,0.573 -0.7942,0.574 -0.7942,0.574 0.1323,-2.913 -0.3088,-0.264 -1.7209,-0.441 -0.8824,-0.265 -0.8384,-0.265 0.4854,-0.044 0.4853,-0.044 0.9266,-0.177 0.9708,-0.176 0.9266,-0.221 0.0882,-0.088 0.3089,-2.736 2.7798,2.471 4.1035,-0.485 z"
           inkscape:connector-curvature="0"
           style="fill:#ffffff" />
        <path
           id="path4704"
           d="m 65.2887,147.309 0.0441,-0.089 0.0883,0 -0.1324,0.089 z"
           inkscape:connector-curvature="0"
           style="fill:#ffffff" />
        <path
           id="path4706"
           d="m 61.0529,148.544 -0.4413,0.441 -0.5295,0.353 -0.4853,0.398 -0.4854,0.397 -0.3089,-0.353 2.3386,-1.81 -0.0882,0.574 z"
           inkscape:connector-curvature="0"
           style="fill:#ffffff" />
        <path
           id="path4708"
           d="m 156.934,150.794 1.985,-0.264 0.971,-0.133 0.971,-0.176 0.044,0.088 -1.942,1.765 0,0.485 2.206,2.03 -3.927,-0.927 -2.603,2.163 -0.088,-0.353 -0.044,-0.353 -0.089,-0.75 -0.088,-0.751 -0.044,-0.353 -0.088,-0.353 -0.883,-0.308 -0.926,-0.309 -1.853,-0.486 0.794,-0.132 0.838,-0.132 0.839,-0.177 0.838,-0.088 0.265,-0.353 -0.177,-2.515 0.088,0 2.913,2.382 z"
           inkscape:connector-curvature="0"
           style="fill:#ffffff" />
        <path
           id="path4710"
           d="m 51.9193,151.765 -4.1918,-1.191 -0.0882,-0.221 -0.0883,-0.22 -0.0882,-0.133 0,-0.088 0,-0.132 0.0441,-0.044 0,-0.089 4.4124,1.236 0,0.882 z"
           inkscape:connector-curvature="0"
           style="fill:#ffffff" />
        <path
           id="path4712"
           d="m 160.066,152.471 -0.132,-0.132 1.588,-1.5 -0.088,0.22 -0.132,0.221 -0.177,0.22 -0.176,0.177 -0.486,0.397 -0.22,0.176 -0.177,0.221 z"
           inkscape:connector-curvature="0"
           style="fill:#ffffff" />
        <path
           id="path4714"
           d="m 73.1427,152.559 -7.2362,1.103 0,-0.794 3.6181,-0.618 1.8532,-0.264 0.8825,-0.133 0.9266,-0.088 -0.0442,0.794 z"
           inkscape:connector-curvature="0"
           style="fill:#ffffff" />
        <path
           id="path4716"
           d="m 60.744,154.016 -4.5006,-1.104 0,-0.882 4.5006,1.147 0,0.839 z"
           inkscape:connector-curvature="0"
           style="fill:#ffffff" />
        <path
           id="path4718"
           d="m 153.36,153.442 0,0.088 0.044,0.088 0,0.133 -0.044,0.132 -0.045,0.221 -0.088,0.176 -4.368,-1.235 -0.044,-0.177 0.044,-0.22 0.088,-0.398 4.413,1.192 z"
           inkscape:connector-curvature="0"
           style="fill:#ffffff" />
        <path
           id="path4720"
           d="m 99.661,165.179 1.191,0.22 1.192,0.177 1.235,0.176 1.192,0.133 1.235,0.132 1.191,0.088 1.236,0.044 1.235,0.089 1.192,0 1.235,0 1.191,-0.044 1.236,-0.045 1.191,-0.044 1.236,-0.132 1.191,-0.132 1.191,-0.133 1.192,-0.176 1.147,-0.221 1.191,-0.221 1.147,-0.264 1.148,-0.309 1.147,-0.309 1.103,-0.353 1.103,-0.397 1.103,-0.397 1.103,-0.441 1.059,-0.442 0.53,-0.264 0.529,-0.221 1.015,-0.529 1.015,-0.574 1.015,-0.574 0.97,-0.617 0.53,-0.398 0.529,-0.397 1.059,-0.882 1.059,-0.927 0.971,-0.97 0,0.176 -0.309,0.353 -0.309,0.353 -0.662,0.662 -0.661,0.618 -0.706,0.617 -0.706,0.574 -0.706,0.573 -0.706,0.53 -0.75,0.485 -0.751,0.486 -0.75,0.441 -0.75,0.441 -0.794,0.442 -0.794,0.353 -0.794,0.397 -0.795,0.308 -0.794,0.353 -0.838,0.309 -0.839,0.265 -0.838,0.265 -0.838,0.264 -0.839,0.221 -0.838,0.221 -0.882,0.176 -0.883,0.221 -1.765,0.309 -1.765,0.265 -0.882,0.132 -0.883,0.132 -1.809,0.177 -1.191,0.044 -1.192,0.044 -1.191,0.044 -1.147,0 -1.191,-0.044 -1.148,-0.044 -1.147,-0.044 -1.147,-0.088 -1.103,-0.089 -1.147,-0.132 -2.251,-0.309 -1.103,-0.177 -1.1028,-0.176 -1.059,-0.221 -1.1031,-0.264 -1.0589,-0.265 -1.059,-0.265 -1.059,-0.309 -0.5295,-0.176 -0.5294,-0.177 -1.059,-0.353 -1.0149,-0.353 -1.0148,-0.397 -1.0148,-0.397 -1.0149,-0.441 -1.0148,-0.441 -0.9707,-0.486 -0.9708,-0.485 -0.9707,-0.53 -0.9707,-0.529 -0.4854,-0.265 -0.4853,-0.265 -0.9266,-0.617 -0.8825,-0.574 -0.9266,-0.662 -0.3971,-0.353 -0.4412,-0.353 -0.8825,-0.75 -0.8384,-0.75 -0.3971,-0.397 -0.3971,-0.397 -0.7942,-0.794 -0.7501,-0.839 0.0441,-0.573 0.6619,0.706 0.7059,0.661 0.706,0.662 0.706,0.618 0.706,0.618 0.7059,0.573 0.7502,0.574 0.7501,0.53 0.7501,0.529 0.7501,0.485 0.7501,0.486 0.7942,0.485 0.7942,0.441 0.7942,0.397 0.7943,0.398 0.7942,0.397 0.8383,0.397 0.7943,0.353 1.6767,0.662 0.8383,0.309 0.8384,0.308 0.8383,0.265 0.8825,0.265 1.7208,0.529 1.7208,0.442 1.765,0.441 1.809,0.353 z"
           inkscape:connector-curvature="0"
           style="fill:#ffffff" />
        <path
           id="path4722"
           d="m 55.405,153.001 -0.353,0.22 -0.353,0.265 -0.7059,0.53 -0.6619,0.529 -0.706,0.485 0,-0.661 2.7798,-2.03 0,0.662 z"
           inkscape:connector-curvature="0"
           style="fill:#ffffff" />
        <path
           id="path4724"
           d="m 140.828,154.457 -0.529,0.617 -0.574,0.574 -0.573,0.53 -0.574,0.529 -0.573,0.53 -0.574,0.485 -0.618,0.441 -0.618,0.441 -0.617,0.442 -0.618,0.397 -0.662,0.397 -0.618,0.397 -0.661,0.353 -0.662,0.309 -0.662,0.353 -0.662,0.309 -1.368,0.573 -0.706,0.221 -0.706,0.265 -0.706,0.22 -0.706,0.265 -0.706,0.176 -0.706,0.221 -1.456,0.353 -1.456,0.353 -1.5,0.265 -1.5,0.265 1.765,-0.839 0.882,-0.441 0.883,-0.485 0.882,-0.442 0.838,-0.529 0.883,-0.53 0.794,-0.573 0.221,-0.133 0.22,-0.088 0.442,-0.22 0.485,-0.177 0.441,-0.132 0.927,-0.309 0.485,-0.177 0.441,-0.22 0.309,-0.089 0.353,-0.132 0.309,-0.132 0.309,-0.177 0.618,-0.353 0.617,-0.353 1.192,-0.794 0.617,-0.397 0.574,-0.397 0.221,-0.044 0.176,-0.089 0.353,-0.132 0.397,-0.221 0.353,-0.22 0.662,-0.441 0.353,-0.265 0.353,-0.177 0.618,-0.441 0.265,-0.22 0.309,-0.221 0.529,-0.486 0.529,-0.485 0.177,0.309 0.176,0.309 0.353,0.662 z"
           inkscape:connector-curvature="0"
           style="fill:#ffffff" />
        <path
           id="path4726"
           d="m 162.273,155.692 -0.177,0.838 -0.529,-0.132 -0.574,-0.176 -1.147,-0.265 -1.103,-0.221 -1.148,-0.309 0,-0.176 0.045,-0.221 0.088,-0.441 4.545,1.103 z"
           inkscape:connector-curvature="0"
           style="fill:#ffffff" />
        <path
           id="path4728"
           d="m 154.639,157.281 0.044,-0.442 2.074,-1.72 0,0.308 -2.118,1.854 z"
           inkscape:connector-curvature="0"
           style="fill:#ffffff" />
        <path
           id="path4730"
           d="m 79.1435,179.431 1.1473,0.397 1.1031,0.353 1.103,0.353 1.1473,0.309 2.2944,0.573 2.2944,0.574 -0.1324,0.265 -0.1764,0.264 -0.1324,0.221 -0.1765,0.221 -0.2206,0.22 -0.1765,0.177 -0.2648,0.176 -0.2206,0.177 -0.2206,0.176 -0.2647,0.133 -0.5295,0.264 -0.4854,0.177 -0.5295,0.176 -0.8383,-0.044 -0.8384,0 -0.7942,0.088 -0.7501,0.133 -0.3971,0.044 -0.353,0.044 -0.3971,0.088 -0.353,0.133 -1.4561,0.441 -0.1765,0.132 -0.2206,0.089 -0.353,0.176 -0.3971,0.176 -0.1765,0.089 -0.2206,0.088 -2.1621,-0.838 -1.1031,-0.442 -1.1031,-0.441 -1.0589,-0.485 -1.1031,-0.486 -1.059,-0.485 -1.1031,-0.529 -1.0589,-0.574 -1.059,-0.529 -1.059,-0.574 -1.0589,-0.618 -1.059,-0.618 -1.0149,-0.617 -1.0148,-0.662 -1.0148,-0.662 -1.0149,-0.706 -0.9707,-0.706 -0.9707,-0.75 -0.9707,-0.75 -0.9266,-0.794 -0.9266,-0.795 -0.9266,-0.838 -0.8825,-0.838 -0.8825,-0.883 -0.8383,-0.882 -0.8384,-0.927 -0.7942,-0.971 -0.7942,-0.97 -0.7501,-1.015 -0.7501,-1.015 -0.706,-1.059 0.0882,-3.486 0.0442,-1.765 0.0882,-1.676 0.7942,1.059 0.7943,1.059 0.8383,1.014 0.8825,1.015 0.8825,0.971 0.8824,0.927 0.9266,0.926 0.9266,0.883 0.9707,0.838 0.9708,0.838 0.9707,0.839 1.0148,0.75 1.0149,0.794 1.0148,0.706 1.059,0.706 1.0148,0.706 1.1031,0.662 1.059,0.662 1.1031,0.617 1.1031,0.618 2.2061,1.147 1.1031,0.574 1.1473,0.529 1.103,0.53 1.1473,0.485 1.1472,0.486 1.1472,0.441 1.1472,0.485 1.1472,0.442 2.2944,0.794 z"
           inkscape:connector-curvature="0"
           style="fill:#ffffff" />
        <path
           id="path4732"
           d="m 70.5394,163.414 1.1031,-0.088 1.059,-0.133 2.2062,-0.309 -2.4709,2.118 0.0882,0.309 2.1621,2.25 -4.2359,-1.014 -1.5443,1.147 -0.7943,0.573 -0.7501,0.618 0,-3.044 -0.353,-0.265 -1.7649,-0.486 -1.8091,-0.485 3.8388,-0.662 0.1765,-0.22 0.2647,-2.913 2.8239,2.604 z"
           inkscape:connector-curvature="0"
           style="fill:#ffffff" />
        <path
           id="path4734"
           d="m 145.947,164.87 0.529,0 0.53,-0.044 0.529,-0.088 0.53,-0.089 1.059,-0.132 0.529,-0.088 0.53,-0.044 -2.118,2.029 0,0.309 2.382,2.206 -4.059,-0.97 -0.706,0.529 -0.706,0.574 -0.706,0.617 -0.706,0.618 -0.309,-3 -0.264,-0.265 -1.81,-0.485 -1.809,-0.486 3.486,-0.662 0.221,-0.22 -0.088,-2.78 2.956,2.471 z"
           inkscape:connector-curvature="0"
           style="fill:#ffffff" />
        <path
           id="path4736"
           d="m 75.746,163.723 -0.4853,0.485 -0.5295,0.397 -1.059,0.794 -0.1765,-0.22 0.5295,-0.486 0.5736,-0.529 0.5736,-0.441 0.5736,-0.486 0,0.486 z"
           inkscape:connector-curvature="0"
           style="fill:#ffffff" />
        <path
           id="path4738"
           d="m 149.212,166.723 -0.088,-0.088 -0.044,-0.088 0.044,-0.044 1.676,-1.589 0,0.353 -1.588,1.456 z"
           inkscape:connector-curvature="0"
           style="fill:#ffffff" />
        <path
           id="path4740"
           d="m 66.4801,166.282 0,0.882 -4.5448,-1.279 0,-0.839 1.1472,0.265 1.1473,0.309 2.2503,0.662 z"
           inkscape:connector-curvature="0"
           style="fill:#ffffff" />
        <path
           id="path4742"
           d="m 142.285,168.576 -1.192,-0.309 -1.147,-0.308 -2.25,-0.662 0.132,-0.839 4.545,1.28 -0.088,0.838 z"
           inkscape:connector-curvature="0"
           style="fill:#ffffff" />
        <path
           id="path4744"
           d="m 66.3918,169.679 -1.1913,-0.706 -1.1472,-0.706 -1.1473,-0.794 -1.103,-0.75 4.6329,1.28 -0.0441,1.676 z"
           inkscape:connector-curvature="0"
           style="fill:#ffffff" />
        <path
           id="path4746"
           d="m 75.5254,168.62 0,0.839 -0.5736,-0.089 -0.5736,-0.132 -1.1472,-0.309 -1.1914,-0.309 -0.5736,-0.176 -0.6177,-0.132 0.0882,-0.839 2.2945,0.574 2.2944,0.573 z"
           inkscape:connector-curvature="0"
           style="fill:#ffffff" />
        <path
           id="path4748"
           d="m 67.539,170.341 -0.0441,-0.044 -0.0882,-0.044 -0.0883,-0.044 -0.0441,-0.044 -0.0441,0 0,-0.088 0.0441,-0.045 0,-0.132 2.7357,-2.074 0,0.618 -2.471,1.897 z"
           inkscape:connector-curvature="0"
           style="fill:#ffffff" />
        <path
           id="path4750"
           d="m 151.374,170.032 0.044,0.089 0.044,0.044 0,0.132 -0.088,0.088 -0.088,0.089 -0.265,0.132 -0.088,0.088 -0.044,0.044 -0.044,0.045 -4.148,-1.059 0.088,-0.839 4.589,1.147 z"
           inkscape:connector-curvature="0"
           style="fill:#ffffff" />
        <path
           id="path4752"
           d="m 143.56,171.75 0,-0.397 2.206,-1.941 0,0.441 -2.206,1.897 z"
           inkscape:connector-curvature="0"
           style="fill:#ffffff" />
        <path
           id="path4754"
           d="m 95.381,172.636 1.059,-0.133 1.1031,-0.132 1.1031,-0.177 1.1031,-0.132 -1.1914,1.059 -0.6177,0.529 -0.5736,0.53 0.0441,0.441 2.2945,2.251 -0.5736,-0.133 -0.5295,-0.132 -1.1031,-0.309 -0.5736,-0.132 -0.5295,-0.089 -0.5736,-0.088 -0.5736,-0.044 -0.353,0.309 -0.353,0.265 -0.706,0.573 -0.7501,0.574 -0.353,0.264 -0.353,0.309 -0.0441,-0.397 0,-0.397 0,-0.838 0,-0.397 -0.0441,-0.442 -0.0441,-0.397 -0.0442,-0.176 -0.0441,-0.177 -0.9707,-0.353 -0.9707,-0.264 -0.9707,-0.309 -0.9708,-0.265 3.8388,-0.662 0.2206,-0.265 0.0883,-2.912 2.9562,2.648 z"
           inkscape:connector-curvature="0"
           style="fill:#ffffff" />
        <path
           id="path4756"
           d="m 123.532,173.606 2.162,-0.264 1.103,-0.133 1.059,-0.176 -2.206,2.074 0,0.441 2.294,2.25 -4.103,-1.015 -0.353,0.265 -0.397,0.309 -0.75,0.618 -0.75,0.617 -0.751,0.618 -0.22,-3.133 -0.221,-0.22 -1.897,-0.53 -0.971,-0.264 -0.926,-0.265 1.897,-0.353 0.971,-0.133 0.926,-0.22 0.132,-0.177 0,-2.912 3.001,2.603 z"
           inkscape:connector-curvature="0"
           style="fill:#ffffff" />
        <path
           id="path4758"
           d="m 100.499,172.945 -0.441,0.441 -0.4852,0.397 -1.0149,0.838 -0.1323,-0.132 -0.0441,-0.044 0,-0.044 0.0441,-0.044 2.0734,-1.898 0,0.486 z"
           inkscape:connector-curvature="0"
           style="fill:#ffffff" />
        <path
           id="path4760"
           d="m 126.8,175.55 -0.176,-0.177 1.897,-1.853 0,0.441 -1.721,1.589 z"
           inkscape:connector-curvature="0"
           style="fill:#ffffff" />
        <path
           id="path4762"
           d="m 91.4099,175.548 -0.0441,0.882 -1.1913,-0.309 -1.1473,-0.308 -1.1472,-0.309 -1.1472,-0.353 0,-0.221 0,-0.221 0.0441,-0.264 0.0442,-0.221 2.2944,0.662 1.1472,0.353 1.1472,0.309 z"
           inkscape:connector-curvature="0"
           style="fill:#ffffff" />
        <path
           id="path4764"
           d="m 119.781,176.563 -0.044,0.397 -0.044,0.22 0,0.177 -0.618,-0.088 -0.573,-0.177 -1.147,-0.309 -1.148,-0.353 -0.573,-0.132 -0.574,-0.177 0.044,-0.838 0.574,0.132 0.618,0.133 1.147,0.353 1.191,0.353 1.147,0.309 z"
           inkscape:connector-curvature="0"
           style="fill:#ffffff" />
        <path
           id="path4766"
           d="m 100.588,177.93 0,0.839 -0.6181,-0.088 -0.5736,-0.133 -0.5736,-0.132 -0.6177,-0.177 -1.1473,-0.309 -0.6177,-0.132 -0.5736,-0.132 0,-0.883 4.7216,1.147 z"
           inkscape:connector-curvature="0"
           style="fill:#ffffff" />
        <path
           id="path4768"
           d="m 92.9542,179.387 -0.5736,-0.045 0.3089,-0.264 0.3089,-0.309 0.6618,-0.53 1.3237,-1.059 -0.0441,0.574 -1.9856,1.633 z"
           inkscape:connector-curvature="0"
           style="fill:#ffffff" />
        <path
           id="path4770"
           d="m 128.915,179.431 -0.706,0.176 -4.059,-0.97 0,-0.177 0,-0.221 0.044,-0.485 4.721,1.147 0,0.53 z"
           inkscape:connector-curvature="0"
           style="fill:#ffffff" />
        <path
           id="path4772"
           d="m 120.885,180.666 -0.045,-0.353 2.471,-2.118 -0.044,0.486 -2.382,1.985 z"
           inkscape:connector-curvature="0"
           style="fill:#ffffff" />
        <path
           id="path4774"
           d="m 126.135,180.004 -3.75,0.486 0.132,-0.089 0.133,-0.088 0.22,-0.22 0.221,-0.221 0.22,-0.221 0.133,-0.088 0.132,-0.088 0.088,-0.044 0.133,-0.044 0.132,0 0.177,0 0.132,0.044 0.176,0.088 1.721,0.485 z"
           inkscape:connector-curvature="0"
           style="fill:#ffffff" />
      </g>
    </g>
  </g>
</svg>
