<?xml version="1.0" encoding="UTF-8"?>
<svg width="460.28" height="317.69" fill-rule="evenodd" image-rendering="optimizeQuality" shape-rendering="geometricPrecision" text-rendering="geometricPrecision" viewBox="0 0 210 297" xmlns="http://www.w3.org/2000/svg">
 <g transform="matrix(3.0089 0 0 3.0089 -210.94 -298.33)">
  <path d="m148.991,117.216 1.103.706 1.103.75 1.059.751 1.104.794 1.014.838 1.059.839 1.015.838 .971.882 .971.927 .97.927 .442.485 .441.441 .926,1.015 .839.971 .838,1.014 .75,1.059 .794,1.059 .706,1.104 .662,1.103 .618,1.103 .574,1.147 .573,1.191 .221.574 .265.618 .441,1.191 .353,1.235 .176.618 .177.618 .132.618 .133.661 .22,1.28 .088.662 .089.618 .088,1.323 .044,1.368-.044,1.368-.088,1.368-.221,1.191-.221,1.191-.176,1.192-.177,1.191-.397,2.427-.397,2.383-.265,1.147-.264,1.191-.353,1.147-.177.574-.176.53-.177.573-.22.53-.221.573-.265.53-.529,1.059-.309.529-.309.486-.794,1.279-.838,1.191-.883,1.192-.485.529-.442.574-.97,1.059-.971,1.059-.485.485-.53.53-1.015.926-1.059.927-.529.441-.53.441-1.103.839-1.147.794-1.147.75-.574.397-.617.353-1.192.706-1.191.662-1.236.618-1.235.617-1.236.574-1.279.53-1.28.529-1.279.485-1.324.486-1.324.441-1.279.397-1.324.397-.706.177-.662.176-1.324.353-1.323.353-1.368.309-1.324.265-1.368.264-2.206.353-2.25.309-1.147.133-1.103.132-2.251.221-2.206.176-1.147.044-1.103.044-2.206.089h-2.251l-2.206-.044-2.206-.045-2.206-.132-1.103-.088-1.103-.088-2.1626-.221-2.162-.265-2.1621-.309-1.0589-.176-1.1031-.177-2.118-.397-2.1179-.485-1.059-.221-1.0148-.264-1.059-.265-1.0589-.309-1.0149-.265-1.0148-.309-2.0738-.617-2.0297-.706-1.9856-.75-1.0148-.353-.9708-.398-.9707-.397-.9707-.441-1.9414-.882-1.9415-.883-1.8532-.971-1.8973-1.014-1.8091-1.06-1.809-1.103-.9708-.617-.9707-.662-.9707-.706-.9707-.706-.9266-.75-.9266-.75-.9266-.75-.8825-.795-.8824-.794-.8384-.838-.8383-.839-.8384-.882-.7942-.882-.7942-.883-.706-.927-.7501-.97-.353-.441-.3089-.486-.6618-.971-.6178-1.015-.6177-.97-.5295-1.015-.5295-1.059-.4853-1.059-.4413-1.059-.2206-.529-.1765-.53-.353-1.103-.1765-.574-.1323-.529-.2648-1.147-.2647-1.103-.1324-1.148-.1324-1.191-.0882-1.147 .0441-1.191 .0441-1.236v-2.427l.0442-2.382v-1.236l.0441-1.191 .0882-1.192 .0883-1.191 .1324-1.147 .1765-1.147 .2206-1.103 .2647-1.104 .1765-.573 .1765-.53 .1765-.529 .2206-.53 .5736-1.323 .6178-1.28 .3529-.618 .353-.617 .353-.618 .353-.574 .7942-1.191 .3971-.574 .3972-.529 .4412-.574 .4412-.529 .8825-1.059 .9707-1.015 .9707-.971 1.0149-.97 .5295-.442 .5295-.441 1.0589-.882 1.1031-.839 1.1472-.838 1.1472-.75 1.1914-.75 1.1913-.706 1.1914-.706 1.2354-.618 1.2796-.618 1.2355-.617 1.2796-.53 1.2795-.529 1.3238-.53 1.2795-.485 1.2796-.442 1.3237-.397 1.2796-.397 1.3237-.397 1.2796-.353 1.2796-.309 2.3386-.485 1.1913-.265 1.1472-.176 1.1913-.221 1.1914-.176 2.3827-.353 2.3826-.265 2.3827-.221 2.3827-.132 2.3827-.132 2.3826-.045h2.3827l2.383.045 2.338.132 1.192.088 1.191.088 2.339.221 2.338.265 2.339.353 1.191.176 1.147.177 1.147.22 1.148.221 2.294.485 2.294.574 2.251.574 1.103.308 1.103.353 1.103.309 1.103.397 1.103.353 1.103.397 1.059.354 1.103.441 2.118.838 1.059.441 1.059.442 2.074.97 2.03,1.015 1.985,1.059 1.986,1.103 1.941,1.147z" fill="#040102"/>
  <path d="m151.595,120.57 1.059.75 1.014.838 1.015.794 .971.883 .971.838 .97.927 .883.882 .926.971 .839.927 .441.485 .397.485 .794,1.015 .398.486 .352.529 .751,1.015 .661,1.059 .662,1.059 .618,1.059 .265.573 .309.53 .485,1.147 .265.53 .22.573 .398,1.147 .22.618 .177.574 .132.573 .176.618 .133.574 .132.617 .088.618 .089.574 .088.618 .044.617 .088.618v.618l.044.661v.618l-.044.618v.662l-.044.618-.088.661-.088.618-.089.662-.132.662-.132.662-.133.662-.176.661-.221.706-.264.75-.265.707-.309.661-.309.706-.309.662-.706,1.324-.353.618-.397.617-.397.618-.397.618-.397.618-.441.573-.927,1.147-.485.53-.486.574-.485.529-.486.529-.529.486-.529.529-1.059.971-.574.485-.574.442-.573.441-.574.441-.573.441-.618.441-.618.442-.618.397-1.235.794-1.28.75-1.279.706-1.324.706-1.324.618-1.368.618-1.323.573-1.368.574-1.412.529-1.368.486-1.368.441-1.368.441-1.412.397-1.367.353-1.324.353-1.368.309-2.206.441-2.25.398-2.251.308-2.25.309-2.25.221-2.251.176-2.25.133-1.103.044-1.147.044-2.251.044h-1.103-1.147l-2.25-.088-1.103-.044-1.147-.089-2.207-.132-2.25-.221-2.2062-.264-2.2061-.309-1.1031-.177-1.1031-.22-2.1621-.397-2.162-.442-2.1621-.529-2.1179-.53-2.118-.617-1.0589-.309-1.059-.309-1.0149-.353-1.0589-.353-2.0297-.75-2.0297-.75-1.0148-.441-.9708-.398-1.0148-.441-.9707-.441-.9707-.485-.9708-.442-1.8973-.97-1.8973-1.015-.9266-.53-.9266-.529-1.1472-.706-1.1472-.75-1.1472-.75-1.1031-.839-1.1031-.794-.5736-.441-.5295-.441-1.1031-.883-1.059-.926-1.0148-.927-1.0149-.971-.9707-.971-.9266-1.014-.9266-1.059-.8824-1.059-.8384-1.103-.3971-.574-.3971-.53-.7501-1.147-.706-1.191-.6618-1.191-.5737-1.192-.5736-1.235-.2206-.618-.2647-.618-.2206-.617-.1765-.662-.3971-1.28-.3089-1.323-.2206-1.324-.0883-.662-.0882-.706-.0441-.662-.0442-.662v-.706-.706-.706l.0442-.706 .1323-1.412 .0883-.706 .1323-.706 .353-.309 .353-.264 .6619-.618 .3088-.353 .353-.309 .5736-.706 .6178-.706 .5294-.706 .5295-.75 .4854-.706-.3971.927-.2206.485-.1765.485-.1765.53-.1324.485-.3089,1.059-.2206,1.103-.2206,1.103-.0882.53-.0442.574-.0441.573-.0441.574-.0441.573v.53 1.147 .574l.0441.573 .0441.574 .0441.529 .1765,1.104 .2206,1.103 .2648,1.059 .1324.529 .1764.485 .2207.751 .2647.706 .3089.706 .2647.661 .3089.706 .353.662 .3088.706 .353.662 .3971.618 .353.662 .3971.617 .4413.662 .3971.618 .4412.618 .8825,1.191 .9707,1.147 .4854.574 .5295.573 1.0148,1.104 1.1031,1.059 1.1031,1.014 1.1472,1.015 1.1913.971 1.1914.927 1.2354.926 1.2355.838 1.2796.839 1.3237.838 1.3237.75 1.3237.75 1.3237.75 1.3679.662 1.3678.662 1.3237.618 1.3678.618 1.3679.573 1.3678.53 1.3237.485 1.3678.485 1.3238.442 2.1179.706 1.059.309 1.103.308 2.1621.574 1.1031.265 1.1472.264 2.2503.442 1.1472.22 1.1472.221 2.2945.353 2.3385.309 1.1471.132 1.192.133 2.338.22 2.383.133 2.382.132h2.383 1.191 1.192l2.382-.088 1.148-.044 1.191-.089 1.191-.088 1.192-.132 2.338-.265 1.192-.177 1.147-.132 2.338-.397 1.147-.221 1.148-.264 1.147-.265 1.103-.265 1.147-.265 1.103-.309 1.103-.352 1.104-.309 1.103-.353 1.059-.398 1.103-.397 1.059-.397 1.059-.441 1.015-.441 1.058-.441 1.015-.486 1.015-.485 .971-.53 .971-.529 .97-.574 .971-.573 .927-.574 .926-.618 .927-.617 .838-.618 .794-.662 .795-.662 .75-.662 .75-.662 .706-.705 .706-.751 .662-.706 .661-.75 .618-.794 .574-.75 .573-.794 .53-.839 .529-.794 .442-.838 .441-.883 .441-.838 .353-.882 .353-.883 .309-.927 .309-.882 .22-.927 .221-.97 .132-.927 .133-.971 .088-.97 .044-.971v-1.015l-.044-1.015-.088-1.015-.088-1.014-.089-.53-.088-.485-.176-.839-.221-.794-.221-.794-.264-.794-.265-.75-.265-.751-.309-.794-.353-.706-.353-.75-.353-.75-.397-.706-.397-.706-.397-.706-.441-.662-.442-.706-.485-.662-.485-.661-.486-.662-.485-.618-.529-.618-.574-.617-.53-.618-.573-.618-.574-.574-.573-.617-.618-.574-1.236-1.103-.617-.574-.662-.529-1.28-1.015-.706-.529-.662-.486-1.367-.97-1.412-.971-1.412-.883-.75-.441-.706-.397-1.456-.838-1.501-.795-1.5-.75-1.5-.706-1.5-.661-1.5-.618-.751-.309-.706-.309-1.5-.574-1.5-.529-1.456-.485-1.456-.442-1.986-.573-2.029-.574-2.03-.485-2.03-.486-2.074-.397-1.059-.22-1.059-.177-2.117-.309-2.118-.309-2.162-.22-2.162-.221-1.059-.088-1.104-.044-2.206-.088-2.206-.045h-1.1031-1.1031l-2.2503.045-1.1031.088-1.1472.044 .8825-.088 .9707-.089 .9266-.044 .4854-.044 .4853.044 .1324-.088 .1765-.044 .1765-.044h.1765l.353-.044 .1765-.044 .1765-.044 .3971-.045 .353-.044 .3971-.088 .3971-.088 1.5441-.486 .309-.132 1.721.088 1.721.133 1.676.132 1.677.132 1.721.177 1.677.221 1.632.22 1.677.265 1.633.265 1.632.308 1.633.309 1.588.353 1.633.397 1.588.398 1.545.441 .794.22 .794.221 1.544.485 1.545.53 1.544.529 1.5.574 1.544.618 1.501.617 1.456.662 1.5.706 1.456.706 1.456.75 1.412.75 1.412.839 1.412.838 1.412.883 1.368.882 1.368.971z" fill="#fff"/>
  <path d="m114.266,108.215-.088.177-.044.176-.044.177v.176l-.045.397-.044.397-1.456-.22-1.5-.177-.794-.088-.75-.088-1.545-.133-1.544-.132-.75-.044-.794-.088-1.589-.044-1.544-.089-1.589-.044h-1.5881l-1.5884.044-1.5885.044-1.5443.045-1.5884.088-1.5444.132-1.5002.133-1.5884-1.28-.1324.044h-.1324l-.0882.088-.0441.044h-.0442l-.0441.089-.0441.132v.088 .133 .22 .265 .265l-.0441.176-1.3679.221-1.3678.221-1.3237.22-1.3237.221-1.3237.309-1.3237.264-1.2796.309-1.3237.353-.6178.177-.6618.176-1.2796.397-1.2355.397-1.2795.442-1.2355.441-1.2355.485-1.2354.486-1.1914.529-1.0148-.926 1.3237-.618 1.3678-.574 1.412-.574 1.4119-.529 1.412-.53 1.4561-.441 1.4561-.485 1.456-.397 1.5002-.397 1.4561-.353 1.5444-.353 1.5002-.309 1.5443-.265 1.5443-.221 1.5443-.22 1.5444-.221 1.5884-.132 .7942-.088 .7943-.089 1.5443-.088 1.5885-.088 1.5884-.044 1.5885-.044h1.5884l1.6331.044 3.176.132 1.589.133 1.588.132 1.589.132 1.588.221 1.544.176 1.589.265z" fill="#fff"/>
  <path d="m135.578,114.26v.132 .089l-.133.22-.176.177-.177.132-.308.088-.265.045-.221.044h-.265l-.264-.044-.221-.089-.485-.132-.927-.441-.485-.177-.221-.088-.265-.044-2.029-.706-2.03-.662-2.03-.618-1.059-.309-1.015-.264-.044-.089v-.088-.176l.089-.442v-.176-.088l-.045-.089-.044-.088-.044-.088-.132-.044-.088-.044h-.353l-.353.044-.662.088-1.368.221-.706.088h-.662l-.353-.044-.309-.044-.353-.133-.309-.088-2.382-2.03 1.323.221 1.368.265 1.324.265 1.324.308 1.323.309 1.324.309 1.28.353 1.323.353 1.28.397 1.28.397 1.279.442 1.28.397 1.235.485 1.236.441 1.279.53 1.236.485z" fill="#fff"/>
  <path d="m94.2338,110.863-.5295.397-.5294.397-.4854.397-.2647.22-.2207.221 .0883.309 1.8973,1.765-3.7064-.838-.706.441-.6618.485-.706.486-.3089.22-.3971.221v-2.383l-.3088-.353-3.0004-.794 3.1327-.441 .1765-.221 .1765-2.338 2.6474,2.161 3.7064-.352z" fill="#fff"/>
  <path d="m121.282,111.215-.265.221-.221.221-.529.353-.221.176-.265.221-.22.221-.177.22 .044.353 1.898,1.677-3.486-.838-.309.132-2.383,1.765-.22-2.471-.221-.221-3.044-.838 3-.397 .221-.221 .044-2.338 2.691,2.162 3.663-.398z" fill="#fff"/>
  <path d="m93.572,112.848h-.0883l-.0441-.088-.0441-.044-.0883-.088 .2207-.177 .1764-.177 .4854-.352 .4412-.353 .2648-.177 .2206-.221v.574l-1.5443,1.103z" fill="#fff"/>
  <path d="m122.076,112.054-.177.132-.176.133-.353.309-.397.308-.177.133-.176.132-.133-.132-.044-.088v-.045-.044l1.633-1.279v.441z" fill="#fff"/>
  <path d="m135.798,116.863-.132.089-.088.088-.044.132-.089.133-.044.088-.044.132-.044.309v.265 .309l-.044.309-.044.264v1.148l-4.368.661-.133.221-.088.221-.088.264v.309l-.044.53-.045.264-.044.265 .265.265 4.765,1.324 .353,3.044 .044.088 .045.045 .088.044h.088l.132.044 .177-.044 2.868-2.251 5.03,1.192h.132l.133-.089 .044-.132 .088-.088 .221-1.853-.486-.486-.573-.485-1.059-.927 .353-.353 .353-.308 .353-.354 .397-.264 .927.529 .882.574 .883.618 .882.617 .882.618 .883.662 .882.662 .839.706 .838.706 .838.75 .442.397 .397.353 .794.794 .794.794 .75.839 .75.838 .706.838-.441.089-.441.088-.486.088-.441.044-.97.133-.971.044-3.398-2.692-.132-.044-.132.044-.089.044-.044.044-.132.133-.132.75-.089.794-.044.397v.397 .397l.044.398-4.324.662-.265.264-.22,1.897 .265.265 4.853,1.28 .397,3.133 .044.132 .045.044 .088.044 .088.044 .088.045h.089l.088-.045h.088l2.824-2.338 1.28.265 1.323.308 1.28.265 1.279.353 .133-.044 .088-.088 .088-.088 .088-.133 .133-.926 .044-.486 .044-.485-.573-.441-.574-.53-1.059-1.015 .176-.22 .221-.221 .441-.397 .221-.177 .221-.22 .132-.265 .044-.132 .044-.133 .662.883 .309.485 .309.486 .573.926 .265.485 .265.486-.088.221-.045.176-.044.441-.044.486-.088.176-.088.221v.309l-.044.308-.089.618-.176.574-.221.573-.265.53-.176.265-.132.264-.221.265-.177.221-.441.441-.264.265-.309.22-.265.221-.309.176-.618.353-.617.353-.618.353-.618.398-.265.22-.308.221-.265.264-.265.309-.088-.088-.133-.088-.176-.177-.132-.088-.089-.044h-.132-.132l-.309.309-.221,1.588-.176.221-.221.265-.441.441-.397.485-.221.221-.177.265-2.779.485-.133.221-.088.264-.088.265-.044.265-.044.529-.089.53v.088l.044.044 .045.088 .044.044 .132.089 .132.044 .177.044 .132.044 .309.044-.265.618-.088.353-.044.176-.044.221-.309.53-.309.529-.132.265-.133.309v.132l-.044.177v.132 .176l-.044.177-.044.176-.044.309v.177l-.044.176-.044.133-.089.176v.132l-.044.133-.044.265-.132.264-.132.265-.177.221-.176.22-.398.441-.441.442-.22.22-.177.221-.176.221-.177.22-.132.265-.133.265-.22-.088-1.854-1.545h-.132l-.132.044-.088.089-.089.132-.088.441-.044.397-.088.839-.044.882 .044.883-4.722.838-.132.265-.088.264-.044.265-.044.265-.045.573-.088.53 .265.265 3.397.926-.176.574-.133.309-.176.265-.132.308-.221.265-.221.265-.22.22-.441.353-.442.309-.485.265-.485.265-.971.441-.971.441-2.78,1.236-.662.309-.705.309-.662.352-.662.353-.485.221-.486.221-.485.22-.265.133-.221.132-.176-.176-.132-.133-.133-.176-.088-.089-.044-.088 1.897-1.809 .044-.265 .044-.309 .089-.573 .044-.309v-.265l-.044-.132-.089-.133-.088-.132-.088-.088-5.427.75-3.574-3.133-.133.044-.176.045-.088.132-.089.132-.176,1.721-.044.441v.442 .441 .441l-4.986.883-.221.264-.132,1.942 .22.22 5.207,1.456 .088.706-1.323.133-.662.088h-.309l-.353.088-.618.133-.309.088-.309.132-.309.133-.264.132-.265.176-.265.221-.353.177-.353.22-.176.088-.177.133-.132.132-.177.177h-2.515l-2.471-.044-1.235-.045-1.236-.088-1.235-.044-1.191-.088-1.236-.089-1.191-.132-1.1915-.132-1.1913-.133-1.1913-.176-1.1914-.177-1.1472-.22-1.1472-.221 1.4561-1.191 5.4718,1.368 .132-.044 .132-.089 .089-.044 .044-.088v-.044l.044-.088 .176-1.854-2.2942-2.382 2.0302-1.853 .264-1.854-.044-.132-.088-.132-.132-.089-.089-.044-5.4711.75-3.4858-3.132h-.0882-.0883l-.1323.044-.0883.044-.0441.044-.0882.132-.2648,3.53-5.2066.927-.2206.264-.0441.53-.0441.485v.53 .22l.0441.221 .2647.221 5.0301,1.412 .0883.882 .0441.441v.486l-3.0445-.662-1.4561-.397-1.5002-.397-1.5002-.397-1.4561-.486-1.4561-.441-1.4561-.53-1.4119-.529-1.4561-.53-1.412-.617-1.4119-.618-1.3678-.618-1.3679-.662-1.3678-.706-1.3678-.705 2.162-1.677 5.4272,1.368 .1324-.089 .0441-.044 .0441-.044 .0883-.088 .0441-.132 .0441-.133 .0442-.132 .0441-.309v-.618-.309l.0441-.264-.2206-.309-.2648-.309-.5294-.53-.5295-.573-.5736-.53 .5295-.485 .5294-.441 .5736-.486 .5295-.485 .1765-1.986-.0441-.088-.0441-.088-.0883-.088-.1765-.045h-.1323l-.353.045-.3089.044-4.6771.618-3.2651-3.001-.0883-.044-.0882-.044-.0883.044-.0882.044-.1324.088-.1324.177-.2647,3.353-5.2507.883-.0883.088-.0882.088-.0883.133-.0441.088-.0441.265v.308l.0441.574-.0441.265v.132l-.0441.132-1.2355-.926-1.2355-1.015-1.2354-1.059-.6178-.529-.5736-.574 .3089-.309 .353-.309 .3088-.309 .3089-.353 1.1472-1.5 .3089-.309 .2647-.353 .2648-.353 .2206-.397 .4412-.75 .2207-.397 .2647-.353 .4854-.574 .5294-.617 .5295-.53 .5736-.573 .5736-.486 .5736-.529 .6178-.441 .6177-.486v.486 .529l-.0882,1.059 .0441.088 .0441.089 .1765.132h.5295l.4853-.088 1.059-.133 1.0149-.132 .9707-.177 2.0297-.309 1.0148-.132 1.0148-.132 .7502.794 .7059.75 .7501.706 .7943.706 .7501.662 .7942.662 .8383.618 .7943.617 .8383.574 .8384.529 .8383.53 .8384.529 .8824.442 .8825.485 .8825.441 .8824.397 .9266.397 .8825.397 .9266.353 .9266.353 .9266.309 .9707.309 1.8973.574 .9708.265 .9707.264 .9707.221 .9707.221 1.9415.397 1.9858.353 1.191.176 1.147.132 1.148.133 1.147.088 2.338.132h1.148l1.147.045 1.147-.045 1.147-.044 1.147-.044 1.148-.088 1.147-.088 1.103-.133 1.147-.132 1.103-.177 1.103-.22 1.103-.221 1.059-.264 1.103-.265 1.059-.265 1.059-.353 1.059-.353 1.015-.353 1.015-.397 1.015-.441 1.015-.442 .97-.485 .971-.485 .971-.53 .485-.309 .441-.264 .927-.574 .706-.485 .662-.53 .662-.529 .618-.618 .661-.618 .574-.618 .618-.617 .573-.662v-.353l.088-.353 .089-.353 .044-.397 .044-.353-.044-.177v-.176l-.088-.177-.089-.132-.088-.177-.132-.132-.75-1.28-.75-1.323-1.545-2.559-.132-.044-.177.044-.132.088-.044.044-.044.044-.133.441-.176.397-.177.398-.176.353-.221.397-.22.353-.221.397-.265.309-.264.353-.265.353-.309.309-.309.308-.618.618-.706.618-.706.529-.706.53-.75.529-.75.442-1.5.882-1.456.794-.662.265-.662.309-1.368.529-.706.221-.661.221-1.412.441-1.456.353-.706.176-.706.177-1.456.264-.751.133-.75.088-.75.088-.75.089-.75.088-.706.044-.794.044-.75.044-1.5.044h-1.501l-1.5-.088-1.544-.088-1.5-.177-1.501-.176-1.5-.265-1.456-.265-.7501-.176-.7501-.177-.706-.176-.7501-.221-.7059-.176-.706-.221-1.412-.485-.7059-.265-.706-.265-1.3679-.529-1.3678-.618-1.3237-.618-1.2796-.706-1.2354-.706-1.2355-.794-.6177-.397-.5736-.397-1.1473-.882-.0441-.045-.0882-.088-.1324-.088-.1324-.088-.1323-.177 18.753-2.78 18.796-2.735 .265-.265 .088-.75 .133-.75 .264-1.456 .133-.706 .088-.75 .088-.75 .044-.751-.265-.264-21.6642,3.088-21.6647,3.089-.3089-.75 21.7971-3.089 21.8407-3.088 .177-.265 .265-1.456 .22-1.456 .133-.751 .088-.705 .044-.397 .044-.353 .044-.751-.353-.22-19.988,2.735-19.9435,2.78 .2206-.088 .1765-.088 .353-.221 .353-.265 .1765-.088 .1765-.088 .8824-.662 .8384-.662 .3971-.309 .2206-.176 .1765-.177 .353-.397 .1765-.22 .1765-.221 .0882-.177 .0883-.176 .2647-.309 .2648-.309 .0882-.132 .0883-.221 .0882-.088 .1324-.132 .2206-.265 .1765-.265 .2206-.265 .706-1.103 .353-.529 .2206-.265 .1765-.265 .2647-.22 .2648-.177 .2647-.176 .3089-.177 .4853-.441 .5295-.397 1.1031-.706 .5736-.353 .5295-.397 .2206-.177 .2648-.264 .2206-.265 .2206-.265 .2206-.176 .1765-.221 .3971-.397 .4413-.441 .1765-.221 .2206-.221 1.7208-.22 .8383-.088 .8384-.089 .8387-.088 .882-.044 1.677-.044 1.677-.044 .882.044 .838.044 1.677.088 .838.088 .839.089 1.632.22 1.633.265 1.633.353 .794.177 .794.176 .794.221 .794.22 .751.265 .794.221 1.5.529 .75.309 .706.309 .044-.044h.088l.089-.044 .044-.089 .044-.088 .088-.176 .044-.221 .089-.662 .088-.662 .264-1.279 .221-1.28 .088-.662 .044-.662-.308-.309-1.103-.397-1.148-.309-1.103-.352-1.147-.309-1.147-.265-1.148-.309-1.147-.221-1.191-.22-1.147-.221-1.192-.176-1.235-.133-1.191-.132-1.236-.132-1.235-.089-1.236-.044h-1.235l.706-.397 .397-.265 .176-.132 .177-.132 .927-.706 .485-.397 .441-.398 .441-.397 .441-.397 .265-.176 .221-.177 .265-.176 .264-.089 .574.133 .574.132 1.103.309 1.147.309 1.147.309 .221,2.956 .088.132 .088.045 .044.044h.133 .176l3.045-2.207 4.942,1.192 .088-.044 .044-.044h.044l.177-.177 .22-1.853-.22-.265-.221-.22-.221-.221-.264-.221-.53-.441-.265-.22-.22-.265 .176-.177 .177-.176 .353-.309 .397-.309 .221-.176 .176-.221 1.677.441 1.632.486 1.633.529 1.632.529 1.633.574 1.588.574 1.589.662 1.588.661z" fill="#fff"/>
  <path d="m86.777 114.39-4.0593-1.103v-0.838l4.0593 1.103v0.838z" fill="#fff"/>
  <path d="m114.134,113.951-.133.75-1.015-.22-1.014-.309-2.074-.53 .044-.794 .529.133 .53.132 1.015.265 1.059.309 1.059.264z" fill="#fff"/>
  <path d="m64.5827,115.893-.3088.132-.3089.132-.5736.309-1.1472.706-.6177.309-.3089.133-.3089.132-.3088.088-.353.044h-.353l-.3971-.044-.1324.088-.0882.045v.044l-.0442.088v.088 .132 .309 .177l-.0441.132-.8825.574-.9266.662-.8824.661-.8384.706-.8825.707-.8383.794-.8384.75-.7942.838-.7501.839-.7501.838-.7501.882-.6618.883-.6178.882-.3088.486-.3089.441-.5736.926-.4854.927 .1765-.574 .2648-.573 .2647-.574 .2647-.573 .3089-.574 .353-.529 .6619-1.148 .3529-.529 .353-.485 .7943-1.015 .7942-1.015 .8825-.927 .3971-.485 .4853-.441 .4413-.442 .4853-.441 .9266-.838 .9707-.839 1.0149-.794 .5295-.397 .4853-.353 1.059-.706 1.0148-.706 1.059-.662 1.1031-.618 1.059-.573 1.0589-.53-.1765,1.501z" fill="#fff"/>
  <path d="m95.1163,116.422-4.1917-.971v-.794l4.1917.971v.794z" fill="#fff"/>
  <path d="m90.042 115.5-2.3386 1.721v-0.573l2.3386-1.677v0.529z" fill="#fff"/>
  <path d="m122.297,116.819-4.192-1.015v-.397l.044-.22 .044-.221 4.192,1.015-.088.838z" fill="#fff"/>
  <path d="m68.0685,117.481 1.9415-.176 .9707-.089 .4853-.044 .4854-.088-.5295.397-.5736.441-.5295.442-.5295.441 .0442.265 1.8973,1.853-3.7947-.883-.7059.486-.706.485-1.412,1.015v-2.559l-.2647-.265-3.0004-.838 3.1769-.486 .2206-.176 .2647-2.471 2.5592,2.25z" fill="#fff"/>
  <path d="m115.104,117.481 .044-.573 2.163-1.545-.045.486-2.162,1.632z" fill="#fff"/>
  <path d="m64.5386,116.863-.0441.133v.132l-.3971.088-.1765.044h-.2206l.2206-.132 .2206-.088 .3971-.177z" fill="#fff"/>
  <path d="m140.917,119.378-1.633.177-3.045-2.471 1.192.53 1.147.573 2.339,1.191z" fill="#fff"/>
  <path d="m72.9221,117.393-.0441.132v.133 .309l-.3971.264-.4413.309-.7942.662h-.0441-.0441l-.1324-.044-.0441-.088-.1324-.089 .5295-.397 .4853-.397 .5295-.397 .5295-.397z" fill="#fff"/>
  <path d="m139.064,120.393 3.706-.441-.221.221-.264.22-.486.441-.529.442-.221.22-.176.265v.133l2.073,1.853-3.706-.795-2.515,1.942-.309-2.603-.397-.221-.397-.132-.441-.133-.397-.088-.883-.221-.397-.088-.441-.132 3.088-.486 .177-.22-.044-2.339 .706.53 .662.529 .706.574 .308.265 .398.264z" fill="#fff"/>
  <path d="m64.274 120.7-4.1918-1.147 0.0442-0.794 4.1476 1.147v0.794z" fill="#fff"/>
  <path d="m122.473,122.202-.044.309-.044.353-.177.75-.132.706-.044.353-.088.353-1.148-.441-1.147-.397-1.191-.397-1.236-.353-1.235-.309-1.236-.265-1.279-.265-1.28-.264-1.324-.177-1.323-.176-1.28-.133-1.324-.088-1.367-.044-1.324-.044h-1.324l-1.323.044-1.324.088-1.3239.089-.6619.088-.6618.088-1.2796.177-1.3237.22-.6178.132-.6618.133-1.2796.309-1.2355.353-1.2354.353-1.1914.441-1.1913.441-1.1472.485-1.1472.574-1.1031.574-.5295.309-.5295.308-.5295.309-.5295.353-.7942.574-.7501.618-.706.661-.706.662-.6618.706-.3089.353-.3088.353-.2648.353-.3088.397-.4854.751-.4854.838-.3971.794-.2206.441-.1765.397-.1324.442-.1323.441-.2648.927-.0882.441-.0441.441-.1324.971v.485 .485l.0882.089 .1324.088 .1324.044h.1323l.3089-.044 .3089-.044 22.4148-3.133 22.4149-3.089-.485,3.001-.221.088-22.1943,3.089-22.1942,3.132-.0882.133-.1324.132v.088 .089 .088l.0441.088 .2648.839 .1323.441 .1765.397 .2207.441 .1765.397 .2206.397 .2647.397 .8384-.088 19.7232-2.868 19.7233-2.824-.176.133-.133.176-.309.221-.309.176-.353.177-.353.132-.397.133-.353.132-.353.132h-.441-.132-.044l.044-.044 .132-.044 .221-.044-.618.088-.221.088-.176.044-.441.089-.486.088-.441.044-.441.088-.441.044-.442.133-.397.132-.176.088-.177.044-.353.089-.353.088-.176.044-.133.088-.617.133-.574.176-1.147.265-.574.177-.617.088-.574.088h-.618l-.22.088-.221.044-.441.044-.221.045-.221.044-.22.044-.088.044-.089.088-.706.133-.706.132-1.3675.353-.3088.044-.3089.044h-.6177l-.3089.044-.3088.044-.2648.089-.2647.088h-.2207l-.2206.044-.4412.088-.3971.133-.2206.044h-.2207l-.5736.132-.5736.044-1.1031.133-.5294.088-.5295.088-.5736.088-.5295.133h-.2206-.2648l-.3971.088-.2206.088-.2206.044h-.2206-.2207l-.2206.089-.2206.088-.2206.088-.2648.044-.4412.088-.4854.089-1.0148.132-.4854.044-.4412.133-1.6767.176-1.6326.088-1.6325.133-.8384.088-.7942.088-.1324.089-.1324.044-.3088.088h-.353l-.3089.044-.4412.044-.4854.044-.4412.088h-.4854l-1.0148.265-.5295.133-.3089.044-.2647.044-.1324.088-.1765.044-.3088.044h-.1765l-.1765.045-.1765.044-.1324.088-.353.044-.353.088-.6618.177-.353.044-.353.088-.353.044h-.353l-.3971.221-.3971.132-.4412.133-.4413.132-.8825.176-.3971.089-.4412.132 .1324-.75 .2206-.75 .1765-.794 .2206-.75 4.4124-.662 .0441-.045 .0882-.088 .0442-.132v-.177-.044l-.0442-.088-.353-.838-.3529-.839-.3972-.838-.3971-.794-.8824.088-.8825.088-1.765.265-1.7208.221-1.7649.264 .8824-3.221 5.5155-.75 .2206-.265-.0441-.75v-.706l.0441-.706 .0883-.705 .0882-.706 .1765-.662 .1765-.662 .2206-.662 .2206-.662 .3089-.618 .3089-.662 .3088-.617 .353-.574 .3971-.618 .3971-.573 .4413-.53 .4412-.573 .4854-.53 .4853-.529 .4854-.486 .5295-.485 .5295-.485 .5295-.442 .5736-.441 .5736-.441 .5736-.397 1.1472-.75 .6177-.353 .5736-.353 .6178-.309 .6177-.309 1.1031-.529 1.1031-.486 1.1913-.441 1.1913-.441 1.1914-.397 1.2354-.353 1.2355-.309 1.2796-.309 1.2796-.265 1.2796-.221 1.3237-.176 1.3237-.176 1.3237-.133 .6618-.088 .6619-.044 1.3232-.044 1.368-.044 1.324-.045 1.368.045 1.324.044 1.323.044 1.368.132 1.324.133 1.279.132 1.324.176 1.324.221 1.279.265 1.236.265 .662.132 .618.132 1.235.309 1.191.353 1.192.397 1.191.397z" fill="#fff"/>
  <path d="m142.108,121.982-.044-.044-.088-.044v-.045h-.044v-.044l.044-.044 1.5-1.324v.397l-1.368,1.148z" fill="#fff"/>
  <path d="m72.6574,122.82-4.28-1.015 .0441-.838 4.28,1.059-.0441.794z" fill="#fff"/>
  <path d="m67.5832,121.849-.6178.442-.6177.485-.6619.397-.6177.441v-.573l2.4709-1.721 .0442.529z" fill="#fff"/>
  <path d="m135.578,122.776v.176l-.044.221-.045.221v.22l-4.191-1.147 .088-.75 1.059.221 1.059.264 2.074.574z" fill="#fff"/>
  <path d="m121.767,125.865v.838l-1.191-.485-1.192-.397-1.191-.398-1.235-.353-1.28-.308-1.235-.309-1.324-.221-1.28-.265-1.323-.176-1.324-.177-1.368-.132-1.324-.088-1.368-.044h-1.323-1.368-.662l-.706.044-1.3237.088-1.3678.132-1.3238.133-1.3237.22-1.2796.221-1.3237.309-1.2795.309-1.2355.353-1.2355.397-1.2354.441-1.1914.529-.5736.221-.5736.309-1.1472.574-1.1031.617-.5295.309-.5295.353-1.0589.706-.5736.397-.5295.486-.5736.485-.5295.485-.4854.53-.4853.573-.9266,1.103 .3971-.661 .4853-.574 .4413-.618 .4853-.529 .4854-.53 .5295-.529 .5295-.485 .5295-.486 .5294-.441 .5736-.441 .5737-.397 .5736-.398 .6177-.353 .6177-.353 .6178-.353 .6177-.308 .6177-.309 .6619-.265 .6177-.265 .6619-.265 .6618-.264 .6619-.221 1.3678-.397 .706-.177 .6618-.176 1.3679-.353 1.4119-.265 1.3679-.264 1.6325-.221 1.6326-.132 1.6331-.089 .794-.044 .838-.044 1.633.044 1.588.044 .838.044 .795.045 1.588.176 1.589.177 1.544.264 1.588.309 1.501.353 1.5.441 1.5.442 .706.22 .75.265 1.412.574z" fill="#fff"/>
  <path d="m143.917,125.644-.529-.088-.53-.088-.529-.133-.53-.132-1.103-.309-.53-.132-.529-.089 .088-.794 4.28,1.015-.088.75z" fill="#fff"/>
  <path d="m136.725,126.35 .044-.485 2.03-1.589-.044.486-2.03,1.588z" fill="#fff"/>
  <path d="m59.8174,130.806-2.2062,1.765v.353l1.9856,1.986-3.8388-.927-.3971.221-.3971.221-.3971.264-.353.265-.7501.574-.7942.529v-.309-.353l.0441-.662 .0441-.705-.0441-.707-.2206-.22-3.3093-.927 3.4858-.441 .2206-.221 .353-2.603 2.6915,2.383 3.8829-.486z" fill="#fff"/>
  <path d="m164.699,144.794-.176-.795-.221-.794-.265-.75-.264-.75-.265-.75-.309-.75-.309-.75-.353-.706-.397-.706-.353-.706-.397-.706-.441-.706-.397-.662-.486-.706-.441-.662-.485-.662v-.22-.133l-.044-.088-.044-.088-.045-.088-.088-.089-.088-.044h-.309l-1.5-1.853-.044-1.589 .75.883 .706.882 .706.883 .662.927 .573.926 .309.441 .309.486 .529.97 .486.971 .485.971 .441,1.015 .398,1.015 .352,1.059 .309,1.059 .133.529 .132.53 .265,1.102 .088.53 .088.574z" fill="#fff"/>
  <path d="m60.7881,131.733-.9266.662-.4412.353-.4413.353-.3529-.309 2.162-1.677v.618z" fill="#fff"/>
  <path d="m157.463,133.454-1.897,1.765v.353l2.118,1.897-3.663-.882-.353.22-.308.265-.662.485-.662.574-.662.529-.353-2.735-.265-.177-3.265-.882 3.133-.485 .265-.353-.089-2.339 2.78,2.25 3.883-.485z" fill="#fff"/>
  <path d="m46.7568,132.571-.0441.265 .0441-.265z" fill="#fff"/>
  <path d="m51.8751,134.645-4.2358-1.147v-.882l4.28,1.235-.0442.794z" fill="#fff"/>
  <path d="m156.801,135.483-.044.045-.088-.045-.088-.088 1.5-1.412v.221l-.044.132-.089.089-.132.176-.176.177-.442.353-.22.176-.177.176z" fill="#fff"/>
  <path d="m60.479 136.85-4.3241-1.059v-0.882l4.3241 1.059v0.882z" fill="#fff"/>
  <path d="m55.2727,135.837-1.3238.926-1.3237.971-.0441-.574 2.6474-1.941 .0442.618z" fill="#fff"/>
  <path d="m150.138,136.41v.397 .221l-.044.221-4.28-1.148-.044-.088-.044-.088 .044-.221 .044-.221 .044-.176 4.28,1.103z" fill="#fff"/>
  <path d="m158.743,138.572v.221 .176l-.089.442-.573-.133-.53-.088-1.059-.309-1.103-.265-.529-.132-.53-.088v-.441l.044-.221 .044-.221 4.325,1.059z" fill="#fff"/>
  <path d="m119.91 138.7-21.665 3.044-21.665 3.045-0.3089-0.751 0.2206-0.088 21.621-3.044 21.62-3.045h0.265l-0.088 0.839z" fill="#fff"/>
  <path d="m153.492,138.043-.044.088v.088 .221l-2.074,1.677v-.398l1.059-.882 .221-.221 .264-.176 .309-.221 .265-.176z" fill="#fff"/>
  <path d="m119.252,145.014v.177l-.044.22v.221 .177l-18.929,2.823-18.9293,2.824-.706-.75 .4854-.088 18.9729-2.824 19.018-2.78h.132z" fill="#fff"/>
  <path d="m69.304,145.809-1.6326.264-1.6326.221-3.3092.485 .0882-.882 .7942-.133 .8384-.132 1.6325-.176 1.6326-.221 .8384-.133 .7942-.132-.0441.839z" fill="#fff"/>
  <path d="m60.1263,147.706-2.2945,1.897v.353l2.0297,2.118-3.9711-.971-.4412.265-.3972.265-.7942.573-.7942.574-.7942.574 .1323-2.913-.3088-.264-1.7209-.441-.8824-.265-.8384-.265 .4854-.044 .4853-.044 .9266-.177 .9708-.176 .9266-.221 .0882-.088 .3089-2.736 2.7798,2.471 4.1035-.485z" fill="#fff"/>
  <path d="m65.2887,147.309 .0441-.089h.0883l-.1324.089z" fill="#fff"/>
  <path d="m61.0529,148.544-.4413.441-.5295.353-.4853.398-.4854.397-.3089-.353 2.3386-1.81-.0882.574z" fill="#fff"/>
  <path d="m156.934,150.794 1.985-.264 .971-.133 .971-.176 .044.088-1.942,1.765v.485l2.206,2.03-3.927-.927-2.603,2.163-.088-.353-.044-.353-.089-.75-.088-.751-.044-.353-.088-.353-.883-.308-.926-.309-1.853-.486 .794-.132 .838-.132 .839-.177 .838-.088 .265-.353-.177-2.515h.088l2.913,2.382z" fill="#fff"/>
  <path d="m51.9193,151.765-4.1918-1.191-.0882-.221-.0883-.22-.0882-.133v-.088-.132l.0441-.044v-.089l4.4124,1.236v.882z" fill="#fff"/>
  <path d="m160.066,152.471-.132-.132 1.588-1.5-.088.22-.132.221-.177.22-.176.177-.486.397-.22.176-.177.221z" fill="#fff"/>
  <path d="m73.1427,152.559-7.2362,1.103v-.794l3.6181-.618 1.8532-.264 .8825-.133 .9266-.088-.0442.794z" fill="#fff"/>
  <path d="m60.744,154.016-4.5006-1.104v-.882l4.5006,1.147v.839z" fill="#fff"/>
  <path d="m153.36,153.442v.088l.044.088v.133l-.044.132-.045.221-.088.176-4.368-1.235-.044-.177 .044-.22 .088-.398 4.413,1.192z" fill="#fff"/>
  <path d="m99.661,165.179 1.191.22 1.192.177 1.235.176 1.192.133 1.235.132 1.191.088 1.236.044 1.235.089h1.192 1.235l1.191-.044 1.236-.045 1.191-.044 1.236-.132 1.191-.132 1.191-.133 1.192-.176 1.147-.221 1.191-.221 1.147-.264 1.148-.309 1.147-.309 1.103-.353 1.103-.397 1.103-.397 1.103-.441 1.059-.442 .53-.264 .529-.221 1.015-.529 1.015-.574 1.015-.574 .97-.617 .53-.398 .529-.397 1.059-.882 1.059-.927 .971-.97v.176l-.309.353-.309.353-.662.662-.661.618-.706.617-.706.574-.706.573-.706.53-.75.485-.751.486-.75.441-.75.441-.794.442-.794.353-.794.397-.795.308-.794.353-.838.309-.839.265-.838.265-.838.264-.839.221-.838.221-.882.176-.883.221-1.765.309-1.765.265-.882.132-.883.132-1.809.177-1.191.044-1.192.044-1.191.044h-1.147l-1.191-.044-1.148-.044-1.147-.044-1.147-.088-1.103-.089-1.147-.132-2.251-.309-1.103-.177-1.1028-.176-1.059-.221-1.1031-.264-1.0589-.265-1.059-.265-1.059-.309-.5295-.176-.5294-.177-1.059-.353-1.0149-.353-1.0148-.397-1.0148-.397-1.0149-.441-1.0148-.441-.9707-.486-.9708-.485-.9707-.53-.9707-.529-.4854-.265-.4853-.265-.9266-.617-.8825-.574-.9266-.662-.3971-.353-.4412-.353-.8825-.75-.8384-.75-.3971-.397-.3971-.397-.7942-.794-.7501-.839 .0441-.573 .6619.706 .7059.661 .706.662 .706.618 .706.618 .7059.573 .7502.574 .7501.53 .7501.529 .7501.485 .7501.486 .7942.485 .7942.441 .7942.397 .7943.398 .7942.397 .8383.397 .7943.353 1.6767.662 .8383.309 .8384.308 .8383.265 .8825.265 1.7208.529 1.7208.442 1.765.441 1.809.353z" fill="#fff"/>
  <path d="m55.405,153.001-.353.22-.353.265-.7059.53-.6619.529-.706.485v-.661l2.7798-2.03v.662z" fill="#fff"/>
  <path d="m140.828,154.457-.529.617-.574.574-.573.53-.574.529-.573.53-.574.485-.618.441-.618.441-.617.442-.618.397-.662.397-.618.397-.661.353-.662.309-.662.353-.662.309-1.368.573-.706.221-.706.265-.706.22-.706.265-.706.176-.706.221-1.456.353-1.456.353-1.5.265-1.5.265 1.765-.839 .882-.441 .883-.485 .882-.442 .838-.529 .883-.53 .794-.573 .221-.133 .22-.088 .442-.22 .485-.177 .441-.132 .927-.309 .485-.177 .441-.22 .309-.089 .353-.132 .309-.132 .309-.177 .618-.353 .617-.353 1.192-.794 .617-.397 .574-.397 .221-.044 .176-.089 .353-.132 .397-.221 .353-.22 .662-.441 .353-.265 .353-.177 .618-.441 .265-.22 .309-.221 .529-.486 .529-.485 .177.309 .176.309 .353.662z" fill="#fff"/>
  <path d="m162.273,155.692-.177.838-.529-.132-.574-.176-1.147-.265-1.103-.221-1.148-.309v-.176l.045-.221 .088-.441 4.545,1.103z" fill="#fff"/>
  <path d="m154.639,157.281 .044-.442 2.074-1.72v.308l-2.118,1.854z" fill="#fff"/>
  <path d="m79.1435,179.431 1.1473.397 1.1031.353 1.103.353 1.1473.309 2.2944.573 2.2944.574-.1324.265-.1764.264-.1324.221-.1765.221-.2206.22-.1765.177-.2648.176-.2206.177-.2206.176-.2647.133-.5295.264-.4854.177-.5295.176-.8383-.044h-.8384l-.7942.088-.7501.133-.3971.044-.353.044-.3971.088-.353.133-1.4561.441-.1765.132-.2206.089-.353.176-.3971.176-.1765.089-.2206.088-2.1621-.838-1.1031-.442-1.1031-.441-1.0589-.485-1.1031-.486-1.059-.485-1.1031-.529-1.0589-.574-1.059-.529-1.059-.574-1.0589-.618-1.059-.618-1.0149-.617-1.0148-.662-1.0148-.662-1.0149-.706-.9707-.706-.9707-.75-.9707-.75-.9266-.794-.9266-.795-.9266-.838-.8825-.838-.8825-.883-.8383-.882-.8384-.927-.7942-.971-.7942-.97-.7501-1.015-.7501-1.015-.706-1.059 .0882-3.486 .0442-1.765 .0882-1.676 .7942,1.059 .7943,1.059 .8383,1.014 .8825,1.015 .8825.971 .8824.927 .9266.926 .9266.883 .9707.838 .9708.838 .9707.839 1.0148.75 1.0149.794 1.0148.706 1.059.706 1.0148.706 1.1031.662 1.059.662 1.1031.617 1.1031.618 2.2061,1.147 1.1031.574 1.1473.529 1.103.53 1.1473.485 1.1472.486 1.1472.441 1.1472.485 1.1472.442 2.2944.794z" fill="#fff"/>
  <path d="m70.5394,163.414 1.1031-.088 1.059-.133 2.2062-.309-2.4709,2.118 .0882.309 2.1621,2.25-4.2359-1.014-1.5443,1.147-.7943.573-.7501.618v-3.044l-.353-.265-1.7649-.486-1.8091-.485 3.8388-.662 .1765-.22 .2647-2.913 2.8239,2.604z" fill="#fff"/>
  <path d="m145.947,164.87h.529l.53-.044 .529-.088 .53-.089 1.059-.132 .529-.088 .53-.044-2.118,2.029v.309l2.382,2.206-4.059-.97-.706.529-.706.574-.706.617-.706.618-.309-3-.264-.265-1.81-.485-1.809-.486 3.486-.662 .221-.22-.088-2.78 2.956,2.471z" fill="#fff"/>
  <path d="m75.746,163.723-.4853.485-.5295.397-1.059.794-.1765-.22 .5295-.486 .5736-.529 .5736-.441 .5736-.486v.486z" fill="#fff"/>
  <path d="m149.212,166.723-.088-.088-.044-.088 .044-.044 1.676-1.589v.353l-1.588,1.456z" fill="#fff"/>
  <path d="m66.4801,166.282v.882l-4.5448-1.279v-.839l1.1472.265 1.1473.309 2.2503.662z" fill="#fff"/>
  <path d="m142.285,168.576-1.192-.309-1.147-.308-2.25-.662 .132-.839 4.545,1.28-.088.838z" fill="#fff"/>
  <path d="m66.3918,169.679-1.1913-.706-1.1472-.706-1.1473-.794-1.103-.75 4.6329,1.28-.0441,1.676z" fill="#fff"/>
  <path d="m75.5254,168.62v.839l-.5736-.089-.5736-.132-1.1472-.309-1.1914-.309-.5736-.176-.6177-.132 .0882-.839 2.2945.574 2.2944.573z" fill="#fff"/>
  <path d="m67.539,170.341-.0441-.044-.0882-.044-.0883-.044-.0441-.044h-.0441v-.088l.0441-.045v-.132l2.7357-2.074v.618l-2.471,1.897z" fill="#fff"/>
  <path d="m151.374,170.032 .044.089 .044.044v.132l-.088.088-.088.089-.265.132-.088.088-.044.044-.044.045-4.148-1.059 .088-.839 4.589,1.147z" fill="#fff"/>
  <path d="m143.56 171.75v-0.397l2.206-1.941v0.441l-2.206 1.897z" fill="#fff"/>
  <path d="m95.381,172.636 1.059-.133 1.1031-.132 1.1031-.177 1.1031-.132-1.1914,1.059-.6177.529-.5736.53 .0441.441 2.2945,2.251-.5736-.133-.5295-.132-1.1031-.309-.5736-.132-.5295-.089-.5736-.088-.5736-.044-.353.309-.353.265-.706.573-.7501.574-.353.264-.353.309-.0441-.397v-.397-.838-.397l-.0441-.442-.0441-.397-.0442-.176-.0441-.177-.9707-.353-.9707-.264-.9707-.309-.9708-.265 3.8388-.662 .2206-.265 .0883-2.912 2.9562,2.648z" fill="#fff"/>
  <path d="m123.532,173.606 2.162-.264 1.103-.133 1.059-.176-2.206,2.074v.441l2.294,2.25-4.103-1.015-.353.265-.397.309-.75.618-.75.617-.751.618-.22-3.133-.221-.22-1.897-.53-.971-.264-.926-.265 1.897-.353 .971-.133 .926-.22 .132-.177v-2.912l3.001,2.603z" fill="#fff"/>
  <path d="m100.499,172.945-.441.441-.4852.397-1.0149.838-.1323-.132-.0441-.044v-.044l.0441-.044 2.0734-1.898v.486z" fill="#fff"/>
  <path d="m126.8 175.55-0.176-0.177 1.897-1.853v0.441l-1.721 1.589z" fill="#fff"/>
  <path d="m91.4099,175.548-.0441.882-1.1913-.309-1.1473-.308-1.1472-.309-1.1472-.353v-.221-.221l.0441-.264 .0442-.221 2.2944.662 1.1472.353 1.1472.309z" fill="#fff"/>
  <path d="m119.781,176.563-.044.397-.044.22v.177l-.618-.088-.573-.177-1.147-.309-1.148-.353-.573-.132-.574-.177 .044-.838 .574.132 .618.133 1.147.353 1.191.353 1.147.309z" fill="#fff"/>
  <path d="m100.588,177.93v.839l-.6181-.088-.5736-.133-.5736-.132-.6177-.177-1.1473-.309-.6177-.132-.5736-.132v-.883l4.7216,1.147z" fill="#fff"/>
  <path d="m92.9542,179.387-.5736-.045 .3089-.264 .3089-.309 .6618-.53 1.3237-1.059-.0441.574-1.9856,1.633z" fill="#fff"/>
  <path d="m128.915,179.431-.706.176-4.059-.97v-.177-.221l.044-.485 4.721,1.147v.53z" fill="#fff"/>
  <path d="m120.885,180.666-.045-.353 2.471-2.118-.044.486-2.382,1.985z" fill="#fff"/>
  <path d="m126.135,180.004-3.75.486 .132-.089 .133-.088 .22-.22 .221-.221 .22-.221 .133-.088 .132-.088 .088-.044 .133-.044h.132 .177l.132.044 .176.088 1.721.485z" fill="#fff"/>
 </g>
</svg>
