<?xml version="1.0" encoding="UTF-8"?>
<!DOCTYPE svg  PUBLIC '-//W3C//DTD SVG 1.1//EN'  'http://www.w3.org/Graphics/SVG/1.1/DTD/svg11.dtd'>
<svg width="381.05px" height="444.04px" enable-background="new 0 0 381.052 444.042" version="1.1" viewBox="0 0 381.052 444.042" xml:space="preserve" xmlns="http://www.w3.org/2000/svg">
<path d="m156.6 210.82v93.974c0 13.311 27.259 20.49 52.908 20.49 25.648 0 52.909-7.18 52.909-20.49v-93.974c0-11.565-27.261-17.805-52.909-17.805-25.65 0-52.91 6.24-52.91 17.8z" enable-background="new    " fill="#161616" opacity=".3"/>
<path d="m209.51 198.11c-29.417 0-53.26 7.215-53.26 16.11v93.973c0 10.381 23.843 18.796 53.26 18.796 29.416 0 53.258-8.415 53.258-18.796v-93.973c0-8.9-23.84-16.11-53.26-16.11z" enable-background="new    " fill="#161616" opacity=".2"/>
<path d="m154.85 209.13v93.973c0 13.312 28.162 20.491 54.661 20.491s54.661-7.179 54.661-20.491v-93.973c0-11.565-28.162-17.806-54.661-17.806-26.49 0-54.66 6.24-54.66 17.81z" enable-background="new    " fill="#161616" opacity=".5"/>
	<g transform="translate(-405.73 -144.36)">
		<g transform="matrix(.0423 0 0 .0423 319.39 59.128)">
					<path d="m9084 2890c86.506 132.61 58.871 6460.7-53.596 6709.7-88.271 197.27-2946.2 2417.7-3095 2475.9-1932.4-11.358-3235-669.51-3451.3-1017.2-83.077-436.61-12.144-7169 65.704-7309.7 69.214-122.91 3724.6-1347.1 3852.7-1376.2 116-24.9 2583 369.7 2681.5 516.9z" fill="#C8C7C7"/>
					<path d="m9046 2911l3.439-1.604-3.439 3.232c0-1.628-1.755-1.628-1.755-1.628v-3.22l12.144-4.86-3.521 3.232-8.623 1.628 8.623-1.628-3.429 3.244-3.4 1.7zm3.4-1.6l3.429-3.244 3.521-3.232 8.623-3.232-8.623 6.464 8.623-6.464h1.755l-10.378 4.86v1.604-1.604l-6.9 4.7zm17.4-9.7h-1.755 1.8-1.755l19.012-9.696-17.257 8.08v1.6h0.1zm19-6.5l-19.012 6.453v-1.616l19-4.9zm34.6-24.3c-3.428-4.848-6.948-9.697-12.132-14.556-3.439-4.848-8.634-8.08-13.829-11.313-8.622-6.476-20.766-12.94-34.583-19.416-12.144-6.453-25.961-11.313-41.533-17.788-15.583-6.464-32.829-11.312-51.922-17.788-36.269-12.917-81.241-25.869-129.72-38.809-50.167-12.94-105.52-25.88-164.31-40.413-235.32-55.004-541.5-116.45-854.62-171.43-313.12-56.597-629.77-106.74-884.02-145.55-126.28-17.8-238.75-33.96-327.02-43.668-43.207-4.848-81.23-9.708-112.38-12.94-15.572-1.616-29.401-1.616-41.533-3.221-6.949 0-12.144 0-17.338-1.628h-15.572c-5.194 0-8.634 0-12.063 1.628h-6.949c-3.44 0-5.194 0-6.868 1.604-3.521 0-6.949 1.616-12.144 3.244-3.44 0-8.635 1.604-13.817 3.232-5.194 1.604-12.144 3.232-19.093 4.848-6.868 3.232-13.817 4.86-22.452 8.092-17.327 4.848-38.104 11.313-60.544 19.393-22.521 6.476-48.482 14.556-76.128 24.264-57.105 17.788-122.86 40.436-198.97 64.689-74.374 24.264-157.44 51.749-249.1 82.465-361.57 121.31-832.13 279.78-1302.7 443.12-468.81 163.34-937.65 328.29-1292.3 460.9-88.225 33.96-169.54 64.688-242.19 92.185-74.408 29.101-138.43 54.969-192.03 77.617-27.669 11.313-51.91 22.648-72.688 32.344-22.486 9.696-41.498 19.404-57.07 27.485-8.669 3.232-15.572 8.08-22.486 11.335-6.903 4.848-13.852 8.08-17.292 11.313-6.915 4.848-12.097 8.08-15.572 11.313-8.669 6.476-12.109 12.951-15.583 17.8-1.72 3.232-3.428 8.092-6.903 14.545 0 4.86-1.72 9.708-1.72 14.568-1.754 4.848-1.754 11.313-3.474 17.788-1.72 6.453-1.72 12.929-3.475 21.021 0 14.556-1.72 32.344-5.195 51.749 0 21.009-1.72 43.657-3.428 67.921-3.486 50.133-6.961 111.58-10.389 179.51-3.475 69.537-6.915 147.17-8.669 232.86-12.097 344.48-24.206 815.07-32.864 1350.4-19.012 1070.6-32.875 2396.7-32.875 3467.2 0 498.09 3.475 942.79 8.669 1279.2 1.72 84.082 3.428 161.74 5.195 231.26 1.708 69.56 5.183 132.61 6.903 186.03 1.72 54.946 5.195 100.24 6.915 137.44 1.755 19.393 3.474 35.554 5.194 48.528 1.755 8.104 1.755 14.521 1.755 21.009 1.72 4.871 3.428 11.313 3.428 16.184l1.766 6.441 3.428 6.51c15.583 24.241 34.584 48.482 57.116 74.339 24.206 25.881 51.876 51.783 83.031 79.257 60.544 51.736 138.39 106.78 233.52 163.38 185.12 113.19 430.78 229.6 731.81 334.73 299.26 105.11 652.16 200.53 1051.8 270.09 399.63 69.514 845.95 113.19 1330.4 116.4h10.389l8.623-3.209c3.44-1.64 6.868-3.232 13.817-6.487 3.44-3.209 8.623-4.849 13.817-9.696 5.194-3.232 10.389-6.465 17.338-9.72 6.949-4.848 13.817-9.696 20.767-14.567 15.572-9.696 32.829-20.986 51.921-35.53 19.012-12.952 39.778-27.52 63.985-45.296 46.727-32.367 100.32-72.769 160.87-118.04 60.556-45.296 128.05-95.439 200.66-150.43 292.36-219.9 666.1-509.41 1038-803.74 371.91-292.74 743.91-591.87 1025.9-827.98 70.934-59.887 136.67-114.86 195.46-166.59 58.871-50.145 110.71-95.44 154.01-135.83 22.44-21.055 41.533-38.831 58.79-56.597 19.012-17.812 34.584-32.379 48.481-46.935 13.829-14.521 24.207-27.474 32.841-37.182 5.184-6.464 8.623-12.963 12.132-16.172 3.44-6.499 6.869-12.951 10.39-17.776 0-3.278 1.674-8.092 3.428-12.952 1.767-4.848 3.44-8.104 5.195-14.556 1.754-9.708 3.439-21.021 5.194-35.588 3.439-12.917 5.194-27.474 6.868-45.284 1.754-17.766 3.521-35.577 5.194-56.597 3.509-40.437 6.949-88.93 12.144-143.93 1.755-54.958 5.194-116.41 8.623-182.72 13.897-268.47 24.287-632.34 32.909-1048 17.258-834.46 27.635-1882.4 27.635-2818.8 0-629.08-5.183-1208-13.817-1636.6-1.754-106.73-3.428-205.39-6.948-292.72-1.674-85.698-5.195-161.72-8.623-224.77-1.674-32.356-3.44-61.457-5.194-85.72-1.674-25.88-3.429-48.528-5.195-66.316-1.673-9.708-1.673-17.788-3.428-25.869s-1.755-16.172-3.44-21.02c-1.754-6.476-1.754-12.94-3.509-17.788-1.686-3.232-1.686-6.476-3.439-8.08-1.9-2.7-3.6-5.9-5.3-7.6zm-64 34l20.767-19.393-20.8 19.4zm-10.4 14.6c1.674 4.848 1.674 11.313 3.439 17.788 0 6.453 1.755 14.556 1.755 24.252 1.674 17.788 5.194 38.809 6.868 63.073 0 24.252 1.755 53.376 3.509 84.093 3.44 63.061 6.869 139.08 10.39 224.78 1.674 85.72 3.428 184.36 6.868 291.1 8.623 426.93 12.144 1005.9 12.144 1635 0 934.75-8.635 1984.3-25.961 2817.2-10.389 415.62-20.767 777.83-32.91 1044.7-3.439 67.909-6.868 127.76-10.308 182.72-3.51 53.388-6.949 101.88-10.378 142.32-1.766 19.416-3.521 38.832-6.949 54.958 0 16.206-3.439 29.123-5.194 42.075-1.755 11.313-3.439 22.625-5.194 29.089 0 4.849-1.755 6.499-1.755 9.708 0 1.639-1.685 3.243-1.685 3.243 0 1.605-1.755 3.256-3.51 6.465-1.674 1.639-5.194 6.499-6.868 9.708-8.703 9.708-17.338 21.021-29.4 33.972-12.133 11.313-27.716 27.484-45.042 43.68-17.258 16.138-36.27 33.938-58.802 54.958-43.207 38.831-93.374 84.081-152.24 134.23-57.036 50.144-122.77 106.74-193.71 164.99-282.05 236.11-652.21 533.67-1024.2 827.98-371.91 292.74-745.59 582.2-1034.5 800.53-72.688 54.946-140.11 105.14-200.66 150.39-60.544 45.296-114.22 84.082-160.87 118.06-22.532 16.184-45.053 32.321-64.065 45.272-17.257 12.951-34.595 24.264-48.413 33.938-6.949 4.848-13.817 9.72-20.766 12.951-5.194 3.256-10.377 6.465-13.817 9.72-3.509 1.593-6.949 3.255-8.704 4.849-477.43-3.256-913.41-46.89-1306.1-114.81-394.45-67.944-742.2-161.72-1038-265.22-292.36-103.5-532.84-216.69-714.47-326.7-88.225-53.354-162.6-106.71-221.42-156.87-29.401-24.24-53.642-48.505-74.408-71.13-17.292-19.415-32.875-37.215-44.973-54.992v-6.464c-1.72-4.849-1.72-11.313-1.72-17.8-1.72-12.929-3.474-29.112-5.194-45.25-3.475-37.215-5.195-82.511-8.669-135.86-1.708-53.354-3.428-114.81-5.183-185.96-1.72-67.968-3.44-145.54-5.194-229.67-5.195-336.37-8.635-779.5-8.635-1277.6 0-1070.6 12.109-2395.1 31.155-3465.6 10.343-533.67 20.732-1005.9 32.875-1348.7 3.428-85.721 6.903-163.35 10.343-232.89 3.474-67.932 5.194-127.76 8.669-176.28 1.708-25.869 3.475-48.517 5.195-67.909 1.708-19.416 3.474-35.588 5.183-50.144 0-6.453 1.72-12.94 1.72-17.788 1.755-6.464 1.755-9.708 3.475-14.568v-3.22c0-1.604 1.72-1.604 3.44-3.232 3.475-1.628 6.949-4.86 12.132-8.08 6.915-1.628 12.109-6.476 19.012-9.708 15.583-8.08 32.875-16.172 53.642-25.88 20.766-9.708 44.973-19.416 70.933-30.728 53.642-22.636 115.91-46.889 188.55-76.013 72.653-27.473 153.98-59.829 242.2-92.173 354.66-132.6 821.74-297.56 1290.6-459.28 468.81-163.33 939.37-323.44 1300.9-443.1 89.945-30.728 174.7-58.224 249.14-82.489 74.374-25.868 141.79-46.889 197.15-64.688 29.47-9.696 53.676-17.788 76.117-25.869 22.532-6.453 43.299-12.94 60.556-17.788 6.949-3.232 15.572-4.86 22.521-6.464 6.949-3.244 12.144-4.848 17.338-6.476 5.183-1.605 8.623-1.605 13.817-3.232l5.183-1.616-3.509-12.94 1.755 12.94h20.766c3.44 0 8.635 0 13.829 1.616 12.132 0 24.195 1.627 39.778 3.232 29.47 1.627 67.494 6.476 110.79 11.312 86.424 9.708 197.14 25.892 323.42 43.68 254.33 37.192 569.21 88.941 880.58 143.93 311.45 56.597 617.62 116.43 851.19 171.41 58.79 14.556 112.47 27.496 159.11 40.436 48.481 12.928 91.699 24.264 126.28 37.204 17.338 4.848 34.596 11.313 48.493 16.161 12.063 4.86 25.961 9.708 34.584 14.568 8.623 4.848 17.257 8.08 22.44 12.928 0 0 1.766 0 1.766 1.604 0.1 1.2 1.9 4.4 1.9 6.1zm-3124.4 9119.5c1.754 0 1.754-1.615 3.44-1.615h10.377v22.671l-13.8-21 13.817 21.056v17.776l-17.246-37.192c0-1 1.7-2 3.4-2zm-3399.4-998c1.72 1.616 1.72 4.825 3.474 6.464 1.72 1.616 1.72 4.849 1.72 6.487l-43.264 6.441 36.35-17.776h1.8l-1.72 1.616 1.7-2h3.474-3.5zm67.5-7274.1v4.86c-1.72 0-1.72 1.616-3.44 1.616l-8.669-9.708-29.389-6.453 29.389 6.453-3.475-1.604 6.949 3.232 8.7 1.6zm-12.1-3.3l3.474 1.628-3.5-1.6zm-27.7-12.9l24.195 11.324-24.2-11.3zm24.2 11.3l-17.292-17.811 17.3 17.8zm3835.4-1360l-3.439-27.496 3.4 27.5zm-6.9-27.5l6.868 27.496v1.628l-6.9-29.1z" fill="#010101"/>
					<path d="m8943.9 3021l-89.934 35.588-89.945 37.204-90.026 37.181-91.7 40.436-91.619 40.436-91.7 42.041-91.699 42.041-93.466 43.68-93.374 43.645-93.455 45.284-95.14 45.284-93.374 46.9-95.14 46.889-95.209 46.912-192.03 97.021-193.7 97.033-193.79 97.033-195.46 98.661-197.22 97.01-197.22 97.033-197.23 95.44-98.649 46.889-98.568 46.889-100.32 45.296-98.649 45.261-46.727-9.685-48.413-11.335-97.1-20.9-100.32-22.636-102.04-21.021-103.81-22.648-105.55-22.648-105.53-22.625-108.99-22.637-107.24-22.648-108.99-24.264-219.7-45.273-219.7-45.284-110.71-22.648-108.99-22.648-107.28-21.021-107.24-21.009-105.55-21.02-103.76-21.02-103.81-21.043-100.37-19.393-98.603-19.416-48.413-8.08-48.447-9.708-46.727-8.08-46.681-9.696-46.739-8.103-44.961-8.08-44.973-8.08-43.253-9.708-43.264-6.464-41.533-8.092-41.498-8.092-41.533-6.453-39.778-6.487-38.07-8.08-38.058-6.453-36.304-4.86-36.35-6.476-34.584-6.453 89.945 25.869 89.946 25.868 91.7 25.88 93.42 24.264 95.175 25.88 95.128 24.241 98.614 25.88 96.848 24.241 98.614 25.903 100.37 24.241 200.65 50.144 202.41 48.505 204.13 50.132 204.17 50.144 202.38 48.494 200.69 50.144 100.33 24.264 98.603 25.88 98.614 24.252 96.895 25.868 95.128 24.264 95.174 25.88 93.42 24.252 91.665 25.869 89.98 25.869 89.98 25.88 1.686 97.033 3.509 98.66 1.674 98.638 1.766 101.89 1.755 103.48 3.428 103.52 1.686 105.11 1.754 106.72 1.754 108.36 1.686 108.36 1.754 109.97v111.58l1.755 111.6 1.674 113.19 1.766 113.2v114.82l1.789 114.81v116.45l1.685 116.42 1.755 118.05 1.754 236.11 1.674 237.73v240.97l1.766 240.97 3.428 483.53 1.755 485.18 1.766 240.96 1.674 239.33 1.754 237.74 1.754 236.11 1.686 118.05v116.41l1.754 116.46 1.755 114.79v114.86l1.685 114.83 1.755 111.58 1.754 113.19v109.98l1.674 109.96 1.766 108.35 1.754 108.37 1.674 106.71 1.755 105.14 1.766 105.11 3.428 101.88 1.754 101.9 1.686 100.24 3.428 98.626 1.754 97.079 1.766-98.649 1.674-98.672v-101.88l1.755-101.86 1.766-103.52 1.674-105.11 1.754-106.73 1.754-108.35 1.686-108.39 1.754-109.96 1.755-111.6 3.44-111.56 1.754-113.19 1.674-114.83 1.754-114.81 1.766-116.45 1.674-116.43 3.509-118.04 1.686-118.06 1.754-118.05 5.194-239.35 5.194-240.97 3.429-244.21 5.194-244.18 10.389-490.02 8.623-490.02 5.195-244.18 5.183-242.58 3.521-240.97 5.194-240.96 1.674-118.05 3.521-118.06 1.674-118.05 1.754-116.42 1.755-114.82 1.685-116.44 1.755-113.19 3.428-113.23 1.766-113.19 1.754-109.97 1.674-109.95 1.755-109.97 1.766-106.74 1.674-106.74 1.754-105.12 1.686-103.48 1.754-103.5v-100.26l1.754-100.26 1.674-97.033 190.36-95.429 188.5-95.417 188.59-92.173 188.6-93.789 186.84-92.185 185.07-93.801 185.17-92.185 185.07-93.778 181.64-93.812 181.65-93.778 179.88-97.045 178.2-97.033 88.271-48.517 86.506-50.133 88.19-50.132 86.506-50.133 86.505-50.121 86.518-51.749 84.751-51.749 84.1-51z" fill="#fff" fill-opacity=".5412" stroke="#fff" stroke-opacity=".5412"/>
					<path d="m8943.9 3021c-949.75 375.2-1999.8 980.01-3058.6 1457.1-1003.4-223.17-2451.4-520.73-3181.4-640.39 939.4 273.29 2174.6 528.81 3114 802.11 55.362 2055.5 27.646 5168.5 82.997 7224 27.715-2073.2 102.09-5236.5 129.72-7308.1 1013.8-512.9 2008.5-972.2 2913.3-1534.9z" fill="none"/>
					<path d="m3058.5 9790.5l17.292 22.625 17.292 21.021 19.058 21.021 20.766 21.02 20.766 19.416 20.732 19.37 24.241 19.416 22.486 19.415 24.206 19.416 25.961 17.776 25.961 17.8 27.669 17.823 25.961 17.754 29.401 16.184 27.681 16.16 29.389 17.777 31.155 14.544 31.156 16.207 31.109 14.567 31.155 12.905 32.864 14.568 32.829 12.928 32.875 12.952 32.864 12.951 69.214 24.241 69.214 22.647 70.934 19.416 70.933 17.776 72.654 16.161 70.933 14.567 72.642 12.952 70.934 9.673 70.934 9.696 70.934 4.871 36.304 3.232 34.63 1.616 32.863 1.593h102.05l32.864-1.593 32.875-1.616 31.144-1.64 32.875-1.593 29.389-3.255 31.156-4.849 29.4-3.209 29.436-4.871 29.389-6.487 27.681-6.418 25.961-6.511 25.961-6.44 25.915-8.104 25.961-8.081-3.475-1.639h-1.708l-8.669-3.209-10.343-1.64-12.144-3.209-13.817-3.255-17.304-4.848-17.292-4.849-20.766-4.825-22.486-6.487-24.241-4.871-25.915-6.441-27.727-8.104-27.669-6.464-31.121-8.104-31.144-8.058-32.875-8.08-34.583-9.696-34.63-8.104-36.304-9.696-38.07-9.72-38.058-9.696-38.058-9.719-39.778-11.313-41.544-9.696-83.031-21.032-84.751-22.647-86.505-22.625-86.505-21.032-86.517-24.218-86.459-21.078-84.797-22.613-84.751-21.021-39.813-11.313-41.498-9.708-39.778-11.347-38.07-9.708-38.058-9.708-36.35-9.673-36.304-9.708-34.63-8.104-32.864-9.708-32.875-8.057-31.109-8.069-29.435-8.104-27.681-6.452-25.961-8.104-25.915-6.465-22.486-6.487-20.766-4.859-20.766-4.849-17.303-4.859-15.572-4.848-12.097-3.209-12.109-3.221-8.657-3.278h-3.474l-3.5-4z" fill="#010101" fill-opacity=".1608" stroke="#fff" stroke-opacity=".1608"/>
					<path d="m3058.5 9790.5c347.71 467.35 1441.1 696.97 1960.1 509.39-91.7-23-1844.2-473.9-1960.1-509.5z" fill="none"/>
					<path d="m4847.3 8925.3l-1619.3-583.81-15.572 6.452-13.864 6.499-13.817 6.418-10.377 8.104-10.389 9.708-10.377 9.708-8.635 11.313-8.669 9.708-6.903 11.347-6.949 11.278-5.194 11.347-5.148 12.917-5.194 12.963-3.475 11.313-5.195 24.265-3.474 24.264-3.428 22.625v59.818l1.708 6.498v9.707l252.58 82.466 1.72 1.604 1.755 1.65 1.72 1.604 1.72 3.244 3.475 3.209 1.708 4.859 5.195 4.849 3.474 4.859 5.195 6.453 5.195 6.464 5.194 6.499 6.903 8.057 6.915 6.499 6.949 9.708 8.623 6.418 17.292 19.416 17.292 17.812 22.486 19.381 22.532 19.404 24.195 21.078 25.961 19.404 29.401 20.975 29.389 19.415 32.875 19.439 32.875 17.765 36.338 17.812 38.058 16.161 19.012 6.498 19.058 8.046 20.766 6.476 20.732 6.465 22.521 4.848 20.732 4.86 22.486 4.848 22.521 4.86 22.486 3.243 22.486 1.593 24.206 3.267 24.241 1.604h76.082l25.961-1.604 25.961-3.267 25.961-3.221 27.681-3.22 27.681-4.86 27.669-6.452 27.681-6.499 29.401-8.069 29.436-9.708h1.708l3.439 1.604h5.195l10.377 1.604 10.389 1.628 12.098 1.628 13.863 1.581 15.572 1.662 17.292 1.604 19.012 1.604 20.767 1.651 20.778 1.604h20.767l22.486 1.604h44.973l24.194-1.604 22.533-1.604 24.195-1.651 22.486-3.209 22.486-3.243 20.778-4.86 20.767-4.813 20.766-4.848 17.292-8.104 19.012-8.104 15.572-9.708 13.864-9.708 13.817-12.917 5.194-6.51 5.194-6.407 5.183-6.498 3.486-6.453 3.429-8.104 3-8.1z" fill="#fff" fill-opacity=".3882" stroke="#fff" stroke-opacity=".3882"/>
					<path d="m4847.3 8925.3l-1619.3-583.81c-167.82 54.992-134.95 286.25-134.95 286.25l252.58 82.466s352.95 515.87 979.2 313.74c0.1 0 465.4 77.6 522.5-98.7z" fill="none"/>
					<path d="m4833.5 8728c-538.02-131.02-1076-260.34-1614.1-391.35-20.767 71.165-22.521 173.05 10.343 226.4 81.323 37.227 245.66 66.315 326.99 103.5 235.28 211.88 441.13 229.65 816.55 200.53 145.31 27.52 290.64 50.145 434.22 77.652 45.1-82.5 57.2-116.4 26.1-216.7z" fill="#616161"/>
					<path d="m4833.5 8728c-538.02-131.02-1076-260.34-1614.1-391.35-20.767 71.165-22.521 173.05 10.343 226.4 81.323 37.227 245.66 66.315 326.99 103.5 235.28 211.88 441.13 229.65 816.55 200.53 145.31 27.52 290.64 50.145 434.22 77.652 45.1-82.5 57.2-116.4 26.1-216.7z" fill="none"/>
					<path d="m9002.7 2975.7l-3136.4 1644.7 12.144 7356.6 3070.7-2416.1 53.6-6585.2z" fill="#fff" fill-opacity=".4" stroke="#fff" stroke-opacity=".4"/>
					<path d="m9002.7 2975.7l-3136.4 1644.7 12.144 7356.6 3070.7-2416.1 53.6-6585.2z" fill="none"/>
					<path d="m3240.2 10256l17.326 21.032 19.012 19.416 17.303 21.009 19.046 17.776 19.012 19.416 19.046 17.8 20.732 17.822 20.766 16.115 20.732 16.206 20.766 16.161 22.487 16.184 20.766 14.545 22.532 14.567 22.475 12.929 46.693 27.473 48.447 24.287 48.447 22.602 48.447 21.078 50.167 17.776 50.156 17.754 51.922 14.567 51.887 12.952 50.156 12.951 51.922 9.72 51.887 8.057 51.876 6.511 51.887 4.802 51.922 3.256 50.156 3.209h50.167l50.202-1.616 46.693-3.232 48.447-3.209 46.727-4.871 44.973-8.058 43.252-8.103 41.499-9.697 41.533-9.719 38.07-12.952-3.475-1.593h-6.915l-6.915-3.255-8.657-1.616-10.389-3.232-13.817-3.209-13.863-3.209-15.572-3.255-17.292-4.849-17.292-4.871-19.012-4.848-20.778-4.849-22.486-6.464-22.475-4.849-24.253-6.511-25.96-6.44-25.915-6.465-25.96-8.057-27.681-6.511-27.681-8.058-29.389-6.487-31.155-8.08-60.591-16.207-62.265-16.114-65.739-16.206-65.693-16.161-65.739-17.823-131.49-33.937-64.019-16.161-64.019-17.776-62.265-16.207-29.401-6.464-29.435-8.104-29.389-8.058-27.681-6.487-27.681-8.057-25.961-6.465-25.961-6.487-24.195-6.464-24.252-6.464-22.475-6.488-20.732-4.824-19.058-4.849-20.767-4.871-17.292-4.849-15.572-4.848-13.864-3.209-13.817-4.849-12.097-1.662-10.389-3.209-8.669-3.232-6.903-1.616-4.5-6z" fill="#010101" fill-opacity=".1608" stroke="#fff" stroke-opacity=".1608"/>
					<path d="m3240.2 10256c361.57 446.36 1084.7 522.36 1489.5 386.49-67.5-15-1401.3-358-1489.5-386z" fill="none"/>
					<path d="m3508.3 10714l20.766 24.264 20.766 22.648 22.486 22.647 24.206 19.416 24.241 21.009 24.206 17.776 25.961 17.8 27.681 17.8 25.961 14.545 29.389 14.567 27.681 14.545 29.389 11.335 31.155 11.313 29.401 11.313 31.144 8.104 31.155 8.104 31.109 8.034 32.875 4.871 31.156 6.511 32.864 3.186 31.155 3.209 32.875 1.64h65.693l31.155-1.64 32.864-3.209 31.155-3.186 32.875-4.872 31.109-6.51 31.155-6.465 31.155-8.08 29.389-9.696h-1.72l-3.475-1.639h-5.194l-6.903-1.57-5.195-1.639-8.669-3.232-8.623-1.64-10.389-3.231-10.377-1.616-10.389-3.209-12.098-3.256-13.863-3.255-13.817-3.209-13.864-4.849-15.572-3.209-15.537-3.255-32.864-9.696-34.63-8.104-38.023-9.72-38.059-9.719-39.778-9.674-39.825-11.289-83.031-21.078-83.031-21.009-39.79-11.313-39.778-9.696-39.813-9.72-36.304-9.696-36.35-9.719-32.864-9.697-15.583-3.209-15.572-4.871-15.583-3.209-13.817-3.232-13.852-3.255-12.109-3.209-12.097-3.255-10.389-3.256-10.377-3.209-8.669-3.231-8.623-1.616-8.669-1.64-5.194-1.615-5.195-1.594-5.195-1.639h-3.7v1z" fill="#010101" fill-opacity=".1608" stroke="#fff" stroke-opacity=".1608"/>
					<path d="m3508.3 10714c209.31 263.63 614.15 344.48 934.18 240.98-43.2-10-877.1-225-934.2-241z" fill="none"/>
					<path d="m2947.8 4342.2l-159.16 21.043-29.436 3514.2 2465.2 645.24 60.556-187.58-2368.4-590.27 31.2-3402.5z" fill="#FDFEFF" fill-opacity=".4392" stroke="#fff" stroke-opacity=".4392"/>
					<path d="m2947.8 4342.2l-159.16 21.043-29.436 3514.2 2465.2 645.24 60.556-187.58-2368.4-590.27 31.2-3402.5z" fill="none"/>
					<path d="m5272.9 5645.7l-3.475 98.637-2318.2-624.23 2321.7 525.6z" fill="#010101" fill-opacity=".2314" stroke="#fff" stroke-opacity=".2314"/>
					<path d="m5307.5 6360.5l-5.194 98.66-2316.4-624.25 2321.6 525.5z" fill="#010101" fill-opacity=".2314" stroke="#fff" stroke-opacity=".2314"/>
					<path d="m5272.9 7021.9l-3.475 98.66-2318.2-624.25 2321.7 525.5z" fill="#010101" fill-opacity=".2314" stroke="#fff" stroke-opacity=".2314"/>
					<path d="m5272.9 7672l-3.475 98.637-2318.2-625.83 2321.7 527.2z" fill="#010101" fill-opacity=".2314" stroke="#fff" stroke-opacity=".2314"/>
					<path d="m2956.4 4423.1l2304.4 538.53-19.046 3553h38.058l19.046-3565.9v-14.556l-13.852-3.232-2319.9-541.75-3.475 17.788-5.1 16.1zm2318.2 541.7l-13.817-3.232v-12.94h19.012l-5.2 16.1z" fill="#9E9E9E"/>
		</g>
	</g>
		<linearGradient id="c" x1="173.38" x2="357.65" y1="556.7" y2="556.7" gradientTransform="matrix(1 0 0 -1 8.3999 831.25)" gradientUnits="userSpaceOnUse">
		<stop stop-color="#F7941E" offset="0"/>
		<stop stop-color="#F7941E" offset=".007"/>
		<stop stop-color="#F7941E" offset=".211"/>
		<stop stop-color="#F7941E" offset=".7084"/>
		<stop stop-color="#F7941E" offset=".7903"/>
		<stop stop-color="#F7941E" offset=".8602"/>
		<stop stop-color="#7B7300" offset="1"/>
	</linearGradient>
	<path d="m181.78 183.36v151.97c0 16.781 41.247 30.396 92.138 30.396 50.889 0 92.135-13.615 92.135-30.396v-151.97h-184.28z" fill="url(#c)"/>
	<ellipse cx="273.92" cy="183.36" rx="92.135" ry="26.053" fill="#E4A124"/>
		<linearGradient id="d" x1="165.17" x2="349.18" y1="237.87" y2="237.87" gradientTransform="matrix(1 0 0 1.0014 16.74 13.26)" gradientUnits="userSpaceOnUse">
		<stop stop-color="#C0BEBF" offset="0"/>
		<stop stop-color="#FBFCFC" offset=".5"/>
		<stop stop-color="#C0BEBF" offset="1"/>
	</linearGradient>
	<path d="m273.92 313.33c-47.611 0-87.159-11.188-92.006-25.529v2.999c0 15.758 41.115 28.537 92.006 28.537 50.889 0 92.005-12.779 92.005-28.537v-2.999c-4.84 14.34-44.39 25.53-92 25.53zm0-52.11c-47.611 0-87.159-11.188-92.006-25.531v3.003c0 15.759 41.115 28.537 92.006 28.537 50.889 0 92.005-12.777 92.005-28.537v-3.003c-4.84 14.34-44.39 25.53-92 25.53zm0-46.1c50.889 0 92.005-12.775 92.005-28.535v-3.001c-4.847 14.345-44.39 25.529-92.005 25.529-47.611 0-87.159-11.184-92.006-25.529v3.001c0 15.77 41.12 28.54 92.01 28.54z" fill="url(#d)"/>
</svg>
