<?xml version="1.0" encoding="UTF-8"?>
<svg viewBox="0 0 500 500" xmlns="http://www.w3.org/2000/svg">
 <defs>
  <filter id="a">
   <feGaussianBlur stdDeviation="7.12511"/>
  </filter>
 </defs>
 <path d="m329.31 300.78 73.375 49.05-51.441-83.254 100.79 22.913-59.678-51.551h111.4l-103.44-31.505 91.505-39.991-77.05-16.125 39.931-49.35-62.926 9.2202 23.128-62.704-59.982 38.897-14.099-57.781-42.634 51.785c0-3.5968-25.025-51.051-26.351-51.051s-25.793 50.085-25.793 50.085l-44.651-46.255-11.206 54.416-41.827-46.592s-0.91459 52.052-3.5666 52.052-63.338-32.271-63.338-32.271 14.562 59.281 14.562 60.713-65.844-10.326-65.844-10.326l54.226 42.761-57.462 19.513s48.166 36.207 46.84 37.639-42.583 37.824-42.583 37.824 73.535-1.7913 72.209-1.7913c-0.14598 1.199-70.312 54.543-70.312 55.975s76.347-19.082 76.347-19.082l-51.442 74.533 85.775-60.446-11.046 66.802 43.457-42.388 16.974 44.053 34.919-39.525 196.01 174.77-154.92-175.47 64.849 26.905-4.7079-52.448z" fill-opacity=".49804" fill-rule="evenodd" filter="url(#a)"/>
 <path d="m307.02 286.21 73.375 49.05-51.441-83.254 100.79 22.913-59.678-51.551h111.4l-103.44-31.505 91.505-39.991-77.05-16.125 39.931-49.35-62.926 9.2202 23.128-62.704-59.982 38.897-14.099-57.781-42.634 51.785c0-3.5969-25.025-51.051-26.351-51.051s-25.793 50.085-25.793 50.085l-44.651-46.255-11.206 54.416-41.827-46.592s-0.9146 52.052-3.5666 52.052-63.338-32.271-63.338-32.271 14.562 59.281 14.562 60.713-65.844-10.326-65.844-10.326l54.226 42.761-57.462 19.513s48.166 36.207 46.84 37.639-42.583 37.824-42.583 37.824 73.535-1.7913 72.209-1.7913c-0.14598 1.199-70.312 54.543-70.312 55.975s76.347-19.082 76.347-19.082l-51.442 74.533 85.775-60.446-11.046 66.802 43.457-42.388 16.974 44.053 34.919-39.525 196.01 174.77-154.92-175.47 64.849 26.905-4.7079-52.448z" fill="#fff" fill-rule="evenodd" stroke="#000" stroke-linejoin="round" stroke-width="10"/>
</svg>
