<?xml version="1.0" encoding="UTF-8" standalone="no"?>
<!-- Created with Inkscape (http://www.inkscape.org/) -->
<svg xmlns:dc="http://purl.org/dc/elements/1.1/" xmlns:cc="http://web.resource.org/cc/" xmlns:rdf="http://www.w3.org/1999/02/22-rdf-syntax-ns#" xmlns:svg="http://www.w3.org/2000/svg" xmlns="http://www.w3.org/2000/svg" xmlns:sodipodi="http://inkscape.sourceforge.net/DTD/sodipodi-0.dtd" xmlns:inkscape="http://www.inkscape.org/namespaces/inkscape" width="64px" height="64px" id="svg1355" sodipodi:version="0.32" inkscape:version="0.43" sodipodi:docbase="/home/john/Desktop/SVG projects" sodipodi:docname="phoneicon.svg">
  <defs id="defs1357"/>
  <sodipodi:namedview id="base" pagecolor="#ffffff" bordercolor="#666666" borderopacity="1.0" inkscape:pageopacity="0.0" inkscape:pageshadow="2" inkscape:zoom="10.335716" inkscape:cx="35.674882" inkscape:cy="29.941262" inkscape:current-layer="layer1" showgrid="true" inkscape:document-units="px" inkscape:grid-bbox="true" inkscape:window-width="1280" inkscape:window-height="689" inkscape:window-x="0" inkscape:window-y="27"/>
  <metadata id="metadata1360">
    <rdf:RDF>
      <cc:Work rdf:about="">
        <dc:format>image/svg+xml</dc:format>
        <dc:type rdf:resource="http://purl.org/dc/dcmitype/StillImage"/>
      </cc:Work>
    </rdf:RDF>
  </metadata>
  <g id="layer1" inkscape:label="Layer 1" inkscape:groupmode="layer">
    <path style="fill:#000000" d="M 34.302362,58.701623 C 32.387377,58.094386 31.670772,57.223166 32.340819,56.316874 C 32.531791,56.058575 32.664076,55.829399 32.634779,55.807611 C 32.60549,55.785815 31.52813,55.029261 30.240664,54.126375 C 28.953189,53.223489 26.173108,51.261293 24.062708,49.765934 L 20.225622,47.047102 L 19.707876,47.362766 C 19.415578,47.540977 18.912274,47.678697 18.552062,47.679028 C 18.201131,47.679349 17.835447,47.758171 17.739437,47.854181 C 17.632153,47.961465 17.270866,47.993489 16.802038,47.937281 C 15.826509,47.820329 15.829355,47.820338 15.154121,47.930946 C 14.792798,47.990138 14.417913,47.93942 14.130078,47.792399 C 13.880344,47.664852 13.36975,47.561506 12.995426,47.562764 C 12.539232,47.564288 12.160767,47.451128 11.847517,47.219528 C 11.590485,47.029492 11.258689,46.886198 11.110189,46.901091 C 10.419797,46.970336 10.071832,46.856726 9.6343583,46.419253 C 9.3590918,46.143986 8.9958035,45.946614 8.7644056,45.946614 C 8.5260941,45.946614 8.1904142,45.757469 7.9255869,45.473976 C 7.6827582,45.214024 7.3652758,45.001338 7.2200817,45.001338 C 7.0748784,45.001338 6.7545681,44.782922 6.508278,44.515974 C 5.9274282,43.88639 5.8273972,43.785725 5.3400504,43.3403 C 5.1157404,43.135299 4.9322141,42.815025 4.9322141,42.628598 C 4.9322141,42.442161 4.7604216,42.1545 4.550453,41.989327 C 4.3404752,41.824163 4.1237674,41.484563 4.0688812,41.234655 C 4.013995,40.984739 3.8313134,40.655587 3.662918,40.503194 C 3.4833672,40.340703 3.3567563,40.021228 3.3567563,39.730638 C 3.3567563,39.458125 3.2813956,39.159795 3.1892882,39.067688 C 3.0971807,38.975581 3.0169539,38.66009 3.0110044,38.366608 C 3.0050457,38.073126 2.9340187,37.74929 2.8531492,37.646982 C 2.6756734,37.422461 2.6365241,36.609469 2.7911474,36.359296 C 2.8523229,36.260311 2.7919279,36.021623 2.6569251,35.828897 C 2.3768108,35.428966 2.3402415,34.873255 2.5662499,34.450949 C 2.6691638,34.258664 2.6645272,33.999703 2.552432,33.678144 C 2.4195501,33.296952 2.4368202,33.088343 2.6339808,32.693122 C 2.7715544,32.417341 2.8841179,31.932565 2.8841179,31.615844 C 2.8841179,31.299115 2.9882071,30.902361 3.1154241,30.734158 C 3.2426502,30.565955 3.3489888,30.207487 3.3517432,29.937564 C 3.3545068,29.667632 3.4985532,29.266526 3.6718515,29.04621 C 3.8451497,28.825894 3.9869376,28.506869 3.9869376,28.337253 C 3.9869376,28.167645 4.1128783,27.859794 4.2668039,27.653149 C 4.7052324,27.064523 4.8760885,26.6092 5.3241207,24.835462 C 6.0538188,21.946564 6.1189606,21.868871 9.2647257,20.135273 C 10.794415,19.292286 11.67578,18.861001 14.542514,17.552675 C 15.659344,17.042971 19.54308,15.618951 21.008664,15.181789 C 23.887298,14.32312 28.282509,13.498155 31.715017,13.172254 C 36.496883,12.718226 44.748561,13.213662 46.366786,14.051949 C 46.809089,14.28107 48.319432,15.827083 48.849849,16.593644 C 50.048228,18.325525 50.646358,20.265768 50.641969,22.406917 C 50.638361,24.168087 50.438804,24.704278 49.36396,25.840757 L 48.565346,26.685176 L 49.414733,27.532708 C 51.985873,30.098229 54.174251,32.755628 57.119504,36.888794 C 59.954847,40.867713 61.546841,44.110066 62.21013,47.256667 C 62.507102,48.665473 62.49703,48.879427 62.115755,49.260701 C 61.82735,49.549097 61.819417,49.605801 62.036979,49.823363 C 62.348842,50.135226 62.346575,50.821386 62.032195,51.270227 C 61.896495,51.463963 61.488842,51.78105 61.126307,51.974851 C 60.558577,52.278341 60.226754,52.327222 58.734139,52.327222 C 57.509024,52.327222 56.724118,52.243139 56.055862,52.040332 L 55.110585,51.753442 L 48.414882,54.034423 C 44.732255,55.288956 41.435603,56.417988 41.088998,56.543378 C 40.536206,56.743358 40.465307,56.824594 40.511673,57.204896 C 40.585253,57.808469 39.884393,58.498128 38.900518,58.790306 C 37.779501,59.123213 35.492809,59.079106 34.302362,58.701623 z M 38.83836,58.362473 C 39.598091,58.136841 40.202638,57.52213 39.931485,57.250977 C 39.780102,57.099585 39.358384,57.187231 37.949815,57.662825 L 36.160459,58.266987 L 34.630807,57.207925 L 33.101146,56.148855 L 32.785454,56.464556 C 32.013898,57.236112 33.334619,58.17375 35.811209,58.612665 C 36.376892,58.712926 38.152522,58.566171 38.83836,58.362473 z M 36.28079,56.699122 C 36.275107,55.311661 35.850781,52.96484 35.404851,51.854584 C 34.314858,49.140765 29.688313,41.687287 25.986543,36.681433 C 25.365598,35.841742 24.721764,34.942033 24.555811,34.682081 C 24.389849,34.422129 23.735015,33.563276 23.10062,32.773523 C 21.988013,31.38845 21.633667,30.804744 22.2368,31.350567 C 22.961963,32.006833 26.993739,37.510804 29.518238,41.290809 C 33.118563,46.681684 35.139574,50.225562 35.877297,52.441521 C 36.263382,53.601247 36.645869,56.525043 36.489648,57.122438 C 36.433256,57.338062 36.479934,57.447458 36.628323,57.447458 C 36.866369,57.447458 43.106492,55.334137 51.644574,52.361955 C 54.504036,51.366548 57.836128,50.215618 59.049234,49.804321 C 60.262331,49.393023 61.378951,48.992348 61.530581,48.91393 C 61.868923,48.738961 61.877379,48.243856 61.565094,46.891882 C 61.25705,45.55827 61.026597,45.001338 60.782823,45.001338 C 60.543235,45.001338 44.436863,50.31059 40.438277,51.707645 C 37.569698,52.709892 36.452812,53.040137 36.914038,52.749712 C 37.129855,52.613818 52.481253,47.414375 58.379665,45.479402 C 59.744411,45.031701 60.861011,44.604253 60.861011,44.529507 C 60.861011,44.247878 58.535629,39.83906 57.87233,38.863109 C 57.491809,38.30322 56.244456,36.595486 55.10044,35.068139 C 49.576416,27.693161 45.760742,24.439378 41.325317,23.321519 C 40.020204,22.992587 38.190505,23.103296 34.405946,23.74018 C 30.558624,24.387622 26.626044,25.484658 24.704228,26.44658 C 23.327868,27.135485 23.06776,27.451389 21.925212,29.821705 C 20.997904,31.745485 20.73146,32.162797 20.168652,32.572864 C 19.609323,32.980388 19.399777,33.044648 18.833287,32.982362 C 18.265144,32.919892 18.071536,32.979856 17.579819,33.370624 C 16.097571,34.548565 13.945734,35.221265 11.264574,35.344874 L 9.3257726,35.434255 L 9.4179076,37.024109 C 9.4685796,37.898533 9.561192,38.660632 9.6237079,38.717667 C 9.6862146,38.774701 11.338934,39.957583 13.29641,41.346292 C 16.586194,43.680194 16.903419,43.868752 17.489484,43.838628 C 17.838881,43.820669 18.244201,43.685345 18.392361,43.537185 C 18.698789,43.230757 19.297331,43.188147 19.76671,43.439349 C 20.260567,43.703653 20.715907,44.893126 20.6681,45.793983 L 20.626949,46.56923 L 22.350493,47.782235 C 23.298451,48.44939 24.712105,49.446477 25.491961,49.997983 C 31.432506,54.19911 36.066488,57.428903 36.165693,57.437377 C 36.230678,57.442922 36.28247,57.110704 36.28079,56.699122 z M 38.839646,50.11264 C 38.540453,49.903085 38.489496,49.722111 38.489496,48.869135 C 38.489496,48.104189 38.547733,47.848525 38.738697,47.775248 C 39.08656,47.641761 40.420456,47.660031 40.642554,47.801333 C 40.743613,47.865621 40.845609,48.335146 40.869214,48.844712 C 40.906509,49.649918 40.864706,49.8096 40.549859,50.064548 C 40.108565,50.421887 39.313092,50.444262 38.839646,50.11264 z M 40.23032,49.959982 C 40.61882,49.759093 40.695135,49.623273 40.695135,49.132869 L 40.695135,48.546116 L 39.671092,48.546116 L 38.647039,48.546116 L 38.647039,49.117628 C 38.647039,49.71337 38.824368,49.955676 39.355997,50.086345 C 39.529295,50.128946 39.692338,50.172025 39.718302,50.182079 C 39.744267,50.192123 39.974674,50.092184 40.23032,49.959982 z M 40.537592,48.169111 C 40.537592,47.978781 40.134301,47.837158 39.592316,47.837158 C 39.017259,47.837158 38.624967,47.989073 38.736016,48.168762 C 38.849663,48.352655 40.537592,48.352977 40.537592,48.169111 z M 43.465621,49.086788 C 43.213051,49.013392 42.948279,48.861725 42.877234,48.749731 C 42.649389,48.390593 42.721178,46.791226 42.974574,46.580927 C 43.268406,46.337061 44.744163,46.341523 45.040143,46.587161 C 45.380386,46.869534 45.342237,48.508041 44.988259,48.815635 C 44.613439,49.141334 44.018165,49.247342 43.465621,49.086788 z M 44.791328,48.624892 C 44.977159,48.43907 45.106423,48.099736 45.106423,47.797779 L 45.106423,47.285753 L 44.08237,47.285753 L 43.058327,47.285753 L 43.058327,48.022539 C 43.058327,48.591775 43.121026,48.775723 43.334034,48.831381 C 43.967915,48.99704 44.493686,48.922533 44.791328,48.624892 z M 44.944317,46.943692 C 45.099271,46.799747 44.532542,46.581616 44.003603,46.581616 C 43.356538,46.581616 42.836523,46.825978 43.220286,46.949706 C 43.347834,46.99082 43.558537,47.06069 43.688508,47.104963 C 43.925663,47.18575 44.805348,47.072773 44.944317,46.943692 z M 47.892793,47.830667 C 47.118987,47.605173 46.996976,47.401879 46.996976,46.338043 C 46.996976,45.212371 47.054222,45.158881 48.258973,45.158881 C 49.291151,45.158881 49.517711,45.412645 49.517711,46.568753 C 49.517711,47.112785 49.437897,47.546348 49.32078,47.638602 C 49.007328,47.885489 48.373474,47.970747 47.892793,47.830667 z M 49.055429,47.516527 C 49.283522,47.39446 49.360158,47.184593 49.360158,46.682106 L 49.360158,46.010783 L 48.336978,46.018082 L 47.313798,46.025381 L 47.312925,46.68183 C 47.312172,47.254904 47.367086,47.358359 47.745313,47.496502 C 48.323289,47.7076 48.687991,47.713173 49.055429,47.516527 z M 49.101281,45.668814 C 49.329438,45.539191 48.836747,45.321391 48.309608,45.318839 C 47.732826,45.316057 47.312062,45.450637 47.312062,45.637909 C 47.312062,45.897567 48.657711,45.920815 49.101281,45.668814 z M 51.509461,46.218814 C 51.327532,46.085785 51.203216,45.70699 51.139782,45.092389 C 51.058573,44.305592 51.087935,44.134424 51.335116,43.953689 C 51.70081,43.686291 52.99698,43.676063 53.336093,43.937897 C 53.744187,44.253001 53.764762,45.773243 53.366328,46.171677 C 53.065298,46.472707 51.897236,46.502362 51.509461,46.218814 z M 53.10621,46.016448 C 53.360562,45.838293 53.456351,45.612018 53.456351,45.189335 L 53.456351,44.607476 L 52.432307,44.607476 L 51.408255,44.607476 L 51.408255,45.252962 C 51.408255,45.766678 51.480622,45.933366 51.762738,46.069424 C 52.271367,46.314723 52.704755,46.297636 53.10621,46.016448 z M 52.944334,44.429394 C 53.139291,44.377152 53.298808,44.274991 53.298808,44.202366 C 53.298808,43.981389 52.241298,43.856624 51.771194,44.022145 L 51.329488,44.177659 L 51.72335,44.34319 C 52.188662,44.538753 52.463799,44.558181 52.944334,44.429394 z M 55.85893,44.838883 C 55.539162,44.710353 55.504456,44.589563 55.504456,43.605357 C 55.504456,42.755805 55.559609,42.493145 55.753657,42.418684 C 56.130332,42.274142 57.009181,42.303963 57.463521,42.476701 C 57.836991,42.6187 57.867639,42.703995 57.867639,43.601538 C 57.867639,44.34173 57.802065,44.622515 57.591931,44.782022 C 57.277635,45.020619 56.384004,45.049935 55.85893,44.838883 z M 57.405366,44.523154 C 57.61326,44.411894 57.710096,44.192863 57.710096,43.83389 L 57.710096,43.307716 L 56.686043,43.307716 L 55.661999,43.307716 L 55.661999,43.831604 C 55.661999,44.164346 55.7626,44.414088 55.937707,44.516075 C 56.297295,44.72552 57.020722,44.729009 57.405366,44.523154 z M 57.390584,42.959301 C 57.594759,42.830184 57.594759,42.802878 57.390584,42.730988 C 57.099755,42.628579 56.490663,42.580175 55.977095,42.618654 C 55.596068,42.647208 55.593194,42.65571 55.889036,42.879478 C 56.232327,43.139127 57.03847,43.181986 57.390584,42.959301 z M 40.093774,44.524963 C 37.139532,44.094816 33.493025,42.506458 31.430055,40.751183 C 28.369833,38.147412 27.009659,35.479455 27.191285,32.436916 C 27.546062,26.493855 35.045355,23.562153 43.611853,26.017627 C 48.316302,27.366085 51.933787,30.49435 53.060579,34.188527 C 53.681965,36.225725 53.524311,37.977116 52.542346,39.945583 C 50.901756,43.234338 45.323388,45.286419 40.093774,44.524963 z M 46.288019,43.748265 C 52.136016,42.247314 54.584474,37.393944 51.934751,32.555208 C 51.060198,30.958165 50.556867,30.346759 49.241939,29.284219 C 46.412729,26.998059 42.730488,25.717286 38.41072,25.516875 C 33.140773,25.272375 29.22526,27.295158 27.89074,30.951582 C 27.227037,32.770043 27.660389,35.588896 28.875065,37.354353 C 29.656766,38.49052 31.352399,40.225118 32.439987,41.00121 C 34.503287,42.473543 37.584085,43.699742 40.119868,44.057888 C 41.669306,44.276726 44.851356,44.116998 46.288019,43.748265 z M 42.533235,43.522706 C 42.287616,43.14785 42.32805,42.952957 42.651335,42.953554 C 42.745206,42.953728 42.836872,43.166414 42.855051,43.426192 C 42.894963,43.996667 42.852187,44.009493 42.533235,43.522706 z M 43.404923,43.551912 C 43.300944,43.447933 43.21587,43.29196 43.21587,43.205316 C 43.21587,43.11779 43.299898,43.131792 43.404923,43.236817 C 43.680309,43.512203 43.850899,43.468087 43.73997,43.150173 C 43.650295,42.89314 43.662562,42.892121 43.9211,43.135051 C 44.207209,43.40389 44.133997,43.740966 43.789494,43.740966 C 43.681962,43.740966 43.508902,43.655891 43.404923,43.551912 z M 44.594397,43.413255 C 44.257936,43.217288 44.226196,42.927635 44.555009,43.053814 C 44.684989,43.103687 44.791328,43.06183 44.791328,42.960798 C 44.791328,42.859766 44.862226,42.820911 44.94888,42.874465 C 45.131047,42.987056 45.164541,43.585782 44.988259,43.57863 C 44.923273,43.575995 44.746036,43.50158 44.594397,43.413255 z M 38.102997,43.122711 C 38.053501,43.042613 38.137932,42.944501 38.290637,42.904663 C 38.552949,42.836243 38.553059,42.83124 38.292565,42.813969 C 37.993528,42.794147 37.901274,42.32306 38.196418,42.32306 C 38.505435,42.32306 38.79933,42.848519 38.614721,43.070956 C 38.420718,43.304713 38.227561,43.324251 38.102997,43.122711 z M 36.754751,42.477344 C 36.661036,42.302255 36.627286,42.089569 36.67973,42.004706 C 36.84684,41.734305 37.144656,41.840589 37.327998,42.236058 C 37.470704,42.543872 37.46043,42.636595 37.275729,42.707466 C 36.949588,42.832617 36.943428,42.829899 36.754751,42.477344 z M 42.974519,42.464747 C 42.91675,42.282717 42.929696,42.075062 43.003285,42.003292 C 43.179319,41.8316 43.89967,42.423936 43.770002,42.633748 C 43.595033,42.916856 43.08352,42.808185 42.974519,42.464747 z M 47.82665,42.459532 C 47.681263,42.314145 47.730567,42.224131 48.044873,42.06107 C 48.579687,41.7836 48.602935,41.790229 48.543999,42.203289 C 48.486836,42.603964 48.106829,42.739711 47.82665,42.459532 z M 35.843776,42.001556 C 35.609853,41.626993 35.719772,41.352581 36.052578,41.480284 C 36.286134,41.569913 36.385889,42.32306 36.164205,42.32306 C 36.098393,42.32306 35.9542,42.17838 35.843776,42.001556 z M 48.923015,41.848705 C 48.786856,41.630675 48.79219,41.545169 48.945629,41.48628 C 49.05609,41.443899 49.226652,41.537631 49.324663,41.694577 C 49.460832,41.912616 49.455498,41.998123 49.302059,42.057003 C 49.191598,42.099393 49.021036,42.00566 48.923015,41.848705 z M 37.354459,41.574715 C 37.134896,41.140197 37.130425,41.062688 37.324923,41.062688 C 37.59435,41.062688 37.752095,41.399791 37.670803,41.801825 C 37.625851,42.024142 37.556348,41.974242 37.354459,41.574715 z M 49.695434,41.398497 C 49.354393,41.136231 49.346414,41.101672 49.604071,41.002807 C 49.890336,40.892952 50.140887,41.121164 50.145477,41.495939 C 50.148526,41.744597 50.144302,41.743679 49.695434,41.398497 z M 47.71573,41.208947 C 47.486361,40.977807 47.45531,40.85642 47.590891,40.720848 C 47.826255,40.485474 48.257339,40.82098 48.257339,41.239521 C 48.257339,41.610513 48.105727,41.601956 47.71573,41.208947 z M 39.183515,40.371699 C 36.922962,39.77143 34.945076,38.628635 33.539933,37.110919 C 32.42851,35.910446 31.949592,35.086942 31.624195,33.81682 C 31.196784,32.148474 31.608513,30.413324 32.699268,29.286128 C 32.971781,29.004517 33.101256,28.774111 32.987003,28.774111 C 32.818387,28.774111 32.819985,28.723907 32.995487,28.507549 C 33.142407,28.326419 33.148586,28.278905 33.014777,28.359297 C 32.906464,28.424375 32.817846,28.443775 32.817846,28.402422 C 32.817846,28.361078 32.774813,28.215094 32.722213,28.078035 C 32.582913,27.715022 33.017192,27.764877 33.250655,28.138696 C 33.439213,28.440635 33.472964,28.434759 34.569439,27.909291 C 35.188346,27.612687 36.071565,27.29178 36.532148,27.196165 C 37.426202,27.010555 37.456997,26.932136 36.948129,26.136819 C 36.747727,25.823606 36.752024,25.772558 36.986332,25.682645 C 37.41927,25.516517 37.604477,25.812331 37.688909,26.804782 C 37.696548,26.894585 38.332476,26.978631 39.167724,27.000235 C 39.993018,27.021581 41.173833,27.176425 41.870938,27.354709 C 42.551717,27.528824 43.135331,27.671291 43.167842,27.671291 C 43.200353,27.671291 43.151077,27.529494 43.058327,27.356196 C 42.947122,27.148404 42.944212,27.041101 43.049779,27.041101 C 43.137828,27.041101 43.256268,27.225968 43.312972,27.451921 C 43.382154,27.727536 43.603498,27.940939 43.985553,28.100346 C 45.776185,28.847489 47.898577,30.66393 48.755905,32.183023 C 49.018134,32.647683 49.268868,33.027847 49.313067,33.027847 C 49.357276,33.027847 49.604089,32.850609 49.861534,32.633984 C 50.788917,31.853642 51.130463,32.227369 51.221028,34.121558 C 51.283351,35.425073 51.268276,35.507237 50.951656,35.590035 C 50.767203,35.638274 50.422268,35.619323 50.18515,35.547929 C 49.802434,35.432694 49.793831,35.416599 50.108504,35.404581 C 50.756093,35.379837 50.47642,34.603304 49.819915,34.603304 C 49.74035,34.603304 49.675254,34.875624 49.675254,35.208448 C 49.675254,37.350718 48.140882,39.257981 45.649795,40.212209 C 44.72636,40.565931 44.24679,40.641007 42.585689,40.691871 C 40.881232,40.744067 40.423652,40.700998 39.183515,40.371699 z M 45.050444,39.945583 C 47.627791,39.159575 49.202615,37.391621 49.202615,35.284194 L 49.202615,34.603304 L 47.794001,34.603304 C 47.019259,34.603304 46.345246,34.538365 46.29619,34.458983 C 46.247125,34.3796 46.276634,34.131465 46.361763,33.907568 C 46.504231,33.532849 46.590976,33.500485 47.452822,33.500485 C 48.939037,33.500485 48.970107,33.463218 48.390524,32.375804 C 47.787749,31.24489 46.277873,29.791507 44.915653,29.03096 C 43.387773,28.177919 43.208672,28.136282 43.727896,28.754812 C 44.262968,29.392219 44.26418,29.481397 43.744276,29.963226 C 43.514999,30.175711 43.400985,30.349569 43.490916,30.349569 C 43.883851,30.349569 45.239424,31.800629 45.57481,32.580246 C 47.315221,36.625932 40.806597,38.529495 37.200157,35.029568 C 36.023776,33.887929 35.611919,32.118304 36.27103,31.037382 C 36.637642,30.436158 37.470466,29.781977 38.05496,29.636122 L 38.486934,29.528323 L 38.015582,29.088004 C 37.466141,28.574756 37.389174,27.922898 37.848949,27.676828 C 38.262744,27.455373 39.113205,27.475269 39.592316,27.717611 C 40.105168,27.977013 40.471193,28.710778 40.231688,28.999348 C 40.098016,29.160417 40.14025,29.230214 40.416114,29.304124 C 41.179379,29.508629 41.444215,29.43067 41.366541,29.024349 C 41.263333,28.484467 41.919149,28.075106 42.706901,28.187679 L 43.294646,28.27167 L 42.749677,28.036361 C 41.149117,27.345252 38.295925,27.176829 36.40058,27.661578 C 34.836075,28.061711 34.039353,28.482869 33.133767,29.388455 C 30.747503,31.774719 31.812697,35.863704 35.43694,38.229641 C 37.614879,39.651412 39.608172,40.242379 42.293391,40.262431 C 43.572639,40.271989 44.226582,40.19684 45.050444,39.945583 z M 41.85756,39.582083 C 41.401155,39.377743 40.852678,38.790897 40.852678,38.506899 C 40.852678,38.167281 41.525122,37.75422 42.077996,37.75422 C 42.952346,37.75422 43.681365,38.298997 43.686093,38.955914 C 43.690886,39.621884 42.702466,39.960355 41.85756,39.582083 z M 43.43087,39.139835 C 43.780551,38.581773 42.464724,37.728916 41.652008,37.986858 C 41.114154,38.157576 41.069616,38.710101 41.559726,39.131682 C 42.077656,39.577189 43.153896,39.581872 43.43087,39.139835 z M 37.902926,38.861346 C 37.220512,38.445256 37.058204,37.801009 37.537921,37.412554 C 38.622295,36.534485 40.777722,37.964226 39.817379,38.924569 C 39.476282,39.265666 38.513928,39.233889 37.902926,38.861346 z M 39.445129,38.851504 C 39.85852,38.63026 39.833538,37.988244 39.399718,37.684387 C 39.003515,37.406871 37.773873,37.352545 37.617459,37.605629 C 37.403442,37.951923 37.716205,38.563282 38.219279,38.782019 C 38.836442,39.050354 39.050854,39.06251 39.445129,38.851504 z M 44.677396,38.546251 C 43.994982,38.13017 43.832674,37.485913 44.3124,37.097459 C 44.747918,36.744794 45.286846,36.730259 45.966671,37.052856 C 47.106684,37.593831 46.970525,38.857655 45.772366,38.856452 C 45.44942,38.856131 44.956684,38.716537 44.677396,38.546251 z M 46.219599,38.536408 C 46.974996,38.132134 46.169239,37.124039 45.090723,37.124039 C 44.016632,37.124039 43.959221,38.01666 45.004069,38.471267 C 45.610654,38.735185 45.826563,38.746763 46.219599,38.536408 z M 34.75201,36.970793 C 34.18665,36.626078 33.939028,35.984898 34.233998,35.629478 C 34.339023,35.502922 34.664641,35.354414 34.95759,35.299454 C 35.608402,35.17736 36.659402,35.665423 36.714325,36.115255 C 36.73446,36.280161 36.710331,36.324976 36.660706,36.214836 C 36.532837,35.931049 35.740522,35.548581 35.280508,35.548581 C 34.654064,35.548581 34.393304,35.714534 34.393304,36.113217 C 34.393304,36.81549 35.698269,37.337506 36.363771,36.901455 C 36.769432,36.635664 36.900927,36.759034 36.567432,37.092529 C 36.27877,37.3812 35.319621,37.316875 34.75201,36.970793 z M 46.888003,36.649895 C 46.400087,36.453359 46.003048,35.792512 46.130889,35.389725 C 46.364646,34.653224 47.76822,34.629793 48.488801,35.350365 C 48.945877,35.80745 48.995594,36.205737 48.639954,36.561377 C 48.371592,36.82973 47.450058,36.876289 46.888003,36.649895 z M 48.267695,36.488312 C 48.694858,36.259705 48.646867,35.787544 48.157317,35.402469 C 47.471423,34.862944 46.366786,34.997011 46.366786,35.619792 C 46.366786,36.364097 47.517459,36.889832 48.267695,36.488312 z M 33.03841,34.382741 C 32.411938,33.756278 32.388424,33.614811 32.836254,33.166981 C 33.107279,32.895956 33.300969,32.848259 33.870113,32.912409 C 35.602765,33.107706 35.908431,34.9184 34.208749,34.9184 C 33.697007,34.9184 33.470301,34.814632 33.03841,34.382741 z M 34.887876,34.455631 C 35.186913,34.210232 35.226797,34.094436 35.0914,33.864838 C 34.841437,33.440944 33.909455,33.035201 33.413735,33.134451 C 32.561924,33.305004 32.718861,34.121751 33.684282,34.542505 C 34.322148,34.820499 34.454938,34.810913 34.887876,34.455631 z M 33.292164,31.964167 C 32.576514,31.605561 32.328874,30.960368 32.734754,30.511886 C 33.408639,29.767241 35.33858,30.45666 35.33858,31.442032 C 35.33858,31.764647 34.704827,32.240113 34.27514,32.239874 C 34.036856,32.239737 33.594516,32.115669 33.292164,31.964167 z M 34.774284,31.829394 C 35.218304,31.659015 35.070696,31.003906 34.511459,30.662929 C 33.606332,30.111065 32.676701,30.395944 32.869959,31.165958 C 33.019377,31.761286 34.032228,32.114145 34.774284,31.829394 z M 35.019151,29.925445 C 34.515526,29.580795 34.398656,29.402934 34.395709,28.976588 C 34.390494,28.222109 36.014246,28.017539 36.68488,28.688173 C 37.099952,29.103245 37.189112,29.696379 36.882528,30.002963 C 36.604975,30.280516 35.468937,30.23325 35.019151,29.925445 z M 36.724985,29.84542 C 37.05612,29.514276 36.929656,29.094091 36.402012,28.772385 C 35.785373,28.396408 35.135268,28.369736 34.798422,28.706591 C 34.454011,29.051003 34.4824,29.161142 35.035577,29.62661 C 35.556436,30.064882 36.396687,30.173718 36.724985,29.84542 z M 43.81365,36.14268 C 45.156994,35.648456 45.79015,34.425764 45.409537,33.060835 C 45.138246,32.087978 43.868702,30.800007 42.62795,30.238878 C 41.564537,29.757959 39.459718,29.572284 38.378503,29.864031 C 35.427337,30.660331 35.699711,34.211545 38.83377,35.799691 C 40.499526,36.643789 42.143753,36.757032 43.81365,36.14268 z M 39.785841,35.395895 C 38.134884,34.801787 37.071581,33.562073 37.071581,32.231317 C 37.071581,29.300304 42.267389,29.079153 44.18118,31.928709 C 44.704628,32.708115 44.78491,33.696525 44.387219,34.465584 C 43.816708,35.568817 41.543539,36.028408 39.785841,35.395895 z M 43.410157,34.944374 C 44.037721,34.556516 44.318689,34.028184 44.318689,33.235961 C 44.318689,32.475826 43.829332,31.732907 42.941072,31.144547 C 41.09211,29.919844 38.90039,29.896873 37.851749,31.091212 C 36.678582,32.427367 37.777509,34.408751 40.11603,35.173761 C 41.054935,35.480905 42.730864,35.364201 43.410157,34.944374 z M 51.093169,34.751556 C 51.093169,34.320757 51.051669,34.288374 50.502366,34.290541 C 49.923444,34.292818 49.919487,34.296849 50.305435,34.491411 C 50.52206,34.600614 50.722095,34.848759 50.749951,35.042835 C 50.8214,35.540612 51.093169,35.309967 51.093169,34.751556 z M 49.796319,34.106583 C 50.861009,33.957818 51.086742,33.878629 51.031947,33.67314 C 50.995075,33.534851 50.921523,33.226752 50.868491,32.988458 C 50.81546,32.750175 50.709232,32.555208 50.632429,32.555208 C 50.555636,32.555208 50.197435,32.801976 49.836433,33.103584 C 49.081449,33.734353 48.129654,34.039743 47.275722,33.925215 C 46.698582,33.847797 46.321971,34.02296 46.720287,34.183551 C 47.076202,34.327037 48.467858,34.292221 49.796319,34.106583 z M 43.541322,29.871385 C 44.290411,29.470481 43.491816,28.459016 42.42619,28.459016 C 42.095128,28.459016 41.750818,28.562306 41.641064,28.694545 C 41.361519,29.031382 41.780299,29.618677 42.453615,29.834063 C 43.155631,30.05863 43.18929,30.059787 43.541322,29.871385 z M 39.970138,28.883287 C 40.114083,28.647206 40.055874,28.519438 39.629216,28.134941 C 39.096476,27.654857 38.535935,27.551034 38.006501,27.834371 C 37.58537,28.059755 37.625346,28.403239 38.126768,28.867945 C 38.641108,29.344614 39.683542,29.35329 39.970138,28.883287 z M 32.542139,40.32817 C 32.318214,40.237807 32.275356,39.706546 32.481698,39.579017 C 32.675507,39.459236 33.184981,40.063288 33.060298,40.26503 C 32.950057,40.443396 32.856095,40.454845 32.542139,40.32817 z M 51.042423,39.847672 C 50.992963,39.767648 51.090488,39.602714 51.259149,39.481152 C 51.427811,39.359582 51.565807,39.155251 51.565807,39.027079 C 51.565807,38.855406 51.612164,38.840385 51.741814,38.970044 C 51.871473,39.099694 51.814392,39.257614 51.525088,39.569615 C 51.309078,39.802564 51.091874,39.927697 51.042423,39.847672 z M 31.40746,39.501305 C 31.153301,39.026399 31.191945,38.776611 31.482306,39.017585 C 31.682919,39.18408 31.705973,39.17433 31.623001,38.958099 C 31.568418,38.815871 31.597468,38.699497 31.687546,38.699497 C 31.977576,38.699497 32.065828,39.316466 31.812101,39.570202 C 31.597725,39.784578 31.555188,39.777343 31.40746,39.501305 z M 32.607785,39.06711 C 32.550016,39.00934 32.50275,38.797343 32.50275,38.596014 C 32.50275,38.245047 32.515751,38.241081 32.817846,38.499738 C 32.991144,38.648118 33.132932,38.860116 33.132932,38.970834 C 33.132932,39.182675 32.786804,39.246128 32.607785,39.06711 z M 30.454654,38.480035 C 30.454654,38.045462 30.866521,37.82275 31.183581,38.085888 C 31.493002,38.342691 31.454009,38.46674 30.99865,38.674211 C 30.46379,38.917912 30.454654,38.914653 30.454654,38.480035 z M 51.810444,38.712957 C 51.761462,38.633703 51.790677,38.545085 51.875357,38.516026 C 52.049894,38.456126 52.167067,37.931154 52.184282,37.131917 C 52.192958,36.729213 52.241923,36.634323 52.373271,36.765672 C 52.52671,36.919111 52.489746,37.442421 52.267282,38.266247 C 52.249736,38.331232 52.226516,38.490749 52.215682,38.62073 C 52.193886,38.882234 51.949441,38.937863 51.810444,38.712957 z M 50.568013,38.279376 C 50.335467,38.04683 50.470314,37.596677 50.772528,37.596677 C 51.089028,37.596677 51.477207,38.105398 51.297684,38.284922 C 51.16662,38.415986 50.701088,38.412451 50.568013,38.279376 z M 51.093169,38.069316 C 51.093169,37.982662 50.982643,37.911773 50.847549,37.911773 C 50.712463,37.911773 50.645752,37.982662 50.699306,38.069316 C 50.752852,38.155969 50.863387,38.226859 50.944917,38.226859 C 51.026457,38.226859 51.093169,38.155969 51.093169,38.069316 z M 28.959552,36.181333 C 28.905134,36.093275 28.90046,35.95672 28.949177,35.877889 C 29.088991,35.651669 28.873715,35.245477 28.657898,35.328302 C 28.550531,35.369499 28.380676,35.22323 28.280452,35.003263 C 28.180219,34.783287 28.126352,34.603304 28.160727,34.603304 C 28.195111,34.603304 28.335384,34.560271 28.472444,34.507681 C 28.635973,34.444926 28.721644,34.499087 28.721644,34.665224 C 28.721644,34.804468 28.774823,34.918951 28.839808,34.91963 C 28.97897,34.921071 29.351835,35.682005 29.351835,35.964561 C 29.351835,36.230224 29.081948,36.379366 28.959552,36.181333 z M 29.982016,35.417297 C 29.982016,35.330643 30.035185,35.230015 30.100171,35.193666 C 30.165166,35.157326 30.127036,35.15022 30.015436,35.177883 C 29.740822,35.245954 29.581305,34.783452 29.802961,34.561795 C 30.012085,34.352672 30.473155,34.850862 30.412512,35.22043 C 30.370388,35.477187 29.982016,35.654782 29.982016,35.417297 z M 28.280516,34.099156 C 28.176537,33.995177 28.093721,33.80022 28.096476,33.665905 C 28.10069,33.460427 28.134661,33.465421 28.310778,33.697416 C 28.425885,33.849055 28.60505,33.973123 28.708928,33.973123 C 28.812806,33.973123 28.853975,34.044022 28.80042,34.130666 C 28.671505,34.339267 28.510895,34.329535 28.280516,34.099156 z M 28.310448,31.542807 C 28.19165,31.233211 28.339552,30.822207 28.569775,30.822207 C 28.673809,30.822207 28.703098,30.963655 28.643171,31.176681 C 28.566415,31.44957 28.580591,31.477068 28.704769,31.296149 C 28.793498,31.166894 28.823989,30.893427 28.772546,30.688444 C 28.679823,30.319004 28.964032,29.970948 29.226151,30.132944 C 29.415553,30.249997 29.376982,30.787566 29.17435,30.855113 C 29.076724,30.887652 28.988106,31.087567 28.977409,31.299381 C 28.954989,31.743511 28.457184,31.925192 28.310448,31.542807 z M 29.826621,31.403562 C 29.835371,30.640591 30.2526,30.224106 30.409005,30.822207 C 30.454324,30.995506 30.559937,31.137293 30.643699,31.137293 C 30.727469,31.137293 30.766821,31.224838 30.73116,31.331819 C 30.646618,31.585445 29.823784,31.650706 29.826621,31.403562 z M 29.344609,29.863434 C 29.141921,29.484721 29.295305,29.218168 29.515529,29.566399 C 29.670088,29.810797 29.717721,30.192017 29.59369,30.192017 C 29.553421,30.192017 29.441335,30.04416 29.344609,29.863434 z M 31.193148,28.042173 C 30.961392,27.810417 31.083275,27.332793 31.360543,27.386192 C 31.512182,27.415388 31.63625,27.574199 31.63625,27.739087 C 31.63625,28.052529 31.379273,28.228306 31.193148,28.042173 z M 31.903795,27.440591 C 31.8065,27.22706 31.785649,27.016045 31.857447,26.971671 C 32.047043,26.854499 32.552532,27.463288 32.430108,27.661357 C 32.264586,27.929187 32.093767,27.857535 31.903795,27.440591 z M 32.64957,27.17861 C 32.509673,26.917217 32.517119,26.813761 32.683412,26.708387 C 33.029641,26.488998 33.08215,26.542663 33.008993,27.041101 C 32.926498,27.603184 32.885246,27.618967 32.64957,27.17861 z M 36.056655,26.446305 C 35.918301,26.307941 35.954126,25.780738 36.101891,25.780738 C 36.175113,25.780738 36.355187,25.913519 36.502052,26.075809 C 36.754237,26.354463 36.751721,26.375415 36.456815,26.452539 C 36.285069,26.497445 36.104995,26.494644 36.056655,26.446305 z M 37.912218,26.164014 C 37.794715,25.857788 38.080632,25.546641 38.335038,25.703872 C 38.476954,25.791581 38.470656,25.853372 38.309385,25.955561 C 38.152099,26.055224 38.147656,26.091638 38.292565,26.093419 C 38.400878,26.094741 38.489496,26.166723 38.489496,26.253377 C 38.489496,26.50737 38.015839,26.434047 37.912218,26.164014 z M 60.579694,51.583954 C 61.767129,51.239506 62.173212,50.180445 61.210482,49.938809 C 60.734309,49.819305 56.065429,51.296807 56.270595,51.502084 C 56.665036,51.896735 59.327035,51.947306 60.579694,51.583954 z M 17.451152,47.496117 C 17.972883,47.258402 18.202004,46.478096 18.137422,45.158881 C 18.093654,44.264698 18.046168,44.128952 17.762978,44.088444 C 17.584594,44.062929 17.239778,44.198482 16.99672,44.389675 C 16.597358,44.703806 16.563929,44.804021 16.649729,45.42997 C 16.711905,45.883639 16.66373,46.316357 16.510089,46.684052 C 16.381082,46.992822 16.275524,47.274533 16.275524,47.310065 C 16.275524,47.359342 16.731553,47.580649 17.016451,47.669626 C 17.034033,47.675126 17.229651,47.597047 17.451152,47.496117 z M 15.822984,47.261579 C 15.941901,47.118303 16.0839,46.533414 16.138538,45.961819 C 16.193176,45.390233 16.290058,44.763045 16.353841,44.568087 C 16.452384,44.266893 16.413116,44.213604 16.092631,44.213604 C 15.337721,44.213604 14.542514,44.964429 14.542514,45.677206 C 14.542514,45.929161 14.424955,46.383041 14.281276,46.685834 C 14.059133,47.153964 14.053239,47.257373 14.241888,47.376796 C 14.616846,47.614171 15.589125,47.543318 15.822984,47.261579 z M 19.764617,46.52718 C 20.233417,45.409009 19.804528,43.822561 19.062004,43.928247 C 18.752941,43.972244 18.707594,44.098883 18.62139,45.158881 C 18.568542,45.808756 18.46976,46.507247 18.401873,46.711082 C 18.117682,47.564343 19.402467,47.390962 19.764617,46.52718 z M 13.630878,46.93127 C 13.762887,46.77964 13.910386,46.343378 13.958643,45.961809 C 14.0069,45.58025 14.196395,45.065157 14.379746,44.817169 C 14.667096,44.428494 14.679426,44.353345 14.469081,44.272622 C 14.064844,44.117503 13.143494,44.364059 12.816729,44.714787 C 12.648086,44.895807 12.467112,45.239668 12.414558,45.478925 C 12.362013,45.718182 12.181489,46.038391 12.013406,46.190508 C 11.767942,46.412651 11.745365,46.512342 11.898712,46.697108 C 12.336103,47.224128 13.266442,47.349894 13.630878,46.93127 z M 11.53771,46.161679 C 11.717298,45.933375 11.864236,45.604985 11.864236,45.431944 C 11.864236,45.258893 12.117633,44.878326 12.427348,44.58623 C 12.878217,44.161004 12.940953,44.036156 12.742085,43.95984 C 12.284256,43.784155 11.661769,44.0692 10.933072,44.788183 C 10.535381,45.180576 10.11043,45.557517 9.9887314,45.625845 C 9.5192882,45.889378 10.179584,46.537812 10.946917,46.566806 C 11.092258,46.572297 11.358123,46.389992 11.53771,46.161679 z M 10.446322,44.607476 C 10.96472,44.130898 11.527087,43.740966 11.696025,43.740966 C 12.093366,43.740966 12.250395,43.486862 11.929222,43.363612 C 11.792658,43.311205 11.381177,43.268328 11.014822,43.268328 C 10.454915,43.268328 10.218247,43.379698 9.5303426,43.966883 C 9.0802354,44.351095 8.5704768,44.710344 8.3975458,44.76523 C 7.7784189,44.961739 8.2012023,45.473976 8.9825181,45.473976 C 9.3950827,45.473976 9.7003448,45.293278 10.446322,44.607476 z M 9.0539767,43.842659 C 9.5171765,43.465341 10.059125,43.104899 10.258315,43.041686 C 10.561722,42.945382 10.588164,42.887824 10.421348,42.686826 C 10.097329,42.296407 8.9074696,42.495532 8.1092418,43.073756 C 7.7382504,43.342504 7.226123,43.608203 6.9711933,43.6642 C 6.435681,43.781814 6.4126082,43.847424 6.7684136,44.240588 C 7.2460099,44.768324 8.1001981,44.619604 9.0539767,43.842659 z M 15.330247,43.896103 C 15.488497,43.792216 15.510992,43.701936 15.398318,43.622811 C 15.305788,43.557825 14.63228,43.071883 13.901636,42.542954 C 12.666504,41.648808 12.498209,41.574504 11.505621,41.485059 C 10.918455,41.432156 10.120879,41.248565 9.7332232,41.077085 C 9.3455768,40.905614 9.0284066,40.785237 9.0284066,40.809586 C 9.0284066,40.97328 10.290459,42.122677 10.643253,42.280293 C 10.881546,42.386742 11.076512,42.546259 11.076512,42.634768 C 11.076512,42.723276 11.241593,42.795689 11.443363,42.795689 C 11.645132,42.795689 12.157379,43.025646 12.581677,43.306687 C 13.0767,43.634572 13.636818,43.852446 14.144768,43.914696 C 14.580157,43.968049 14.971825,44.020594 15.015152,44.031464 C 15.058479,44.042335 15.200267,43.981426 15.330247,43.896103 z M 19.190121,43.539187 C 19.462109,43.472925 19.466085,43.459924 19.219152,43.444151 C 18.846866,43.420371 18.32362,43.70335 18.32362,43.928477 C 18.32362,44.03275 18.436367,44.004921 18.599327,43.860425 C 18.750957,43.725964 19.016822,43.581412 19.190121,43.539187 z M 7.8359952,42.716922 C 8.4076637,42.413644 9.0161678,42.165508 9.1882174,42.165508 C 9.5744866,42.165508 9.5885065,41.974912 9.2253468,41.660735 C 8.706967,41.21228 8.2866992,41.230028 7.4977078,41.733681 C 7.0282371,42.033361 6.4617836,42.242778 5.9956549,42.288979 C 5.1694606,42.370858 5.137335,42.411036 5.492562,42.918187 C 5.8534631,43.433454 6.6074092,43.368698 7.8359952,42.716922 z M 7.2530336,41.33992 C 7.8395667,41.059144 8.3548984,40.804903 8.3982252,40.774944 C 8.4415521,40.744986 8.3023075,40.578858 8.0887857,40.405762 C 7.7985169,40.170443 7.5401716,40.108827 7.0647422,40.161528 C 6.3585024,40.239818 4.5731402,40.958324 4.4938591,41.196167 C 4.408858,41.45117 5.128576,41.850422 5.6732421,41.850422 C 5.9555966,41.850422 6.6665097,41.620695 7.2530336,41.33992 z M 11.39561,40.778718 C 11.181189,40.631623 10.69779,40.277627 10.321391,39.992059 C 9.6393989,39.474643 9.0284066,39.415689 9.0284066,39.867293 C 9.0284066,40.351114 10.408439,41.038202 11.391598,41.043885 L 11.78546,41.046162 L 11.39561,40.778718 z M 5.5624047,40.101326 C 5.952328,39.922978 6.5549377,39.726561 6.9015434,39.664835 L 7.5317248,39.552602 L 7.0839588,39.25597 C 6.0576475,38.576053 3.8293945,38.886907 3.8293945,39.709989 C 3.8293945,40.479488 4.4360716,40.616483 5.5624047,40.101326 z M 8.6302659,40.11048 C 8.5743605,40.020025 8.6264556,39.789609 8.7460429,39.598463 C 8.9105087,39.335563 8.9484277,38.767981 8.9016854,37.268251 L 8.8398948,35.28559 L 8.3039143,35.091781 C 8.0091282,34.985176 7.5522727,34.716501 7.288694,34.494716 C 6.7780449,34.065029 6.6419312,34.076129 6.6589534,34.546114 C 6.6945587,35.529511 7.1603294,37.962536 7.3635772,38.226859 C 7.4635164,38.356839 7.6387795,38.746763 7.7530324,39.093368 C 7.8672945,39.439965 8.1123726,39.846038 8.2976618,39.995749 C 8.6881544,40.311267 8.7722924,40.340299 8.6302659,40.11048 z M 4.176092,38.682585 C 4.5807882,38.465996 6.4131683,38.480292 6.8298278,38.70328 C 7.3258694,38.96875 7.1881214,38.618728 6.5898177,38.093407 C 6.0063145,37.581078 5.1819105,37.342308 4.5468631,37.501687 C 3.9525625,37.650856 3.2863627,38.288805 3.4042055,38.595904 C 3.5213414,38.901156 3.7249657,38.924027 4.176092,38.682585 z M 6.3693456,36.993489 C 5.7267052,36.090979 4.0711858,35.73914 3.4062989,36.363776 C 2.9825238,36.761889 2.9481396,37.00784 3.2779893,37.281591 C 3.4619838,37.434296 3.5646499,37.43593 3.7417033,37.288982 C 4.0814505,37.007022 5.5634697,37.024889 6.1138099,37.317573 C 6.7205971,37.64027 6.7780357,37.567435 6.3693456,36.993489 z M 6.24088,36.003802 C 5.8538395,35.337391 4.9759266,34.631308 4.2697879,34.418511 C 3.490088,34.183542 2.8396618,34.560354 2.9139941,35.203968 C 2.9614801,35.615137 2.9886019,35.625805 3.8534405,35.573811 C 4.7467598,35.5201 6.0080865,35.910336 6.2603261,36.318457 C 6.5166698,36.733243 6.4990691,36.448364 6.24088,36.003802 z M 6.0453077,34.405244 C 5.2484112,32.80002 2.7529622,31.939442 2.9155458,33.32592 C 2.9555673,33.667273 3.0671301,33.747399 3.636797,33.84395 C 4.477149,33.986381 5.8425373,34.716263 6.0725213,35.145987 C 6.4067321,35.770467 6.3814467,35.082361 6.0453077,34.405244 z M 13.406953,34.669245 C 15.028915,34.336457 17.017837,33.387866 17.979301,32.488533 C 18.8309,31.691958 19.641247,30.316195 19.877079,29.266581 C 19.992076,28.754775 19.971372,28.422483 19.791601,27.894904 C 19.661125,27.511958 19.498734,27.198653 19.430746,27.198653 C 19.362749,27.198653 19.213267,27.425222 19.098564,27.702141 C 18.604138,28.89581 15.860875,31.277833 14.148652,32.00025 C 12.421371,32.729021 11.478647,32.929725 9.737364,32.939421 C 8.784219,32.944737 7.7916767,32.91363 7.5317248,32.870303 C 6.862642,32.758787 6.8125576,33.280811 7.4351093,33.87726 C 8.4598414,34.859005 10.902929,35.183016 13.406953,34.669245 z M 6.2485097,33.461097 C 6.112855,32.720225 5.6095601,32.037701 4.7829068,31.473598 C 3.8946098,30.867435 3.4217695,30.83182 3.320141,31.36343 C 3.2216616,31.878597 3.3090866,31.97254 4.1969246,32.305604 C 4.6197631,32.46423 5.2502291,32.88761 5.6148394,33.257775 C 5.9759241,33.624369 6.2873101,33.935287 6.3068022,33.948719 C 6.3263034,33.962142 6.300063,33.742717 6.2485097,33.461097 z M 6.3564458,31.14967 C 5.9915416,30.434414 4.54959,29.206774 4.16075,29.280326 C 4.0095421,29.308926 3.8894957,29.517802 3.8616395,29.800753 C 3.8208191,30.215438 3.9165991,30.341701 4.6426064,30.830269 C 5.1075415,31.143151 5.7146684,31.751729 6.0282763,32.219244 L 6.5864482,33.05136 L 6.6343841,32.419893 C 6.6653253,32.012305 6.5667909,31.561977 6.3564458,31.14967 z M 20.007042,32.307302 C 20.385433,32.018695 20.836771,31.303632 21.573236,29.825956 C 22.142278,28.684216 22.848325,27.499756 23.142239,27.193833 C 23.673464,26.640876 23.67575,26.632071 23.53073,25.697151 C 23.450503,25.179891 23.307467,24.234394 23.21289,23.596042 C 23.118303,22.95768 22.894719,22.000587 22.71604,21.469169 C 22.1528,19.794075 21.790641,19.647642 21.787483,21.093743 C 21.78493,22.259171 21.665876,22.787365 21.405749,22.787365 C 21.015367,22.787365 19.906359,23.925579 19.534587,24.707804 L 19.149135,25.518812 L 19.681654,26.629987 C 20.500568,28.338786 20.326333,29.922792 19.127825,31.664763 C 18.858811,32.05576 18.638706,32.451505 18.638706,32.544209 C 18.638706,32.858983 19.473164,32.714514 20.007042,32.307302 z M 12.942514,31.948807 C 15.403285,31.11243 17.716925,29.352601 18.762425,27.521993 C 19.434648,26.344979 19.210421,26.16597 18.486176,27.301457 C 17.228247,29.273678 14.893885,30.973048 12.494417,31.66334 C 10.907116,32.119984 8.7458593,32.326813 7.807432,32.111877 C 7.2795953,31.990986 7.1378626,32.002683 7.1378626,32.167139 C 7.1378626,32.471814 7.6331697,32.53522 9.6585971,32.4898 C 11.214701,32.454911 11.678112,32.378568 12.942514,31.948807 z M 11.549141,31.680913 C 12.112372,31.549215 12.960702,31.297389 13.434332,31.121318 C 15.34323,30.411644 17.592783,28.490205 18.518816,26.77844 L 18.95034,25.980782 L 18.459706,25.289958 C 18.189857,24.910014 17.751355,24.368727 17.48526,24.087116 C 16.741671,23.300181 17.219377,23.479962 18.008525,24.284047 C 18.391213,24.67398 18.75351,24.993005 18.813648,24.993005 C 18.873777,24.993005 18.993263,24.791373 19.079173,24.544945 C 19.302638,23.903911 20.162666,22.977594 20.868823,22.617336 L 21.474536,22.308319 L 21.474536,21.208703 C 21.474536,19.818681 21.632455,19.650818 23.307999,19.259747 C 24.985058,18.868318 25.311052,18.958544 25.664314,19.911854 C 25.81689,20.323611 25.954895,20.680334 25.970981,20.704573 C 25.987076,20.728821 27.091107,20.469181 28.424379,20.127607 C 29.75766,19.786023 31.726292,19.361055 32.799116,19.18323 C 33.871949,19.005405 34.764506,18.839663 34.782575,18.814929 C 34.800653,18.790185 34.879971,18.344567 34.958848,17.824673 C 35.094347,16.931519 35.132661,16.869021 35.653666,16.691352 C 36.482881,16.408576 38.725521,16.428967 39.018508,16.721954 C 39.31154,17.014986 39.653353,18.177017 39.991668,20.030312 C 40.352845,22.008868 40.37813,22.052434 41.390413,22.439805 C 44.151837,23.496543 48.99979,23.554762 49.840895,22.541287 C 50.472637,21.780087 48.929048,16.978931 47.784701,16.14575 C 47.102544,15.649075 45.1502,15.471755 40.380049,15.473206 C 36.30098,15.474445 35.637617,15.51331 33.132932,15.89778 C 28.704301,16.577595 25.733982,17.28311 21.868398,18.573349 C 18.068057,19.841818 10.922531,23.126654 10.131171,23.969025 C 9.6621503,24.468271 9.2993211,26.511281 9.4037224,28.065154 C 9.4682766,29.026029 9.4492803,29.231931 9.3237986,28.931654 C 9.1521806,28.520999 9.2105832,24.481814 9.3944125,24.047728 C 9.4654763,23.87993 9.1320275,23.549566 8.2443823,22.908312 L 6.9942752,22.005205 L 6.7456806,22.356897 C 6.5059735,22.696029 5.8501119,24.701965 5.6438709,25.726789 C 5.552094,26.182864 5.5830995,26.232884 6.0165976,26.328095 C 6.8416167,26.509298 7.706896,27.264337 8.0154541,28.07226 C 8.2571352,28.705113 8.2720641,28.934574 8.1190291,29.664198 C 8.0206783,30.133082 7.7951289,30.720459 7.6178092,30.969486 C 7.0235454,31.804053 7.1512582,31.880194 9.1859588,31.904424 C 9.9224879,31.913192 10.985919,31.81261 11.549141,31.680913 z M 6.8353091,29.701328 C 6.4197054,28.308754 4.7518279,27.312631 4.3945718,28.24363 C 4.3019961,28.48488 4.5819634,28.795954 5.6842965,29.676667 C 6.0344737,29.956441 6.4516198,30.461242 6.6112654,30.798446 L 6.9015434,31.411541 L 6.9533998,30.841167 C 6.9819171,30.527458 6.9287754,30.014532 6.8353091,29.701328 z M 7.6892678,29.320265 C 7.6892678,28.18901 7.6702624,28.130167 7.1305358,27.59044 C 6.5077272,26.967632 5.5731928,26.705265 5.1698738,27.039999 C 4.8203484,27.330075 4.8768781,27.463288 5.3933666,27.566587 C 6.3563815,27.759185 7.2954056,29.177155 7.2954056,30.438738 C 7.2954056,30.79593 7.3347937,30.84584 7.4923367,30.688288 C 7.614559,30.566075 7.6892678,30.04708 7.6892678,29.320265 z M 25.181411,25.94873 C 26.480574,25.402007 26.488268,25.380954 26.128101,23.36098 C 25.758148,21.286157 25.252998,19.652471 24.906319,19.409642 C 24.603729,19.1977 24.484591,19.210719 22.867955,19.632529 L 22.134511,19.823896 L 22.491537,20.350016 C 22.920867,20.982658 23.43686,22.961086 23.692194,24.953617 C 23.794905,25.755131 23.924886,26.41092 23.981039,26.41092 C 24.037192,26.41092 24.57736,26.202934 25.181411,25.94873 z M 48.838978,25.583807 C 49.35431,25.040775 49.908571,24.070985 49.77814,23.940554 C 49.735291,23.897714 49.307292,23.944236 48.827006,24.043936 C 48.346729,24.143646 47.387753,24.238462 46.695947,24.254639 C 46.00414,24.270817 45.488542,24.334655 45.550158,24.39651 C 45.928642,24.776435 47.905169,26.084724 48.108279,26.089755 C 48.242915,26.093097 48.571736,25.865418 48.838978,25.583807 z M 30.53343,24.206593 C 31.573229,23.957696 33.310169,23.598429 34.393304,23.408228 C 37.161898,22.922065 37.107774,22.956082 36.186066,22.281472 C 34.879512,21.325178 32.340222,19.79402 32.059998,19.793497 C 31.656963,19.792744 26.456354,21.074848 26.306578,21.21188 C 26.200965,21.308505 26.560746,24.372776 26.7637,25.105173 C 26.802463,25.245061 27.060772,25.210952 27.729745,24.977635 C 28.231965,24.802464 29.493622,24.4555 30.53343,24.206593 z M 49.32078,23.494872 C 49.689035,23.346878 49.990349,23.155006 49.990349,23.06849 C 49.990349,22.98056 49.868769,22.96116 49.714642,23.024493 C 48.29927,23.606086 46.230672,23.722304 44.088201,23.340579 C 42.175144,22.99974 42.418092,23.174911 44.712561,23.790751 C 45.395709,23.974121 48.647831,23.7653 49.32078,23.494872 z M 11.870691,22.426841 C 20.315407,18.170094 26.197421,16.335997 34.792959,15.279369 C 37.445905,14.953237 42.822164,14.913886 45.321065,15.202291 C 46.262293,15.310925 47.064845,15.367345 47.104527,15.327672 C 47.144199,15.287999 46.870374,15.04484 46.496023,14.787321 C 45.23801,13.921941 41.415065,13.434005 36.047529,13.453754 C 26.196337,13.489993 17.223132,16.036739 7.8084236,21.468481 C 7.5273636,21.630642 7.3000606,21.798762 7.3033016,21.842089 C 7.3065518,21.885416 7.8201022,22.287367 8.4445177,22.735316 C 9.0689331,23.183266 9.5827223,23.555469 9.5862755,23.562438 C 9.5898287,23.569397 10.61782,23.058381 11.870691,22.426841 z M 41.784826,22.891758 C 41.748724,22.862524 41.411282,22.71867 41.034956,22.572072 C 40.531138,22.37582 40.368407,22.358678 40.417766,22.507068 C 40.454639,22.617905 40.691646,22.753376 40.944455,22.808115 C 41.494327,22.92717 41.875409,22.965098 41.784826,22.891758 z M 39.110863,22.684654 L 40.093554,22.581942 L 39.987023,21.857541 C 39.551964,18.898975 38.938143,16.902441 38.400143,16.695989 C 38.272173,16.646878 37.642965,16.655857 37.001895,16.715931 L 35.836311,16.825152 L 36.126305,17.324913 C 36.542395,18.041977 37.023131,19.811621 37.235726,21.408839 C 37.443436,22.96934 37.302777,22.873634 39.110863,22.684654 z M 37.150458,22.314892 C 37.104368,22.240312 37.000545,21.657911 36.919749,21.020678 C 36.655271,18.934672 35.77049,16.631279 35.38266,17.019109 C 35.324441,17.077328 35.201447,17.626006 35.10934,18.238394 L 34.941863,19.351827 L 34.130276,19.415225 C 32.474059,19.54459 32.456173,19.648275 33.934033,20.553319 C 34.663208,20.999864 35.649728,21.641063 36.126305,21.978203 C 36.902405,22.527239 37.378404,22.683726 37.150458,22.314892 z " id="path1335"/>
  </g>
</svg>